<mxfile host="drawio-plugin" modified="2023-04-14T00:34:39.877Z" agent="5.0 (X11; Linux x86_64) AppleWebKit/537.36 (KHTML, like Gecko) Chrome/104.0.5112.102 Safari/537.36" etag="EQoVXUoXpEK2mB-Xy5_L" version="20.5.3" type="embed"><diagram name="Page-1" id="AmUMRsnUbB22njjgnM5E"><mxGraphModel dx="1668" dy="1078" grid="1" gridSize="10" guides="1" tooltips="1" connect="1" arrows="1" fold="1" page="1" pageScale="1" pageWidth="850" pageHeight="1100" math="0" shadow="0"><root><mxCell id="0"/><mxCell id="1" parent="0"/><mxCell id="8kHsx0QUj_gs8FxgNmaQ-24" value="" style="endArrow=classic;html=1;rounded=0;fontSize=14;" parent="1" source="8kHsx0QUj_gs8FxgNmaQ-25" target="8kHsx0QUj_gs8FxgNmaQ-10" edge="1"><mxGeometry width="50" height="50" relative="1" as="geometry"><mxPoint x="290" y="750" as="sourcePoint"/><mxPoint x="240" y="660" as="targetPoint"/></mxGeometry></mxCell><mxCell id="8kHsx0QUj_gs8FxgNmaQ-10" value="&lt;font color=&quot;#1a1a1a&quot;&gt;Postgres DB 15.0&lt;/font&gt;" style="shape=cylinder3;whiteSpace=wrap;html=1;boundedLbl=1;backgroundOutline=1;size=15;fillColor=#dae8fc;strokeColor=#6c8ebf;fontSize=14;" parent="1" vertex="1"><mxGeometry x="130" y="756.56" width="70" height="90" as="geometry"/></mxCell><mxCell id="8kHsx0QUj_gs8FxgNmaQ-11" value="&lt;font style=&quot;font-size: 14px;&quot;&gt;Redis Caching&amp;nbsp;&amp;nbsp;&lt;span style=&quot;font-family: Roboto, system-ui, sans-serif; letter-spacing: 0px; text-align: start;&quot;&gt;7.0&lt;/span&gt;&lt;/font&gt;" style="sketch=0;aspect=fixed;html=1;points=[];align=center;image;fontSize=12;image=img/lib/mscae/Cache_Redis_Product.svg;" parent="1" vertex="1"><mxGeometry x="591.8" y="859.4300000000001" width="88.4" height="74.26" as="geometry"/></mxCell><mxCell id="8kHsx0QUj_gs8FxgNmaQ-12" value="19.0.3-legacy" style="shape=image;imageAspect=0;aspect=fixed;verticalLabelPosition=bottom;verticalAlign=top;image=data:image/png,iVBORw0KGgoAAAANSUhEUgAABDgAAALQCAYAAAB118BaAAAAAXNSR0IArs4c6QAAAAlwSFlzAAAOxAAADsQBlSsOGwAAIABJREFUeJzs3emXI1ed//nPDSmX2pes3RvYYGwYlh7bGGjohm5659e/7v4xM7+eOXMOf8s8mGdzzsyTfkz/Ghq8YMDQ2A3eXcYub5RdXsq171WZVbkvSiki7p0HUoRCUigrF4WkUL5fPuXMSmUpVklxP3Hv9xrnnBMAAAAAAECOeb1eAQAAAAAAgI0i4AAAAAAAALlHwAEAAAAAAHKPgAMAAAAAAOQeAQcAAAAAAMg9Ag4AAAAAAJB7BBwAAAAAACD3CDgAAAAAAEDuEXAAAAAAAIDcI+AAAAAAAAC5R8ABAAAAAAByj4ADAAAAAADkHgEHAAAAAADIPQIOAAAAAACQewQcAAAAAAAg9wg4AAAAAABA7hFwAAAAAACA3CPgAAAAAAAAuUfAAQAAAAAAco+AAwAAAAAA5B4BBwAAAAAAyD0CDgAAAAAAkHsEHAAAAAAAIPcIOAAAAAAAQO4RcAAAAAAAgNwj4AAAAAAAALlHwAEAAAAAAHKPgAMAAAAAAOQeAQcAAAAAAMg9Ag4AAAAAAJB7BBwAAAAAACD3CDgAAAAAAEDuEXAAAAAAAIDcI+AAAAAAAAC5R8ABAAAAAAByj4ADAAAAAADkHgEHAAAAAADIPQIOAAAAAACQewQcAAAAAAAg9wg4AAAAAABA7hFwAAAAAACA3CPgAAAAAAAAuUfAAQAAAAAAco+AAwAAAAAA5B4BBwAAAAAAyD0CDgAAAAAAkHsEHAAAAAAAIPcIOAAAAAAAQO4RcAAAAAAAgNwj4AAAAAAAALlHwAEAAAAAAHKPgAMAAAAAAOQeAQcAAAAAAMg9Ag4AAAAAAJB7BBwAAAAAACD3CDgAAAAAAEDuEXAAAAAAAIDcI+AAAAAAAAC5R8ABAAAAAAByj4ADAAAAAADkHgEHAAAAAADIPQIOAAAAAACQewQcAAAAAAAg9wg4AAAAAABA7hFwAAAAAACA3CPgAAAAAAAAuUfAAQAAAAAAco+AAwAAAAAA5B4BBwAAAAAAyD0CDgAAAAAAkHsEHAAAAAAAIPcIOAAAAAAAQO4RcAAAAAAAgNwj4AAAAAAAALlHwAEAAAAAAHKPgAMAAAAAAOQeAQcAAAAAAMg9Ag4AAAAAAJB7BBwAAAAAACD3CDgAAAAAAEDuEXAAAAAAAIDcI+AAAAAAAAC5R8ABAAAAAAByj4ADAAAAAADkHgEHAAAAAADIPQIOAAAAAACQewQcAAAAAAAg9wg4AAAAAABA7hFwAAAAAACA3CPgAAAAAAAAuUfAAQAAAAAAco+AAwAAAAAA5B4BBwAAAAAAyD0CDgAAAAAAkHsEHAAAAAAAIPcIOAAAAAAAQO4RcAAAAAAAgNwj4AAAAAAAALlHwAEAAAAAAHKPgAMAAAAAAOQeAQcAAAAAAMg9Ag4AAAAAAJB7BBwAAAAAACD3CDgAAAAAAEDuEXAAAAAAAIDcI+AAAAAAAAC5R8ABAAAAAAByj4ADAAAAAADkHgEHAAAAAADIPQIOAAAAAACQewQcAAAAAAAg9wg4AAAAAABA7hFwAAAAAACA3CPgAAAAAAAAuUfAAQAAAAAAco+AAwAAAAAA5B4BBwAAAAAAyD0CDgAAAAAAkHsEHAAAAAAAIPcIOAAAAAAAQO4RcAAAAAAAgNwj4AAAAAAAALlHwAEAAAAAAHKPgAMAAAAAAOQeAQcAAAAAAMg9Ag4AAAAAAJB7BBwAAAAAACD3CDgAAAAAAEDuEXAAAAAAAIDcI+AAAAAAAAC5R8ABAAAAAAByj4ADAAAAAADkHgEHAAAAAADIPQIOAAAAAACQewQcAAAAAAAg9wg4AAAAAABA7hFwAAAAAACA3CPgAAAAAAAAuVfs9QoA2Bycc71eBWDDjDG9XgUAAAC0QcABoCtmZmY0MzNDAxG55JzTzp07NTY21utVAQAAQBsEHAAyZa3Vu+++qx/92480Pz/f69UB1m10dFT//L//s77xjW/I8xjhCQAA0G8IOABkxlqrM2fO6Cf//hNdvHiR3hvIvcd++pj27dun+++/n5ADAACgzxBwAMiEc042tHr++ed17tw5Oeca6nBQkwN50BzKXb58Wc8/97zuuecejY6OEtoBAAD0EW4/AciEMUanz5zWsTeOSaoHGs1BB9DPkuerc07GGB07dkwfffiRjDGcywAAAH2EgANAJnzf1w9/+EPNzs7GDUMag8ir5Dk8Pz+vH//4xyqXy/TgAAAA6CMEHAA6zlqr3/72tzpz+owkyYlgA4Pl4sWL+tXTv5K1luAOAACgTxBwAOgo55yuXr2qZ595Nm78GXGXG4PDOacwDPXMM8/owoULvV4dAAAA1BBwAOgY55zK5bJeeOEFTUxMtDwG5FnyHDbGaHZ2Vr/9z9+qVCpxfgMAAPQBAg4AHWOM0ZUrV3Ts2DFVKpWG4ozAIEie02EY6p133tGZM2eoxQEAANAHCDgAdIS1Vr7v64UXXtD1a9cJNzCwkuf25OSkXnzxRZVKJVlre7xmAAAAmxsBB4CO8DxPZ8+e1csvvSyJYAODzzkna63eeP0NffTRR/I8PlIBAAB6iasxABvmnNPCwoL+9Yf/qqWlJaaFxcCLznFJWl5e1k/+/Seam5vjnAcAAOghAg4AG2aM0bPPPqvTp0/3elWArnPO6fz58/rNf/yGWhwAAAA9RMABYEOcc7pw4YJ+9atfKQgCam9g00ie42EY6tlnn9WpU6c49wEAAHqEgAPAhlQqFf3ud7/T0uISd6+xaRljtLCwoGd+84xKpVKvVwcAAGBTIuAAsG7WWn3yySd699136b2BTal52tgTJ07oxIkTzKgCAADQAwQcANbFWqvyclkvv/SyJsYn4gYd4QY2m+ict9ZqenpaL7/8subn53ktAAAAdBkBB4A1c87J8zyd/OSkXn75ZYVhyPAUQNVaHG+8/obef+99ZhICAADoMgIOAGtmjFGpVNKPf/Tjhq74NOawWSWnjXXO6YknntDi4iLBHwAAQBcRcABYM2utfv3rX+vs2bPUGgCaOOd0+fJl/ezJn/H6AAAA6CICDgBr4pzTuXPn9MLzL8R/B1AXvSZeeOEFnTx5ktcIAABAlxBwAFg155zK5bKef+55TUxMSFJDt3xgM4teA1HtjdnZWT37zLNaXl7m9QEAANAFBBwAVs05pxMnTuj48eNyzjEtLNAk+VowxujDDz/Ue++9x2sEAACgCwg4AKyKc06Li4t68YUXdf36dYVh2OtVAvpaGIaamprSiy++qKmpKUIOAACAjBFwALitaIaI48eP67333mt5DEBd8jXhnNOJ90/onbffYdpYAACAjBFwALgtY4zK5bIef+xxLS0txT+jsQakS04bWyqV9POf/1xLS0tMGwsAAJAhAg4AK3LOyVqrxx57TFevXu316gC5NDExoX/7H/+mMAwJBgEAADJCwAHgts6ePavnfvdcHHYAWL3odfPcc8/pk08+oRcHAABARgg4ALTlnNPS0pKe+c0zWlxcbOh2z11oYGXNr5EwDPX0L5/W3Nwcrx8AAIAMEHAAaMsYo48++kjHjx9v6LlB4wxYneaCox9//LGOHz/ewzUCAAAYXAQcAFJZazU7O6sXX3hRMzMzcUONcANYm+RrZ35+Xi+9+JImb00y3AsAAKDDCDgAtHDOyfM8vffee3r33XdlrSXYADrAWqsPPvhAb7/ztjzP43UFAADQQQQcAFJNT0/rZ0/+TOVyWRLTwgIbkezF4fu+nv7l05q8NdnjtQIAABgsBBwAWhhj9Iuf/0JXrlwh1AA6JCrS65zTjRs39NRTTzGjCgAAQAcRcABo4JzTJ598oqd/+bTCMOz16gADyVqr3/zmNzrx/glCRAAAgA4h4ADQYGlpSb/8xS9lPNNwd5lGGNB5T/7sSc3Pz/d6NQAAAAYCAQeAWBiGevutt/Xhhx/KOcfMKUCHNb+Wzpw+o9eOvqYgCHq0RgAAAIODgAOApGqX+ampKb3yyiuan59nCksgY9ZalUolHT16VOPj4wSJAAAAG0TAASCeFvYPf/iD3nnnHVlr42KINLqAzopeV8YYWWv14Ycf6tgbx3i9AQAAbBABBwAZY7S4uKhf/+rX8jyPRhbQJVG4+Nxzz2lqaopZVQAAADaAgAOArLV67LHHdPny5bj3BoDsRb04rl+/rscfe1xhGBIwAgAArBMBB7DJOef00Ucf6bnnnov/nvwKIBvNr7WjR4/q+PHjvVwlAACAXCPgADYx55xKpZJ+/tTPtbS4FNcFANA9Ub2bpaUlPf7Y45qfnydgBAAAWAcCDmATs9bq2LFjOnPmjDyv/nZA4wrojuRrzfM8Xb16Va+++qrCMOzhWgEAAOQTAQewSTnnNDExoZdefElzc3NMCwv0mLVWCwsLevWVV3Xl8hWCRgAAgDUi4AA2oWg6yrffelunTp1qaEjRqAK6q/k1d+HCBR07dkxBEPB6BAAAWAMCDmATMsZoZmZGv/71r7W8vBz/nMYU0BvJ1165XNbvnvudJiYmqIkDAACwBgQcwCbjnFMYhvrpT3+qW7duMWsK0CeSr8WpySk9/tjj9OIAAABYAwIOYJMxxujEiRN64fkXBraQoVN9GI6L/t7VP07OVb8fZE6SerCPq4t1A93wt9bqtdde0zvvvEMvDgAAgFUq9noFAHSPc04zMzN66mdPDWy4IUlKNnxtKNPFdrAzRvI8SdWEwxmjQWyexr0NjJFsKHWxSG11Hxfq6zGg+zgMQz35xJO67777NDY2RtABAABwGwQcwCZijNGxN47p7NmzDT8fpDvhyS0pOCd/6y75xeEudKdwMjIaqizJK83LFWpvr7UG+CBJni4m8GV27ZXdtqtLSzfy/GVp8oasTHXfDtA+ds41BBmXLl3Syy+9rH/6b//Uw7UCAADIBwIOYJOw1mpifEJHjx7V0tLSQNbeiIZMSJIKRV286ws6deRBhYWhrgwXMc5pTL7un76kHSeOynlFSa6l0Zpn8fliJBNaLT74VQXf+ntp7yG5rvSjcPKCikbff1VDrz4tVcpdWGZ3ReeLc06+7+uNN97QQw8/pLvvvluex8hSAACAdgg4gE0gapS++eabLdPCDoo43DBGktP4gU/r5JHPq+QVGrscZGjIWS0eukfHvvIn+tryorafPi43oA1SY62W7/qsjn33BzpofR32fdniUFcijqAwrOAr39GO6QkV//CqBi1ESrLW6vz583r99dd1xx13yBgzkNsJAADQCYN55Q2gxfj4uJ555hn5vj+QvTeiLhpOkj+yTZcOfqYabnSJkbR1yxbZ3WPynXTq4b+V3bmna8vvLie7ZbvOPvRXKntFTcpoqVKWcfU+HCbjP854Kv9PfyyNHYoDrEE6n5Ov0TAM9cLzL+jSpUuEGwAAACsg4AA2AWOMnnjiCY2Pjzd0fx8ULv6/UTHwNX7g05rYPtb4S8Zk86emKKfi2AGVR7aqYEPdGjuiiQcejRukg7C7o00wMpq598u6ceSzKoSBSl5RE6GTwqA+y4mU6f6WcyofuEeVL31DsoFkBu/jLPlanZyc1FNPPdXrVQIAAOhrg3dFCCAWTaX59ttv68UXXpTt4kwX3dJQd8NZhVt26MyRB6sFKCNZ3PV2riG12Dk6qvLuA9WHjJGTdPFzj6qy52CtNoXL9bSx9SFAnoJtu3Tp899Q4BWrM5rIaNoMqbS81BA0ZBKiRUM0jJGMVPriN2UO3iWFfnbL7APOOf3+td/r6KtHB36KXAAAgPUi4AAGmDFGMzMzevyxx3u9KtlJNPQ8z9Mn9z2s+eGt6sK0KbGtNpQ5dFd1tpaY0dyu/Rp/8GvViT5qs33ksVkahRvOGJkw0K37H9bkvrsbfsf3CrpmPRWXFyQ19rTIbsWsgtHtKn37+zJD9X0/iI3/aJt+8tOfaHJykqEqAAAAKQg4gAEWBIFeeeUVXb58ueHng9gANM5peu8dOr/vU5INs11YYv8VrNX23Xu1uGtMzjX2kLHG05XPPix/3xGZMGz5t7lRW2djreyuPbr8+W/ILzTWNzGSpoqjmlpeVsGFikKOrLbW1P5vQl+lT39J4YMPS4PYQ6npfBm/Ma7nfvecfN/v0RoBAAD0LwIOYEBZa3X16lX9/rXfq1wux8NTBjHckKRgZItO3/F51QYq1B/I8k63c9o+VNTykU8pdJKpLTcuhumcZrfv1aWH/1oFKZ5GNU9HIK6pYYwKNtTVh/5ak3sOy7j6ttYZnfe2KCgtdWU2lWgFrbNaevgvZXaP5TNAuo3oNWutlbVWr7/+us6fPz+wr2UAAID1IuAABpBzTtZavfbaazp58qSstQPXpd0pWfRSurXvbk3u2FdreNe2Nattrj3vsJyG9h1UaXRrvUdB7fFo/bww0On7v6r5z35FhaBSXbc8NUxr6+oFvkqf/rxOfvHbMjaoP25MYuYUp+WhEd0InExQST5J59fL1Pe1sVaVsTvkf+Fr8bHJ0y5ejajgqLVWFy5c0MsvvaxyuUzIAQAAkEDAAQwgY4yuXr2ql196WYVCYTCnhZVqrVijyug2XTxwnyrGqzelMwk3XFxc1EjasmWrlvcckFfrHRM1uOPvJTkjKQh06pG/VbBnv1QbxpKHIxGvo3Oy23bp5KN/L985mdoD8R5OhBxFG2qiMKylSjl+BueUTeKQCDlkpNLnH5X2H6mtWT7rndyOc06FQkFvHHtDFy5cGLjgEgAAYCMIOIAB45xTGIb62ZM/08TExMD23qgW7DTynNWNg/dpsnla2CwZoxFj5O3dL394tOHnrd8beTbUrb1HdP0L35SJalfkIWyKhqF4nm597hFN7L9bhTCoFhuVUrfXSfKNp5uhpMDvasjg7zmkype+Kbmwuj45Leq6kqgXx9TklH7+85/L9/3BCy4BAADWiYADGCBRN/Y3j72pY8eOxT9Lfs275LSwngu1vH2vzh66X0FXpoWtfW+ttm3dJn/P/voiU/5JsoeDlXTpsw+rtP/O+lN2fi07pl57Q6rs3q9LD35NVlpx3yYfmfSGtLhcij9kGqbz7aRE7xHJqPT5r8scuVcK/DjkGBTNr+Xjfziuo0ePyhgzMK9vAACAjSDgAAbM3NycfvSjH8Xj8wet94akao0LY+QZ6dS9/7PmR7YpbpJnXHdDMtpufenQnaoMjaQ83vhvqvu/+mdhx5jGH6zViejjHgZxGGGMPGt18/5HND12hyRT36Z221v71vcKumwLKpQX5Uz1o8ZleGyqe9gp2LpTpT/7b/IKheqGGNOX+3gjokBjeXlZ//rDf9XU1FSvVwkAAKAvEHAAAyQMQz3//POanJqU59Vf3oNydzdueDsnz4aa3P8pnd9zZ3emhY16jdhAO/fu1+L2PTLJ2hsriJrYTkZX7/0jLR+8R8728TCKWrjhrJW/96CufO6rCqMyqrc7l0z99+aLI7pVKqsYFSV1LtNz0UkyQUWLd39BwVe+Jdmg4dgNguT+8zxPi4uLeuaZZxQEwQr/CgAAYHMg4AAGhHNO58+f19FXj6q8XJ8WdlD5o9t16o4vxEU7u8Np58iwFu+4V3YtU9HGj1vNb92lSw/9pYrGqze8+6gB7hLrVJTT5Yf+StM798tE+3mNvTAuFbeosrTYvWljjaTA19IjfyXtOxzv2/7Zw53jnJPv+3r99dd16tSpgQkyAQAA1ouAAxgAUXf1o0eP6vLlyw0NnYFq9Lj6MJQbBz6tqW17GgOOrGpv1IxKKuw7rKXh0bjBv7YlGhkb6NKnvqiZBx6RFwbZDanZCGNkbKj5+76k8/d/VcaGWsuWRr/pSVr2hnQ1lOQnpo3NqBZHtHRjrSq79qvypW/KFIu1SVUG53XQ/JqeGJ/QKy+/osXFxYEPNgEAAFZCwAEMAGOMrl65qpdefEm+78c/H6RwwyW+lkd36PKB++QbT2uNGNYrnhZ270F5tQa/iR5Y5b+Pvgtk9PHX/l52516pHxuk1kpbd+jMV7+nsleIf7zqPV2rieEkFeR0qziixUo5MVQnG8mirpLT8gOPyB64S3Kmez1IuiT52q5UKjr62lGdOXOmYWgaAADAZsOVEJBzUTf1J598UvPz8wM3a4qUnIGjOi3s9UOf0eSWXfVfaFf0ckMLdQ09RkaMkdl3SEGhqMZwY7UJR72RXbBWU9v36doX/0Sm1iB1Pa7F4RSdM0bGeJp44FGN771DxbBa26FlWtjbSYQcVkbj1shW6r04XBa1MeKirpJkFOzYq8qXvyXjVYvS9nofd1ryNV5aKumXv/ylKpXKQL32AQAA1oKAA8g5Y4xee+01vfXWWwPZPT0ZbsiFKu3cr/MH71NXm6rWatu27Srv3Nv0wBpDlajRb4y80K9OG3vg7vrjvWyYunofmdKBO3Xxga9VQw/jrT3ciCT+zYw3pPlKuSs9KeJlOKfl+x+SvedzAzltbJK1Vu+/975eevGlwZw5CQAAYBUIOIAcc87p5s2b+tmTPxvIcENSQ8Pb8wo6ffeXtDC0pf54xnU3JKPtLpQ9cFh+caj2k40v10ha2L5XE597WCoOS6YP3o6NJ3mebt7/kGb3HLr9jCmrecra18B4uuE8mfJSPF1sPbzqsMSxCUa3aflrfyMzPCLZwevdlGSt1RNPPKHr168P7DYCAACspA+uqAFsxHO/e043btxo+NngNW5MPC3spbG7JZfxtLANy/W1a2y/lnaOdaTBn+zFERpPlz/7iJaOfFoKq7VTenHs4mWGgcr7jujyZ7+qwCvIRcNqOhAiGUmzhRFNlpY1FAZySoQcGTJhoNI9X1D4lW/J2D4t6roBzefLrVu39B//8R8D+B4AAABwewQcQE5Za3Xq1Cm9/vrrCsNwcGtvSJKz8rfs1Cd3fkE2OaNH5r03nPYMD2v+yH1ydg3Twt5O7d8bueq0sX/0XRVVDT1UqxXRLfF5Y4yKsrr80F9pbvvudU8L28IkC3waXShuVbm0IC8ZbWSwvfEwDWOkwNfiV/9abt9hyXYrHOue5GvfGKO333pbH37w4eD26gIAAGiDgAPIIeecyuWyXjv6mq5duzaQDZmG2hteQZcPf1YzW3Yp+3v+daNycofuUmloWEbrmRa2vbgUZhjo6p0PauqLf6xC4K/4b7Jj5IWBZu9/RJc+/RWZMDFLTEeX4lQpDOlq6El+ucPPnra8Gmflb9+jylf+RGZopPqjAQoCk6y1unnzpl5+5WUtLS0N7HYCAACkIeAAcsgYo7NnzurVV18d2N4bESenxe17dXn/p+Qbo0x7byTCE09OW7bvUGnXvnha2CyW6zlXnTb2q38vf+xQD3oYGMlZhTvH9Mmj31PFePKymN2k9m3BWU0WRjRXrsS9RLKsxVEdYuPFBUfDOz/T+eX0geRr31qrN4+9qY8++kimyz2CAAAAeomAA8ipX/zyF5qdnY27pQ9aIyaq/eBJunboM5od3a7u9d4wGvE8aeyQbKFY723R0UUkZlSxoW7tGNP4F74pzyt0t06EkTzPaPKBRzS+54gKNuxo7Y36cqrPaSSFxuiGPNlKJT6imR9Z5xTsHKtOG1ssxtPzDpLoPcBaq4WFBT39y6cliVlVAGCNBu2aCthMir1eAQCrF33gvvTiS3r7rbe7MuVmLxlntbzrgC7tu0fOZdlzo8ZFy3Xatm2HlnbsiX/c8QZ/9HzOScaoGFQ0fuheHR4alueX1eE4pf0qSHKFIc3uv7vaU8Vku5+jS8Y5M6RZf1m7R0brj9XCuo6KgqTawpfv/aJG73lA5vR7UmHwPgKdc/KMkbNOH374of7lX/5FP/jBD1Qs9se2Rsd3szYeBjGMHigu/l9nZP55Fa3roFwNZPvaWMuzFwoFFQoFAmIgh4zjkxbIlZnpaT322GMaGR5WoVCUk5NRry6as1lm9Kw2tPr/Jot6z22p/zSri43E/ttVLGj43gc0O7pDJprvI6MhMc5VL00rMvpeZUL/MPVBdeiGMYlkZdVPp3prXrI2VBAEt/1nxhi9NPagHt/2KVXPqIwCHUly1ed3kna7UA+OFuUneslE69P5xUbFVD3tm5/QX1z6vYaM62ZJl+5JhDqe52n79u3asmXLuvdr9Tzq0NCpTjcgV1pMlzjn5Ky9/TKdq52HOW8wZbAJPX8Z1s7LMFz5/XLVn7PGyNT+ZMr2fM91VNZb46xVaK2CMKgG6iknslP19Xzo0GF9+Y++orvuuqtvAmIAq0PAAeRIpVLRBydOaHZ2diALi0ack4pG+s+JZf0/l0vyk5c9GQccI87pyJ336Pq+I/HFbDYXqfVww0raLun/Nhf1GVNSaDZe4NM5J79SWdV54kkaN6P6v4bu01UNVWd0UXYhR/Jj5/6C076RIZUTl5qZ7O9asCJVQ47vLF/R15auKEwmQgMiuf820sgyxshaWz2POn2pMCiXHsbIhuGa3o/tgDVKB4OTtXbF47iey+XotZdV2OE24blU3Y2mGsW32fzkY8mhe0EQyFq7qmNpjNHWbdv059/9rg4fOUxPDiBHiCSBHLl586aWlpbiwqLJBngm3fu7LNoGI+lqKdSPrzeFG9ktOP66b8d23Ro7JOtctvdZE5sVyuj75pY+o0X51sgYt+atTh5/55wC31cYhrc9J5yqAcsht6TvB+P6f4t3137SHWdDaU8YyCsMdSVmMJKcs3p9+KA+VZ7Ufn9Rzpgsbkr3TPO5sJF/66/yPFrjQuKhWXlnnZMN19a7hYCjt5J1q6KvyZ4bzZ+l8d9dreG8uoUkzu/6u0sUdJjEY9VfNXFvzNs+rSRn1Ne9N1YKH5oZmVW9+Ta/lyWvgZKFqtOW7Zyrhxu1/Zx8nzOJ4aLxehmj0tKSTpx4X0fuODIQ11jAZkHAAeREqVTSxMSEKpVKaqOl+a5t3iQvHqyTnr1V0Y3A1e+vd2GbdhQ8uYN3qmQ8FaLwKKNlRUcwkNH9Kuv75qZ8Z6qbuYY8/8sWAAAgAElEQVQeHGm9TMLaHeXk3cPbPIl8Gf15OKHfF/bqLbOtcahKh0Wjb+SksowuVpzuHbWqGC9enyzqnZhaLw5P0pIp6t2Rw/pueF6es3Fvlfy9cjoj+Z4SfR+FZNHPNvS+kjY0JRqukaOd3vzeaxOzWEntX2tp+zeP79N51dzoTd7Vbx6WknZcnHNxwLGq45YMSGTqje/EsTfGi3/NJRvnLU9lmn6n+r+G865pmRvR7Y7dVq4hrHG10CfudbdCcLEaUVCb/LuTk3GmZd8qcXyiUOT0J6f0wIMP6p577iHkAHJi8MrIAwMm+uCdGB/X9NRUahfaljsbOety37z+ZxcDvTrjK1AXwo3asouStu7eq9mtOxvDjYyno90pq//FTKqgtdc4SDvKNgwb7iiv5WLMSvrH8Lr2Kqj34cjkYrceJBQljTujuSCMP5CSF7WdXWy9NkVRTmeHd+tycWf9cZe3V052wjBUmHiv4aK+VfIOsrT6fZRs1DJKOHtRONEsPdxY4XnWOedT2tA755ysDVc1XCL1PGn+J6s491z0n1v5TyclnzcaAhSGYeJPoDAIFITVelFBECgMwnjYl6vtn+QxTM5q1tojplE0LCUpDjXkZF36/k/+bGhoSK+8+JIWFhZ4HwRygoADyIFyuayLly7Vutc33glKldNrZivJt04vTFV01bdd67lhJG0bHpbds1+BSbwtZlV7I7HcR8yivqx5VVxh7b0IUrrsBkH9jvJqLsaSywxkdG+4oEftnApK1ivNJuSINtRJuh46yXaokOWKi62HHIumqA9G9iswBblNfOGa1vU7DILO9jRo9xQ53u2DXAdp0FXDhcb3m+p5vpqgYO1aXkOJngNRw99at+pcN/41Y9p+TrUEF26dK3+b566vfz24CMJaWBGGcXgRPVb//WibXcNnWUNokZhePPmzFfZIzCaKiSY1f8LGQUfKc1SHL4VaWlrS8T8cJ5AEcoKAA+hjUXfIT06erFb/Tt6Zz3PLICHZ7XbYkz6cC/Tb6WrvjS4sXFL1jXDr7jEtbd0RP5R1/Q0jaa9CfVfT2qZQZoNXnk7VIQXOrb/RZSQNyeo74aQOu0p9jTK6pkvu4xlrNB/U90NmvTianBnarYtDuzTkwniZm/0SNvCDzhcVHQDNw0zW1NjJ+RDCvEo7RmEYtIRTqzsmUSK7/uNXbaA3Pp0UnU921b06knWj1MGeGC29LRI9LpK9LJJ/6r0x6sGFs8lgpTlgUENQkQw0Vt8LqjHoaN7cKNxoeDNveO70YUhpQUe0HZcuXtS1a9cIOYAcIOAA+tytmzc1Pj4u328qt2kSFwZRRfEcM5KMM/r368uaC7uwLfFFitGuoSGFYwflm0K8LllPC+tL+ppZ0Be0WFuN+t2qVT1T0x2voGnGlLU0opovOO+zC/pTOxPX4MgubDDxbg4kXQukorXx8JhqOyKboSrRji6bgn6/5U6FppDhce9fzRfrge8rtOsb4rTONVBeupwl90X0Wlttw6xtB5ZNdr51U0u9BFctJlqdHrRurUOLNnrIjKJeCY3nTvR9Wq+O6mPxZiSeqzUgaBcY1MOPKLyohRYpwUXc2yLR48I1fb6kLivaljX8zsr7Siv2Uom2q/nvQdAYbsRFROO/Nz3WvP+djYevRM83Mz2tDz/4oKGeB4D+RMAB9LEgCHTp0iWNjIy0vWsQFcxKqxre75K9N4pGevp6SceXwuSg5awWHH875ELtOnREs8Oj9d4DGQ5NiQps7jdWf6cpFaPmvFtdr5Fq7bXWRul6w400npy+Hd7SPa4sq+xDjuj/0zK64QcajeK61pt/nVtq7XkLcrpa2Kbfb7lTXrTATdKLo/k8iu7SRjre+E67g5qDfKN6SiRmbGj6ftUaenEknhwdlXZ8nHMKbdDwmZPV1K3rEa9HHL6Yhl4d1aEd0TCT+jljlVbbohpS+EEg3/er39e+Vv9E4UWtxkWyzkW0LqvsXdEyvKTp32cpraeKtbYlgEhb7/rAl1oQpuoHc/TOnww6osKyxhiNX7+ha9euMTwN6HMEHECfcs7p6pWrWlxcVKVSafh5UvMdmobn6PeWQ01B0oXFUI/dLCsugdGN2hvO6eDOXZrac7CxR0SGy3ROsjL6vqZ0t5Zlo6WtvutGw19t09ClTggljbllfT+cUCExeCbrs8lIuhwaBb6vQsbLipYnSQVZHRs9rGvFndWQYxNIr7vRhRookZV7i/eZ5tdcY++p1Vpd5QBsRGu9BVXvxtuwsefDhj9fskpe673LGjufuHjISHNBznZDRZqDi+STrtjDYk2r250wo1lasLhSQdHm75v/7mp3GNL6UEZBRxAGml+Y1wcnTqxuGBGAniHgAPrU4uKibk3eqg5NSdyFut0FSMOHbk4+fyvW6Vc3y7rhd3eFdw0VFR68S4vGSxsW3VGudqfayujLKulvNdkwb8qqem+06Yq7npkc0iT3QSijr4eT+rqbU5hxCzRaZU9SRUbnAqeiS+ydLC4koyJ/teWWjae3Rg+rbIrxMnPy8lm7lP1ZrbvRo1lT+nhHN69adFdd2mC7rk96DgyS9Hob4aqn8u0fpun0SDTEE6FFyyw+ahoylRJmrH4N8rCf6m4XbjT87DZDZNpO9VzrLXP1yhWdPn067uUBoP8QcAB9yDmn8ZRpYdt98K50IdKPzbSoy3fkzGKoN+cCudrwjW5c/BfltGX3Xk1v3dE4LWwm6mO+t8rq+5rUkMLGSvjrEPh+y7joDUs0/I2s/im4oV3Jdc1oRpVo6E5B0oTzNOOHKmQ4h0ttsfHzF53T+aGdujy0q+E86L9Xz8Y1b1MYhE11N7Jcen4aTZJawqDk1Lkbads0nGM0kjasbTHRDRRdThcN2OvGeRyFEol339qQkHiGkZRAY+Vn7F2vi05pW3MjYeXPwobKo22fNxkKRcNYollVXn3lFVUqlVyFQMBmQsAB9KHl5WVdu3ZNQ0ND67r47f9eHPWGq2+dnrlV1tWgW9PCVpe9bXhU/p4DDVO23q6Y2bqX6OqXxF/Xgr5gFuTHnWFXV1i0pe5GEHS07kb8PNUni6eNvcsu6M/stLzosQzThijk8CRdC9UQ3qRV4+/MMmvTxhqpYgp6b+SAlk2xa7O4dFvqmPWguWhehq/BNnem88A21xtYz2supcs8jaT1S58xpNoIbR6a0YmaG0b13njdkNaYj79G297mvXEQwoykjdTcaHg88b7T3Isj7XorrVirnNMbr7/eep4B6AsEHECfcc7p9KlTcVGwTj1nv0gWeRsy0ok5X6/PdWVS2DhpKEraumdMpdFt3Vho/N2YQn3XzGhItv7mu4prz7RikGGHzo32TLyOfxJO6i5XTkwbm/0V/pwzmgnC7tXEqC3mUnGHzgzvUdHZgZs2NvXO5xobBx3VsKj+28tpjamNGoymZn9I+1yL7rC7puFWGxpNlPzXWY9lbLcOxshZ1/zDTXM+tRt+tLaeG51bF9/3de7sOd24fj3z5QFYOwIOoI9EQ1NmZ2frd2dWySSKk+WBMVIldPrpjbJmmi/csuScdo2MyN+7X35iLG42d7mqU/x5taV8Q/P6nFts00G23eqmFBXN+KLONK3YnXZJ37Izcd35asO/o4uMlxxtSijpeiCZsD48JrNeFYmGQsV4env0sMreUD1cGaCQIxJ167YpBQgzl7aYPt/B1tqN995oMiA31nsitciks/E0sJE8945JbkdD74Xoc6t5H/TRjYxOaldQtLm49nqPdXNMdLvrrqjga6m0pJMnT2p5eXldywWQHQIOoI/4vq+zZ87E1dDXLCfXN07SiJF+NV7We4tZl7CMFlrdOUPOasfBI5od3lpfbmbT0Va/BJIOKNDfuVsaairZudLFVNpjnSwqupIo+qnWxXD6TnhLd7qKfGWdo9VDp1kZ3fRDjSQqyWR9inuSrhe36Y0td6rQlxVs1qclKGt+j+nq3WCT8n1/NUTbDQ3IYmrR9GEWaCe9wVstJprJ8vrhXSB5jjjXZ6+W7gpXWVB0Jc03hNbz7met1YXz53Xt2rU1/1sA2SLgAPqEc05Xr16VpJYxpat1u7GkvRatU8FIZxYC/WSiLOclGq2ZBQ3VJXjO6fDuvZrac0Cm48Xnmhfp4robRkbfd7d0h5YVuvaNp9vJpKjoCqJrQCtpryvrv4c3VFC9CGlW51i0XE/SRWsUBn7Th1U2vTiiZy46qzdHD+lKcVdc6DTPvTjS627UGwgb7cK/IX2Yb7Tsr0TjstPnfL+/Z/eTdkGQtWHL8KEsgqheiqYmTtsul/yTSa2i3kg73mnDMzvTm2ptvTik6vtopVLRBydOaGlpidcv0EcIOIA+sbi4qJs3b6pUKm3oedpdMPf6wze5/HLo9MuJimZCl30vioQdQ0X5h+5UaV33a9YnkNFXtKQ/01RcWHQ1x6Llwi4I1terpwOigqOP2Cn9sZuTn/neM3GY4MvojN88bWxWS61/rcjondFDWjZD2SysR9JmHOgPXazcuEbdDBWRLr3eRm0a2KbjM2jHyKUFbIlAtuX3u7ReWWpXcyMMw4bju7Fp0Rv/7XqeKwxDXbtyVefPnWPaWKCPEHAAfSAMQ92cuKnS0lKmy+mXD9/35wL9fs7v6rSwQ5K27t2vqS075GU+xKNeSHW3Qv1vuqnhhqlW1VIwbqUwynagS+66JS6kPWf1vwbXdEhBU8HRLJZb/eJJuuU8TfuhislpYzOsxeEkDcnp3NAunR3eU3+8T14/a3G72XcoBNEorXdVN943B7Fh3intiolaGzQUE81KL/o3bXgmtBy+V0VWCjeSj3e+9tTa65g552Sd1bE33tD8/HxH1wfA+hFwAH2gVCrp0qWLHZtyrN+6PUfrYCWVQqffTlY0FXapy39t2dtGR1Xec6CxfkUXFv9NzekBN5+YFra2WkpvOPXbTBfJXg2hjO60i/qLcDLzD4/q9H3REB/pSmgaxth349wpm4LeHzmgRTPUtRogndTaC6i1tk9/NKlrSafrj7VJ6sTMKS0a7kB3/ukHSfp7ZGsxUak774s9CTtq52BaCJa2NoN2SqXVJOvYtOgt+3Pt107RrCpvvP4GISXQJwg4gB6K7g6ePnVKxphsLqbV26EqyeUNe0bHZ329Oe8r3tIsLwhqyx420ta9+1Qa2dJ48ZfBsqvHtHqReYcC/YWbllR7szWmYZmrqcXRraKiKzG19Y6GqnwznNS9bjnu7ZDNOVWNNqI276KTbgW2YdpYl8V0tbVGRPSs14rbdGZkLHczqqT2Agqb6m70y8V4vBr9VT+gufdGxxpVbZaFRqnhRvPsGbXzOMtz2ZnEe05D1JnNMWuZPUVKH/5gjFzKdmfeuy4jbWtuZBRupD2fkVnzDaJo2N+lixd06dKljq4bgPUh4AB6yBij69eva3JyUr7vZxZw9ErzxUHJt3pifFmL3bjuSlSc37llq5Z37VN0mVTtHZDd0JTomb+lWd2txpoqJvkLahzf3ywMgoZeC/3SIN3nyvq2nVJRiRoqWRUcjZ5e0g1bnf2jYQ6BjOtxBPL07shBLXgj9cX1eciR2gsoEZT1x3nU7t5z79atsWEphWHttZlJA9q0fMtsKnXtiomGtvs9kFp7bRhVa3lmv/Rk7Y20c/C2PThycj6lD0tprTvVi/eu1bzbRwVHP/7wI5VKJV7HQI8RcAA9VCqVdPHCBRWLRVlrO/rhvdJzdb0Xh6QhI/3s+rI+KnV3/P8WOY3uP6zF4dGMC5rWe26Eku50vv7MTddDgMRMFQ3dYFW7eG16tjAI+qoYZHIbjJy+Hk7rfleqF06VMrqYru+ZRWc04VuNymY/ZKR2jhg53Sxs0Rtb7mz8wMzJ9asxRmHQOstEf3J907++WtuhHpJmqU82uS+kDt1zrqWYqNQvQV1nrWeGLRO/L+fzXGrXczEOGGu6dbxN7b/aX1bNWqsrVy7r0sWLBBxAjxFwAD107do1BUHQOC3sAH4wFox0biHQ4zfLst24Rol7b1gd2LVbc7vGsr/gSDx9KE//VZM6rOVVtYOda2wvu14WFV2l3a6s74U3uzMmvXblbiRdtUaBX1Eh+XjGx9aT03sj+3VlaKcKLvNoZWOai4r6fsPQlL7R7rTp0W5t7r1hE0WAM58zqEOzQgyElmzDKbRhSzHRXu6nOKjOeBVc4oNhzdub/P2cXVO0FEJWF453czqU7Dq4yt0XhqEqlYpOnjypSqXS2fUDsCYEHECPzM7Oaqo2NKVBRr04Wu4MZdySSC7PD6UnJspaSC6yCxeoe4pDKh+5R0vGayiWmQVXe25fRg9pSX+hSQWpfTbS1sPFF3TOOfl9Gm5EvTikasHRR8MpfcvONvbiyGq5tSf3JX3sGw25MPNeHCbuxVE9rq9vuUMVrxg/3m/Nhmi8fvx3axvPJdM/51JVyrqY7GobtNN617zeeyOqP9NpfXUY+kDa8BznXEsx0V7Vjml4B89o8Y0FsE3LTFsrat4nKb1g+knUU+d2szw118TIipGRSQw58szam0fGGIVhqIsXLujMmTOSqK0D9AoBB9BlrtbddmJiQgsLCy1jTLNedv0vXVqOpONzvt6e82W8qNtn9oVFhyRtGduv6ZFt8V33ZAO9wwuN/79Xof67G28ohpl2QexS1sVZqzAI5JqGK0UXgv12rWTl9M/hVR1SomhsRsNUot3hSZqSp6nEtLHZLVdxcFOU06XiDp0e3tuwzH45JGmNw5agrK87sEeFKKRez6Zi19Kw7JDo/N5sDaJ2dUdsbaaUBj1Mhbr9Sk/ul/4KJTfOyaVef6SFG119y2ro9OJWvEG0kqGhIb391luan5sfuGMH5AUBB9BlxhjNz83p+rVrXRkXv+IHbMbXbFbSTMXqPyfLmrK1i4Su3I2Rdm3d2jItbJa1N6TqG+pfaEaf02J9Wti0KveJAqjJnwW1uhtO7S6oXM/DjmQtjlBGh+2S/jKc0lC8hvX/d3zJtV1ZNE6Xw2qX4OaeMFkt1qm6ve+P7Ne8N9I3wYbUrkBftWZBvTs9F9pp0mabUa1uDvusN6y1DcWVpXqdiZ5pE1Jn9T6wrpnPmgNz1devn96vVhVumC6HGykaanFodSFX9DleWlrS0aOvdvUGFoA6Ag6gB86ePSvnXNcK/7X7kM7irlRc9V3VwqLHZnwdmw/UlS2tBSjDxqiwd7+WRuqFRTO7VorGSEu6SxX9mZuWSczzkRza2/ZuZa3mRmitbO28sLcNMXp3yZrctlBGfxxO6rNuqf7TjFYtXq6rFhydDKy8xPmWzXIbz5yrxe06PTwmL15m//TiiIRhGNdwcerjhnramPfm77us4T25iyli3x6jLrM2lG2eKaUP9k1qvNLBhGM9xUVTNe+rxJTX/dA7qF1B0ZZwo0dalm3a/Pw2rLW6fu2aLpw/3xf7HdhsCDiALok+5K5fu6aZmZnW2htZMokLtJQibp2SDDeMpEXf6hc3y4onTunC0BRZp11bt6m8a0zR/f2shqZENQ+iEOPbmtURlevLqy1zpekfwzCs9kRoukPpnKt207ZW1qaHHfXeHNHzd/FCqrZ9RtJ+t6zvhlMakZNXi82yuairDlWJtvRGKAVh0HiXMovlJo5NKE/vjh7UbGEk3tZehhypU8L69a79/dA4XLMeNQiSjay0IWSd1u7YDHqDqPE9qy4Me1BcckNcJqeIs642RCJ6m91YgdGGkL9H51a7z8B+CjfS1iF6548Kvt7utRk9HoahSqWSjh8/ruXScnYrCyAVAQfQJcYYlctlXahNC9v9qVrX0eV1A4rG6Bc3yjpbttnfkU1sz7CshvcfUqk4XF9shnU3jKpDcT6lir7lZmQS+9msEGxEvTZW6sUTj8tXNeyw1q547JyLLiTXvDFr1nzD/Y/sjB50SwoaHsu2HseSjMYDq2FnuxJyVJfuNOmN6M3RO2Rcz3tRt/B9v+v1AvKqeRhAbxparcvph0ZeVtLev9KKiUr9ux+yHixT3w/J/n9rZJrehRM9OWofFOtev7Vqd8z7MdyIJI/xWtYrLkxd+zo7O6tz587mZJpuYHAQcABdYq3VhfPn5ft+d3tvrEKnA4+ikU7O+XrqVjkxriD7ixfPOR3aM6bZnXu7Ni1stTeB0T9oUgdUrl1Mqu1dfeecwiBQGIZr7pbsJFnn4qEsK0QdK/Ya6TQnaafz9b3wpgoNXaKjRzut3jPnmvW0HAQqZLSk1qVWp409MbJf54f31IvJ9uDOaMsMBH5TYNY/7YUVJFay4T2iywFwj+5s91GbLnMt+9gYOWdlbeN7Ya9mSlmt+J232iWi889fK3DZ0XOyj3oFRYXW+zXckNT4ttQ0k8tqe3FYa7W0uKiTJ09qaWmpr44BMOgIOIAumZ2djYemxEM5ujzGu7loViclt6UUOP37+LJmujEbQWIRu4eHVD58j5a7OC1sKKOva0HfdNPVITFRRcoUNgwVBoFsm+Oe/Gn1gqr9XaTojrO1KwcZ7bqDd0JyjaykL4fT+m44o0D1/Z9lO7W6/6WzvtOQrQ/LyPqs8yT5xuj3W+9UyRuq11jJeLlJrd37w5aCdv09a0pNu1XMOp/si94bjfqukddBqbWHaudsc7iRF51a04ZzMYPPzMzrUK0gbXr6fu650QnN23Nr4qZOfXJqc6WZQI8RcABdEASBrl29qtnZ2YZGSLc/2F3tv+yev3oR9daMr/cXgvr2ZbmdtXECw3Lavu+QJke7MS1sfWjKboX6gcZVlK2WFm25SWlqdRF8hbY+lCK6S5l2DjSMAU78TvLfVP9Ew1dae3WkPW82ZTHigeIycvo/wys6KF+hsr2gjmpxeJIm5emmH2o461ZxohZHwTldKWzTx8P76iuk7oQcaT1/wiCMX9v9fge8Vcq6Zrj+za+D5LSwvS1w2LNFZ6r9LD9hy3tdf2uMCpxL/mwDz9qmd8BG90eyrlOWn4XtpIYbfpCfQCtxj8Ez9ebSWtbZOacgDPTmsTeqvTgAdAUBB9AF8/Pzmp6aVrFY7JsK4Z2q2t7cO2C6YvXMZEVzrjuF+uSqGcfOrds1v3ufvGTRycymha02JQuS/lozutMt1aaFTSn4mJj6NfXZNpA6OLUe02qvDttmzG9zUdKNN8jrPTWcQhntsiX913BCQ6oXA80oWYlDjiFJF0NPlcS0sS6rceaJIMNIOjGyX9OF0YZx7VmGHGnni+/7si7HY7zTXqYZ7cTmYVPV10J13/W6sRUd2m4OL8tS6nY4JxuG8T6vPp6PQC6LvL5hHyXflzt1/JsKjjYtvDPLaJJ23KPix7kJN1TrAZd4TUbru9bXp3NORkYvvfhi9VpgAF7bQL8j4ACy5KofbmfPnpUf+HGjs5cfcGsZS7oWTtXaG69P+/pwKbjt73dmodX1H/Y8FffuV2loJFHyI/sO+veorD910/JlWt5MrbUt44wjnbqwa93CeuO7oVdH3LOjdZhLdFG98XOhujbLKujRcEoPum7crapvT1nSzcDKdLGhbyTdLGzRx8P7JWUZ5rQ3cN29M1//xgZWsvdGrxseyRkzcn8cUzjnFNqwIYyLeqLlz8ZXuqUnUaK4aKbHP5nUdPicX6mgaJ7CjUhDsdE1HvNkWOUHvi5fuqTz5893dP0ApCPgADLiXHXoxLWrV7W0uNgwA0Y/fbg3j0Vf079taCxIcxWr30yWtegSP8yYcU47t25Veefe+vCMzJZWnaHEU3VIzLfcnA6r3PgbtQJqaUVEVxw6sIGQofE5U2p1RD07ErONpK/COpefWKwxRrudrz+10xqtDtrJtOGf3PSboRSE3ZlRJdquUEYfjoxppjDaUHA0i61Nq7sRBF0KE7stowKOSdX6NTnu+dKn0u/g25aZUvrpc3B1XJvvO/TsWdWsSkxZXl2QS/+agTyHG5JaLiYabhDd5hxI61158uOPtbCw0NFVBNCKgAPI0PJyWR+fPNn2Tn6vrHSBsaZGbu1XraRRIz11o6xTy13aztp6jkoa3XdYS0PDkrINN6LtDSXdp7K+oxkV5OI7OytN/Xq7i7oN95+I7oRGQUPaMuKgo32Yst6ipPEYb+dk5PTVcEr392Da2BuB1RZZRUcg63vyRtKtwhYd23KnillWuGnuXW5dS7iRq4bDbbnMD561TUVZ+2D/xauQ1RCrjKXewa/1ZhtMGzlGiZsLyTow3ajkk8G53nzsrXPyB2xIRkMvjjVuVhAEGr8xrnNnz3V2pQC0IOAAMnTh/DltGR3t+4u75PjS6O9rMWSk92cDPXazLNeNNkLUE8ZaHRwb0/SuxLSwRhldvNXrLjjj6R80qX0qyyq6O5kyi8UKhUTb2XBhueg5Vlhu1KsjrNXqaHe4k2HHas6JZCG77c7XP4QT2qp6XYrsrnNN/P8bVir51WljI5lcYCf2bdFZnRjep7NDe1TIYNrY6hCjxp5Wub4rejtRcZUOb1Nzb7V+2X9pi3ZSRjWEspM6U4q1ClOCpHyer3H6FH+/3pd5axgQRbKm1u8tY86tXJ9jTU+VXnMjDIKG583rcW9e741cK1UqZZ05dUpTk1N9ddMLGDQEHEBGZqanNTk5pVKplIs7GGsenpL4/Xnf6X9cX1Yl+QtZXcjE3WqlvaMjWj50t8pNI2WzYiT5MvpTN6eH3awCV53qMK3XRr9cyDWHLFH4EanW67DVGV5ucw6spWdHKKMvhrP6SztdK8AaP8k6tmL1AhmdCaSizX7oRnKGglDSa1vu0oI30tAM2rCU/RWGYUOjsV/OtX7W0qCMXq990ejq/LC1bkp/X6gWE23oJWMG4Vw1LdnARrkoPZdkjMtuZOftnngd51p6zQ070AFscy2OtbxGrbWamJjQ6dOn5Hk0wYCs8OoCMlCpVDQ+Pq7A93u9Km11rtCldHSqohOLQf36qQsXM6NG2rL/sKaGt8jLuhFQe34r6ZAC/UA35EkxxAAAACAASURBVLlQQcZFRDuteb2a17KxMGn751kp6Ghs3Fv9Y3Bd97iKovlNsjpS0aYVJE05o+t+qCElao5kXIujIKdrxW06MXKgo8tsfgZrrcJgs4QbTlmcMdEQLZNBkUXU6xA1z+yTfdnnnGroWZTxsjrUa6OdaJjmoIYbkY1sk3VW7733nqampjpU4BtAMwIOIAOzs7O6fv26QttaaLJfraV6QHKK0Ztlq/+crGhZ2dc7SKyBdmzfrpnd+2WSM0hkvFQjo7/TlA4E8yoHaywi2kfiYSxtVIew2DjsWOn3Vgo6rIz2umX9g52oD93IUm1kQ1HS5dCoEoTxh1w3zk0n6YORfZosbG34WecW4OT7fpaVPvpLNvmGXBffM9YjOclFP7+ftB2aELbWXejn7ViLLLbCNhQXzc9+SusVVQ036j8blOPerKHP6Bq2MXrN2DDUiy+8kJtrBiBvCDiADrPW6vKlSzLG9H3tjYYP1uYihm1aFslww5P0+nRFp5bD+m9n+WFdW/ZWr6DC3v0KCsX4oWT9h84usr4nPuOW9Q3/lhZt47SwnbhISU4h3LVQLDF8pd02uIZaHemFH5vrdMQ1QCQty9OjwaS+7BYbfj+Djan+V9uEQEbjgVMhcRe5utwOL7tpv814I/p4ZJ9cVCpwnTOqpJ0Hvu8P7p3R5m2JW/nSRo5Z83mZ/Lvr9FiDDUibCcllW7hmQ9pNBxqGrYVvB+k87US4mDZzmWl6/8pU86wqjSt323Mu7b0pCjcaFzM4x11K6wEZvU7X9pkd1VAav3FDZ86cyc1NMCBPCDiADok+pK5cvqypqamWbpp50LC+bRqy0UOepPHlUM9MVeoTpXYh3DCStm/fodKOPY3Twmax7MQyR+T0HTul3a5Sv9AZsIt3qf1FabVWh1PoVjcLS7TvPEmjCvXn4S1tl+1KLY7o/JywRkvNIWNGi422y0r6aGRMN4vb5EXNoXWGHElBEChM9jwYsPOuPaNO3dWOZhGKn7lP92Fj1tF/69i2mGhKuDF4Olz41kafqT2+Vmg+Viu8vzezKbPkDOaxV8Pb0Ua2MRoi997x41pYWMjdtSLQ7wg4gA4xxmhxcVFnz55VoVCoj/Huc9FdiHZ379spGOnn42Wd69a0sDVbjeTtO6TlwlD9h5nsZxfXyg9k9FlX0lftdLXGfe3O74aXmrJ/++GOZ2ph0oRoFpYo6FjNpdkX7Zy+ZBcUqF63IpuQw8RDVcqSxn2nIVuvxZHZcqN9JWnGjOjNLUcaz4813uFLsuEgT7OZ1OHGY/N+zOF4935a33Z3qluKiYp6G201D+lJvnt2e5c11+NYx+dOFG4MbM+yNG2G4Kz1tWqt1dTkpE6fOsWMKkCHEXAAHXTu3DkVCoXcNUaMTHyhdduZNFSdFvaDGV+/mqzIduNaJlona3Vg75jmduxu7L2RyTLr34bG6L+EN7XXxX1VOrLc/mm6tNdysWpMvPFx0GFX7tUhVaeN/Tt7UyNd2Ork7CYTzmgpCFSUGkOODBXkdHJ4r04P71PRbfzCNQgGeGhKUupmde5ouRw1IvJyiMMwaC0mmniPGFzr61mUPJsbZ0/pgx3W/P6dUl8labMUFE1qDu42EuRZa+X7vs6dPav5ubm+CjOBvCPgADrAOaebN29qcX6+ZZx836tdpxnXfnxp8qsnadF3+mG3p4WVtG9kWKVDd6uSvKzIsO6GkVSRpz+3s3rITsczgeSm9dFBca8OpV/URWFHu+lmQ3l6IJzT39gp+fLiXhxZ1eOIVjGUdCaQhmyQfRHa2nlRHc4jvbz1Li0U1jZtbFrdDbuJGhCN8ZSiLjfaaNDRHMD1435MrlM/rV+7YqJpjdt+Wu8s1DcveU6u7txsyQ9sH1wntKt9k7BZa26001KLY4O9OG7cuKGTJ0/KGENPDqBDCDiADXK1mQ3Gx8dVWl5uqoieIw29VV3r36PvJb00VdHHpbDr08KOHjiiyaFRFRK1MbJkJd2piv6P4KqSF7HZDIjJl+bGTPXv1e8bp5uNjpWTk9M/Btf1KbdcD4uyWr/a14KkORld80MNNdSYyWaP15frdKswqvdHDsqa+tCYlZbafHEcBkHueoN1TPL0WEe+0dIgp+GwLqnFRON6G3l719q4jdXKaKxx1Tc3QlaYOrZtzY1NGm5EGj77NvBZ5pxToVDQxx99pOnpaXkezTKgE3glARtkjNH09LQmb92qpe99ctGyQe0uvq6VQr0wnZgWtgsXNp6kndt3an7XvoZpYbOqvREpSvqb8JYOuVL2vTeaesrkRUvQkXgs2avDOqdQRnvcsr5nb2lUWYcN9VocBUlXQqNKGGT/oVfrPOIkec7po+ExTXpbb3sJnHqHdLMU7ksV9aGKbKwreLImUt72Y6/eE9o2bpvrbWyCnhvpol6Ot9/2tHowfWuFYxnX3Gj49c147ButpxdH9HthGGp5eVlHX3118wbaQIcRcAAdcOnixWodgqjx3c8XL+tUHU5Q7b3xYSnsToxT249bCgWZsYNaLg41d2DPYJn1Lw+4JX0rnFSZknmrVA+BmvdXNINFyUmPBrf0R3Y+83Moea5UZHQtcDK1egGZFjlNfDdVGNGHo/sVypMzZlUzqrTr/r+pbCDfSBtOEX3N037s5aq2CzdaionmaH92Qqc+CZJTF/fFPkwpONp8Blgb8r7URvN5sZqQIx7SWPtsvH7tmk6ePJm7mxxAPyLgADbo8uXLmpubi5N3t85q5P2g3V0Ip+omXVsO9dyULz+u8JnhdiZqfmzfsVOL23fV1zOrZSdqb2yR03ftlHbKry+vEzOnRItK+VnfXOxuRLSPmmZiiR+WNGp9/XkwoZ21fjFZ1uIwRnK1XhW3rLQY1BtomYUcpj5TjJXRR8P7ND60XV40m0si5Egb3x4EQS6mM81E201d213RiE3UhMnDfmxcx3pE1602T7uZUsK0mVJysD+zUJ95TA1fVys5jXZfNWZroUba+3G15gbHP6n1s239NXTCMJTv+3r37be1uLjYkfUDNjMCDmADlpaWdOb0aRUKhfhng/Shn7zIGZL01I2yrvj2/2fvzZ5kWe77vk9WdU/Pes7MnDlztnvuggvgLiAAAhfESpDERlHUQomWFbItKcIv/jv45Cc/SxEOKxzhcDgUsh8k2WGS5gKKIgQKFMGLuwD37Gf2fZ/prSoz/VBLZ1VX93TPdPV09+Tnxrkz013dmZWZVZX5zd+Sv/WGUe54aL3hOQUgX3Ej+n4NfE6f8cvqMGmKm0N514Gsa+ItdcKvyOPkRn1eIgdBn9YRbPkaVzUskPIUOYLS4UQU+avxex3lXZBSJsyUR+l+chUMk7iRpp9V1mQLG1prpPTRWZlSLBciCi46SIJ2K2ELQIaWG1mfsTS4TLDR6LPVapWPP/qoKfWuxWLpDitwWCwXRErJ40ePcBynyWxzmEn7qWuCtLB/tV/nTw/rxqZi/hMzVyluzS9wMnUTI59eDiUlrVVKwN+RO8xoL8cyjdJHZOy0Q4QWMNEAKmnJ9/1t5pApb4T83EYEsKsFR76keMlwgd3gonnqTvOTwi0KUbkdZiawhCOjg85qZ70x7NdY7rfbjObRWqHSCy1hxQ0tssZSh+PLCC46KGOyVT0iVznp27gQrUinRL7MtaGUol6v8/zZM/b39npQO4vl+mIFDovlAkRpYSuVykiJGxFCiET2i6O64n/ZqHLWj9OM2lJrFibGKS8+wMu9zMb01EPwHX3I59URKhVPIbfiR2z8tCKdGONNdcr3/T083Pi1vFUHBSz5UJCNtLH5FGkGq1Vse4p/VXyFQ1HCyShRa42fSjF9fReSrc67u54a2oxWfaZlMFEpEzJgkCb6uo7J9rS7hZvtO2jBRTOtdtD40sfzPXzpByJHC4uCyPLjujzDMknofxe34oDgujs+PuLRo0cJgdZisXSHFTgslgvgeR5ra2ucnp4mY2+MCKb5vqPhT/bqPK+q/qSFDTf5SwImFh9wWByPb1R5Tq0FIIHb+PxjL0gLq3scd6NVudcJM56JRvN3vQ0eUiWSG/K6iqIh6wAnCNY8xRg5ultFBkdAzZdsSdgUJf6kcBsHgUYkriPf9xOLn+srbhDeA0Tj94gOslVEpDNaDWt7BvXO79mSGW9DBfE20mmgLQGNJ0JkkXZO8NrMNKxX557SSpQQQqBUEAsiEjSizY7IusyXMhYO0/W/rkJHUyyOC7qqRMf6vuSDn33AycmJve4slgtiBQ6LpUu01uzv7VE+O8NxnKFNPdgKMwCaAFYqkj/cr+ML8k8LG0Y4ExrmZm6yf3MhES8hL/eUKLBaAfiv5A63qKEQiD5M1q7fdDBEaxSCaer8E28jmTY2JzcVEY7hIrCkHKq+JIqeY477S2MEEXW0YtvX1BCMa8kPnXleOlOBFYeRJtDG3UiRGYW3zeEt03AOTpyDy9DrxWOr71NKolVguzbM8Uv6Q+Rq0uaIVEDRRpvmXrnMurQaQ0pJavUaXmiRmtXnAoFWChladaSDjqbLuU6CRzJV+sWEwehYpRSOI/jhD3+I742ehbDF0g+swGGxdEHkk7q8vIzneXGmg1F8AGlA6SAt7EpNnXt870qFyYKLvnWHquPkb+EQdp0CPqfLfFPtUSMq107scyO0jKnh8GW5z5fVcWNNm9vl1LASkcCakTa2Z6TSwFZ9ybZqpFzcFkX+zF2gjoMOFwxm3A27mAzpohnSw0UpFS4qh78tzeGQ59iIgoma2XvyLnNU6LSJrmKeoDk/gKjnebGwEX8u6/iEIYqO08ZKKVFt7qOx2HGN5HwzBexF+t33fdZX13j06JG9Bi2WC2AFDoulC4QQrKysUKlUEoHCRvEB5IjAeuOPDj2q0Yv9CCwKTM3c5Gz6ZtIQOOe0sDdRfE/tMaN9w2JkFJZIg4dI/V7Uku/5O8wZaWPzyjJjuqrsKcGZLw1D88uXG31aEQRSXfc1tfg9gQJ+7M6GVhyqaWFhyeKcqzCV0rphvaGHMmN33kJGerw1MqWYwQRGw/Ilf1pfu4n21I3sKf2inVWalJK6Vw9d49qLvNnWHI0ylFJIX8bprVvez/TViDxXwWUdW4N5JXz44QccHh72qFYWy/XBChwWSxeUy2WePH6cCLg1SpPA6JwUMOEI/u1WlfV6nyYkumG9UVi4S93NOS1siCA431/Wp3xZHhIsQ8k99sZ1x+xXDbwjj/lyOm1szq4qHrDhawpahtJK3PsXQ+tYKCkCp3WfLS1wiLz1g/d3KfD7hbu4Xh1fqfjdUbqX9JS4WSJnsgatrDdyE0WHmMbiMopvIlA6cDmw8TYuhhCtNdFkLAYVv9aP9m3tiqLwvDq+9JvqGNVNGNmugjdoOsYUwOLXdCCcmEFJg/ea6zaSQkdTs10sFkeElJLjoyMeffJJDypnsVwvrMBhsXSI9H0eP3rE5OTkSOco18CYgP+4W+ePDv3GAzvX2BtBW7pKMXdrkaOJmTj+RV6trHUj9sZNJL8ld5gkdBXoo7gRTfbMzDXXBVNIGkPym/42d7QX90t+zdFwQNrTgiPPZyw2oL745DuqtwAc5fNYNixDdBg4UwMOmh87N/iRezsMdBp88nr1frcIoyENMqwRYLRi20S33sssDJOfC4VsKVGpINlW3OgOrSNXhPTryb5qJAfLb3HfLu6Fil1RvEQw44YIkQqUmfi99ZhIuGIYV10UlDQIWKoy7+WjFqtDRPeo6O8eXEu+7/Hi+QtWV1eb3McsFktrrMBhsXSA1prdvT1Ojk+o1Wrnf2AIiSYYDnBQV/yrjWr+6VmDguOfCxPjlG/dpZ73bqIRRNVD8G11xGfUaSItrKW/KASvq1O+I/fwMGKv5DzxVcCyL3Cld7neN+pZ0IoNT3GKk5kBSAA+8H+OP2TfmWikjR2BSX5uiNRPmndFZRx7Y9S43P0wc8Erg0wpxhdbceMCxMl+2gbATVrP9Lqd2wcPVXh+EGMjyxWlZV0yXm4nQrSyTAncnyRStk41ax477EJHYN2S+vsSKKXZ39/j2dOniUDUFoulPVbgsFjOQWtNrVple2srNuscNdJ7x7+/U+dZv9LChkw6gtLdhxwXSziGAJEH0S67BF7D4x/ITYSRMvSqpvnXcYER+3KHP3/gb/OWruCH+4Z5TXfNWBzHCJY9RclcAHQ50TbHTlVK1mWQlUfHZTWsRjRQQPPCneCPSw/QxqN4uKf3V4cG9AjtcCZdBxqvd7sAbD4+DCaaWuxevztP/9BxW/dP2JBK4vn1wGIj47o491lzwRtRWuhIx+oIsq+0j9Ux9EKHacVxSTeVqC0++cUv2Nzc7EXtLJZrgRU4LJYO2NnZYXd3t30ArWFGN9xHl8qSPzrwwOnfYktozdyNm+zdvN2X1KxA6Cog+K/lJgu6GqSF7UvJlmZEHAvlhq7x33prhstIjmWGHe4CL5RD2ffjh2JXZRtjNkoLW+9gNI1pxZ+N3eZl4QbCuqh0SHMcDsBm/8ggK5io7zfvotu2ypcouGgYuqI339nKYkMHFhuBiGAek4qXcd73J1fpXZMoJ2XVEFl1+L6PVK2tOoZV6EjPJC57fUXt8J/+4keX+h6L5TphBQ6L5RxqtRobGxvBAmyEdggjogmEBOpK84e7ddY94zz7EHtjplikvnCPujGpyiu4qDlhek+f8FW1Tz1yibBm2leCCONTCKCOwxfkAd+Uh0Sz4jwnuVE8PVfAsg9CB2bAotNydVKYqPiSnfDy0SKa3CZsloN4K+Gfx8Llh6U71EQxOEpboaNBlp08TdkYtNYJ642RuYZbWHGcR3amFBXG2zDusfZ+1zPMNk+MTZUcp70oI+t7tNaBK4rXbLERBfrspq/N+9alxkh4Xxckg5JGKBladWSkKI4Yulgd5wQb7fYOHwiTPnt7u/zsZz8bnnawWK4QK3BYLC2IHiAry8ucnJzgj2BgUTMgnyvg6ZnkL449YkecfgQWBSZuzlGZmE7GK8g59sZNJD+QuxTPSZGXN1mT4uuMQyC2/UBuc1vXG2/k0j7BTFQjcDQcasGxr3DMKWi7cg0xQgNFJdkwrDfajWDT/eb9wixPCjcTqWrtaGhDqmFHUXiG9Gl2dj/MDjCpgvgHKXHD0muyY1DA5cSk82Js+L5P3au3EDYu3s95jJBW9dFKJzKwtEtdOwwL/LZWHBeoehQM9sMPPuTw4OCStbNYRh8rcFgsbTg6PGR1dRUhBEqpkZ4UFrTg327X2PLDp2+fznW6WETPL+I5buPFnMSNKPaGAt5TJ7yrToLiwjJHt3cHH1PU0sDr8oyvy8N4Myxa+OdDMDYksO5rkBIVv9O6XFPcGENz6El2dIfjyBhvh6LIH5XuIYXxSB7wCXxfaNGQ2sikkl7sjOo9OnFaLXbwM+NtqFQwUUuPSIcNznhs6csJ2J0FD/WQGf3bk+ugy0CjXX11K6EjjNUhfWnE6sj+joEXOlpYcVx0puH7Pmcnx/zsZx/g+/5gn7vFcsVYgcNiaYEQgidPnuA4DlLKRDq0UcC03ig58JcHdX507Pdn5zhqQyW5Ob/AycR0/FY/licTaL6r9pigMTG86mXRqC7MukEYP8dQfFvuMavzD+xrtvyRFhz5kjHDjeS8a0IAjpQ8l+ljO+tTgeb9wk1+WlykZAS7HY07zWVJtmHTEn5E7scdETZFp2cspWoKvGrdUnpPqyCwlxmbrT5pChutLJd61r85X1pNAUlT9Y5jdcghDUraSpi5YCpyrTVSKTbW19jd3b1k5SyW0cYKHBZLBlpr1tfXqdXreJ6XeD362c2/Qd6NdYDDmuJfrlX6mxYWzd2JccoL9/ATm2H5xN2IrDfqCL6vDnhHnTTmH3bCPziEfaGA19Upvy134xgpmrwWtCJO76eBZSkoyloyM2m6XOPvolYse5JTRMPNqpMhZRwkgX8z8SoHznjDRWaA7xt9I2HZHedkCP4f7vbGh47gdZzMSNEcw6BVPAYpfSN7hxU2eo3IWL023yIia8jzx+Z5c4YoDkOWsBH1ba/7WItm95o8xlD6+xv/RRVJuq+cJ3QMiuCRbitHXHzJFbmoKKXY29vj0SefWCsOi6UNVuCwWDKoVCqsr61RrVTQ4c7BZbzio4XZoAgg5kNRafh/duqs1HVf08JOCUHp3qscF0o4jXlgrkjgTV3nH8hNY5/86q03LA1MUUEB3/O3Emlj88YBThG8qGnGwgViGNeygREjwwEqUrKhHIrhcWZa2POIjiqgWRNj/MH4KyjhNKXPvd6IxI+IUY290Yr0bTkzqGUsbtiRkyftndZIuKecdydo11NKN2JsmK4oeQoOcRlX9WRMBek0aXZfad16jTlWPtXsiB41oWlB7DgOz54+ZXtry4qWFksLrMBhsRhEO4LbW1scHuxTr1XxfQ8pfaTnIf3gn5KBX7OO/l02OjpcieAhgOdlyR8feIgoLWwfHpgumtnZefZu3AKdd8aWRluOAf9EbXBL1xq7wXaCMHjEVhyCae3x33hrTKHiuBh5Xh+aIPDtsnY4833crJ3axB+KdV/jE87LuxA3gDgWRxDHQ/EXxQWehwFHg+9vI4pm/iP5b0RRxi7tdbROyLbcUEjZ7NJ13dqmn7RqWVN8OzeGRFZg2DDdq+dlx9iA/vWrmQGlr2S4sESiS+y+EgUlbSt2Xm6D6jKkRSLTiuOi80alFPV6nR/96Ef4fv4unBbLMGIFDovFQAiB53msra0md8UiK47wn1ISJSUy+ud7+F49/OchfT8WQZRSXS/IzrX4uARm7I2a0vzRXp0VT6H7MYEJy54pjlFfuEfNePznVrqOrAEEX9fH/Io8iLNcDAJxf9od1yYE4CH4gtzn1+UBOuc9xUibCLxVBCs+CHNxkbEYKXs+e6oRHPWyHIgC/2HsDhWn0Pa4tI7R+Jf6r0t3uoH8l8z/EZx/uKAREB9zbRECpYJnUfLl6yf89I+saz7LdSjbHKHVc9wUNrIW7VfWp1d4eTWdc4Yll5QyEINki4C6+gpjdaSHwCW7L9qIOzw44Kc//Wn8msViadB+BmWxXENePH/O2elpC99ujdbC2PRP/h3EeWg2i0xPU4RwEE7jqRflnO903nKRh5kQIiFuCODjY58fHXkNf/+808IKQVHDxNwtjsancI265Jk5BWABn78ld9CR7UZk4tv7UjuqVxN2IRIT9Y8GHK1RCH7gb/EzZ5oNMRYIELmMVxFev+CgOdSCfV8xOxbUwew1BZSU5IXU+FHsjYvWJ7LiCMfFTwuzfLEwx3u17XC0msv7dBnxFZQ+ldFEgFI6cS+LfhkakSP2uOm+k8z7eIT0vabXrLCRL8mrMqLZZQh0Zp81fVLrOJhmU1lX3Jc62iUYhMsrNrxsWHIIIYI66kDsUErhOMEcKyvuRb+vFUGy/x0cFCp+XSC6vl9HQs5P/8t/4dNvvsnc/Hwvq2yxDD1W4LBYDE6Oj1kL08Jm016EEE3HZPt/aq3Q6Y0GI21kJHhEW8oiEaTsYg/j9ENdKc3v79XZ9rVpW58PhpXCRKmEN7uANAWGnFxToqWfAL6ijnlDlRPLwauaNg7CPHGY0MBdVeEb8pB/X7iN0oHYkJvIIXTs7bEp4YaUaLeQiIsRpIX12dONAKiXrUn0PcehFcc7tV1KSpLXiEnf59ouuHO8WGKz8w6K0miUlI0G7+RDg0Z0O7xkv0bWhNnuKo2GsVpHf+kmNozSKrZASHPVwobJINXFpLlewU1BKQUKlNA4jkA4ouX9zXR1y7OeietU0BA3LvF9juPwwQcf8K1f/VUKhcLA9pPF0m+swGGxEO6e+D4ffvghoLvwa+xs8tj6oWMIIIa1QeZuj+Grn/CJjcWPpK9qKzQw5sAf79b5zyd+XxcGjlLMzC9wMD7VeDEvcSNeRATWG99Ve5SQfYsz0hHWrPR8RGBV4WrNt+UeP3Vv8lKUjGuhF9JCU6EgAoXjRAsOfMVtV+OF01EB4Pu8kPmU7qD5uHCDvyrd5TvlZepG0NFekr7PtF1wD8hQVTKMM9GuPiIl1rRovPiYTAOY7ndV+2kV1k7cSB3Zs9tM1/FlRhgd3h+aXtfNr7eOlxKIGwkHrHDhOnAL1QGrThphWNglrFW1QkpACRwhAsuOFm3bD6EjWd+Ga103QkdstaI1nuexvLzMpzY2ePjwYV7VtViGDitwWCwED7S1tTXqtVoqLexl18JdCiChyNEwv4xrkhRAzpm0Bikv46SCCKdhpukIwW5V8b9u1qh2dS4XxLDeeDA5wdn83TggY35lBj8EUMPhe/KAN9VpYt454PM1C8YGfdhx91WZ78td/kXxVca1bLyXQ2dGZWtgRcJt38MpjAWuKVqy5CnOcHCj43tRByHi68UD/v3EQ75Q32NWlkOD5t4UNBhGD9ECpItPKI30/YZLXZuv7qe7SmyBYmoiqV+a2lqk3jGOb9YRAsFNhM+TYGHcItZAjmjzYuyAgVuk94HzXVECaw3ZxsrjOrZbL2g25hCJ+YcKY1eIUOhwnOwwhP0QmCKB4yJlmscppTg9OeHxo0csLi5SKpXs+LFYsAKHxQJA+eyMtZUVqtVK/ACEfmz0pwQQkdTxRdNsWYeiS/sdiCgye/z4DCfDmiBDxP+16bFR1/lnTjEme1MCxIPXOSmO4SqFjjSdPBYi4Qa8D7yua/wdtQVEatWVJb9rYkA2xQcaAUEA3HA8f8ff4U/cBZ6KcYqoIEZFjpYwAqggWKpL3nQlNeFy6knWtEMBc1Hbm1EVCSsusCFK/N+Tr/HPTj7pqSgxGOP/nHusTt8ZNL7nGbusZrc3BIC+EW3UCx3H9Uls6qd+6dUI1YDn1RML6YT7YjiAGm6NhmAimlsoz8XQoAY+7MU5NywGTIVVo1Xrc/Z9vynVaz+tBnrBsNS3YeEqwi7SoEOrCa3jAPGR0JE+n6yxe9lzTrupOI7Tk1TXgzzapgAAIABJREFUSikeP37EZz/7WV597bVLf5/FMgpYgcNy7VFKsbG5Sa1WAwb9wd2dRUgUeCvaLXCAx2XFnx750Me0sI7WzM7fYndmHkdJQCD6MPcdA/47tcGM9oKMLTnt9lv6gwZK2ue/91b4H8c+TV04fUkFVgQ2tMuiJ5lwNSuyUZ+AHg4qIRDh4r6E5MfFW3y1OM9b3h7qGg3e9O3B99LuGMI4qs/iRqoWphVGR7WIFlzmZ885PFJzlJRJIZvLCgnhM6VJ/Gi2JDGFlGRSi1Yn3q+Ngu7opr06mQ8EYlt2ho6GK4rMFLkGe76RzdDVuWkghz91OiipE2fQykKHJr29Ovte3rMEgr/88V9y5+5dxsbGhq+PLJYeYwUOy7VG62BX8OT4KOHPPJA+sB1wXp018ElZcSrD3YT+VIv58RKLd+4yLRSO2592VcAt7fGudxLGThiQ/sxhZ+h6EPSgD3xWHvP22Q7P9RiFPjkjaODA0dQnpzhmLLQsyVcvE8CZcHhUvMlnvAOui81Pc5aQIC13q2Ou5PLpseVOW4xzVTra8RXxwhqa7yHB62HAXGgzdEJ3xyaLmYuRrEc7gcMQVmLhWbQUiZoC4vap0zsSQ4Kdgjh1MTQWzukYGxHDds+PUrUOqlVORxjiRbpPgqCkKj7PlrE6jOvkIn2YjA+icYRjXNMXI0obu7u7w/b2Ng8fPhzaOazF0iuswGG55jRiXpgPg1F5MJg7a0HqS5hwgp/xpDln95QxRzB96zaTUzNMFospz9N8EBoUgiktUHUn3hEP38259PYM8fTw6tDJ3qtLzebqEseyj72pNc7UNIevfQbfCS3+4xrlh0Awrn0EGpV7aVdPU+BTmZ1hIsmQtUp6R7lDIvP66K/Eey0XNFkxPbqn0/gb6RSpjc9ejLRg0vpxlbZEaX1sK0uUyxFE7IncH1oFD02WP/ikY0WMCuZ5pUWHSDCIRI52sTqiz3dZeOal1K0oYR6vlMJ1HLx6/WJ1slhGDCtwWK45wUPA9/2mHcJRI3rcfWXa5c6Yzwuv7eE9KDBwkp+amORkdpFdqbhfhBoif7cCEYg4x2KM90uLfLeyhOyhaellSMxthnk37ArQQMmBP9hTLNcaMWTy7lcNuEoxsXiX9cIYQqlcM0pEo0IBs9rjvfoe4grdMK6KKLsVunkhkj4uen+U0UonMii0WzT3ui06Ge/5auaBgNCDkAVAVvuYYkfKBSeKZRJ7IjU2DgJLyCD2huf7sRgnotgPRllDOT5bLMZHgaxNLTOrSRQfQ0qJ67qx4NEkwmqdsA45t9yUaBRZcXSTQcesQyTIlMtlCsVi/NpQjjeLpUdYgcNyrRFCUCqVuHvvPsfHR6iqQg25m0o7FDBfEvyTWwX+p3UPXxhzl16dq7HTVwSmbt9lr1hiVSkWvTpOcSwZMDGPNg4tNgoo/qp0l894B9zzT8JQgDqvGXhnVWvxu6U9GnAFvCxr/o8DBSJcUOXpahUtHrXm3vw8+9NzaBVEwrh8hqVWRUYTbFDC4XcrKyzIM/wRlzeyhAvp+U2vG+7zycXGiDaOef5pU3ZT5MgOOtpf8roezDTolytDx9dt83i7TDpdgZTmWB1Oa40shtol5QKIqO9S3ZYISiochJM6QDe7vbTr+5ZCCe3nnunrPBI3tNZ87pd+iVdfffXcsi2W60A/4rNZLAON1prbt28zOztHoVgc7t2WcxCA1PCtuQJfn3ZyMiAIv1QrFm/OcTozj9KaOoKnvsY1osjn7qpCYDHy4/H71ESxb+V2zDWbPF4Ec8Ffk/DvDhQnfW62G6US8s6rlHVDZMg79oaP4IveId+sbCBHXNzIQvp+ywwDsZOGef2M6qUUuRga7ilNoo8Y3alcPs9hEbulZv0zy+7kOB3G2mgwGuJGmhE7nZY0WUMZryml8KUfWP2GwkIreh3MNotIeJmamuK99967doKUxdKK0X0qWiwdIoRgbGyMh6++hpfaMRzFZ4UGXAf+2Z0ii4X8Fk4zxSLOvYecOS4QpL3c0Q4Hno+b92okdEcJrDg0Lws3eDY2mzjXQejaQajDIGNefwL4uKz467Kxu5XnjDssvChg6tYi+6UJHBpiS16WRxBYWt3UPn+/vERB+b23sho0UjdaJRXST7oMturzUVtENhHrxbql4CNEsh3sIqcVomfjxWxjM/XrKCNaxKIYVWIhK2PMRLFWfN/Hl37LQKGRddV5aWfNmVin1hu+HwgtjuPwzrvvcntxseNzs1hGnet1t7JY2rCwsMC9+/eZnJw0rDiuuFI9JD4nwNfw+qTDb950jSVbDybF4QPY0Zpbt++xPT6Nq3X86C4IwYoUSCkbj/O8JuOGyOEheL94mzNRTKRctAw6jQV/TcGfHmn2VOTznPPFGX7/1MQk1dnbEI7j3MQNzHgigm/Ud/mUd4gUUcwaMbKKWMJtK4y7IcLrN71bTovXos+OEgmx3YgN0GRBoPsRieb60Gp8ZWHu4qfdpUZhPLZahF9H0tY7cWYZpZF+IHYkYrCkaCV0RDihJVbWcemsUVJKPM/DdV0WFhd5+513cF139AVfi6VDrMBhsRi88+67eKEiPpKEDz8HqGv49bkC75QcBBp07x6Ms5OTnM7dDlLvEoaHC/2eKwj2fRWLDHkLDtFZrRemeDo2hxMtFXqUFvHCjMDkN0+0MT4KwAenip9V+hRvISy75DhMzt2mWhyL65JbzBjjfB/ICt+sbhK5gjfeab0bOIw0nYvWSM+P26PdWWb5q4/S5L4pVa4Mdohbt4rOED0svSY9ZpXKWIjq9PH9ql1/GKV70EXJin0TxcPwfR/py5Zt1MqqIyvVc9ZxUmo8z8d1XQquy5tvvsnt27dH6v5nsVyWEV3FWSwXY2xsjLffeXdklXCR+v1uSfC9WZfJaGv6MpOW8LNjjsPYrUVOC2O4RllmcMAtSRCUzXgtl1mg0YceDn9dukPZGYtdDa5c5LBkktitAk6l5t8fKk56lEHhnMKDn0oxMz1DdXaeyAA97zuCAFw036xv88A/IYhc13qSPMxkBhUN02tGdH4Pbogdw94uWQSL5vYm7i0/Z8kNpTQ6zH7RnuHthywrIktAO0syqUL3FV+eG6vD/JxzTjydwMLNAzSO43Dj5k2+8PnP22vdYklhBQ6LJcWdO3eYnZ0fSYEDkpNiR8A3b7q8Ne70RGAQGmampqjfmI8tN8JCMQ1cTxHseooxrZIiR05EC8ctZ4KflO43rDiukKsuf9DI2q3SBDEw/mBf8YsqhsKQ07VpdMq4EIzfvke5UGq8mOM9QQASeFVV+Xpti4Lp0601ImPAjNKkVvoyEXfjvPtvwloht1oNBoE1S/ZZppupOeDoqLfO1aHDa7SdO8GoMqrzo4uQGZw2/F1rFQcClbK1VUcnKKWo1+voUNzQWvNrv/EbTM/M2P6wWFJYgcNiSVEoFHjl1YdMTEyOrquKwa0xwT+8VQgCHcDFhI4404Vm6tYdysXGojDrsSuAFe1Q9bzYyuPCZZ+HKeig+c+lRVYKNykYVhxXQdq09brSbte9IOBlWfFvDjSyL/O3hvXGK7cWOJqejdNG51ekjmNv+MLlb5dXWfDLpI1VdAtrjquX6i6PUgrp+xf/Am3EGBLhCyNE+yCW6V3ktKtKbtW6dqSz9mjDPSXLvSDx95COyaysMpZs2rWP6b7it8kQBWRacUTiRvBl4Lou737uc7zxxhvXev5gsbRi9FdvFssFmJ+fj1XxUXp4ZC0mfQ3v3XD59RmnsS7o5px1Qyi4NzvH0Y35eFHYFJBRiFjx8IHnPhRkY2GTZ0tHi0iJ4M8nXqEiCn0pN1mJbDPz6zRpNC01Wl1b0UTwpFLnX+9K6pjGGzm3lYbZ8XHO7r1KRTfKzauPonFZx+Gr9QO+Ut3ER4RGTxllpttMt/bVHkhaxd0wuEhbN2JyDL+8keXXD93dK2w8jt6SzmAhlWwEfu0kBowe3n64Ts+nnpGVUtgIPhsFCe3EqkMphed58fc4jsPU1BRf/8Y3rt38wWLpFCtwWCwphBAUi0Vef+MNxicmKBQKI/EAabmY1BqlFf980eVOIfOQdl8a/3pjbAzn3qtUhNN2MRq94gL7OOz4Eje14Ok5qbSxq+4Un4zdSpTZj6nncE5vL08nC3Ad7uJ79Tq+5yF9n78503xQE40EIn1ICzvmCKYW77FXKGHmGMqzTAUs6Dq/W36Og8I0QsicwIar+Mx6DfAgywoc6vt+0+Lx8gUN72IyoNEGKiV2tPzECDyjhgVTdEozksJSC/e4kTm/PpAWOSIi67XIqiNq0+h4rYKsUibFYpEvfulLTE9P515vi2VYsQKHxZKB1prZ2Vnmby3guu75HxhgdIvJvtZBZH4lFb7S3B93+K2bLt1qHABFYO72HXZLUx0IFCJep7rAmhR4RtrYvKdMGlAIPhxb4NgtnXu85eKcK2pojZIS3/PwPC+e5CmtOZXwozOHsz4qTwKYmZqmcmMezAVMHmtHo10cBN+q7fDQO8Zv2IwkgwI3LWCzszMEriy9rmw+SF+i5EWCijaOH82FfaMD25myn8dILravgFYZbVqRGJNpg6sh7AdTlhzJy61PiPC/+O9IxKBh1RH9i0Raz/eaBOC5+XnefPPNoZ+bWix5YgUOiyUDIQSO4/D222/jOC6FwkWW/VdP8GBsnlBJpROmkQKoKs2vzzp8thQ+gjudiGnN7NQUJ/N38LUylmfnI4Aygl1fIfpkxRGx4U7yuDiPGJS0sSPEecKGCs1zvXq9yUxXI3AF/KwieL8mGrEocp1YaxCCMcehOH+bcmEs9XDM1z3lvqrwreo60iwpo8gskQOtmw7VDN7ualNMglTcjYsKFcmMO82Lh2EnCmTZiZgzKuc86MSik5kerAVZT5VBuzbPJeFl6oQ/R1VczJ+moKTGe2asDq9eb8oqNTE5ydvvvMPc3Jxtf4ulDVbgsFjaUCgU+MxbbyX8Hweddu4AWoMvFTpjV9ABbhUF373hMBH5/7ebiIXvjbsuxYW7nDrF+IbSFHujicCKI/r2HQWebATSi3Y0eo4hckgE74/d5tgdj91X+ilyaK2HZky1Ix1To1W/aa2Rvk+9VsPzPFTC97ixkyXQVCX84YlDFfPtvDKnNAKLzkxNU7sxF2cACi6DHMoNx5kT/vtmbYc7fjnh2tWq1KyFRZRGtEnoGJCAFFlZJry615PvFsJYZZob58O2iAwx622arHd6Pon2IDl+rVvB5VFKEl9UOm1n1WCUrGcS52jEkbBcHiFE5i06suRIZL1zHKanp/n85z9/LQLgWyyXwV4hFksbtNbcuXOHO3fv4jjOwC9IWy8uA7PawPQxeUzaN/RrNxzeLhniRqYdfMPyY3rmBpXpWaLH9PniRlxyfFgZwZYnKRhpY1uWfVmigHDArjPOT0r3cDAWh3bi1hGdLJaUEVejXqs1xVswvi3+rQD8/pHDEy/hoNGTOrdj3BGUFu9TcYtGsfmJGwLwEbwmy3y9uokRdKMz66cWQkfWZwdqMdKjoKKpLw2/uskf4JLfe7VcNINPc+rYDMsfy4VQKnrOdWfBMCqpZDu7O1kug5QyzpwUjRPHcSgWi/zGd77D+Pj4VVbPYhkKrMBhsbRBCEGhUOD+g1cGPm1sK4sNpVRmpG5zgSQMc4rZouDvzrmIDuZfJcdh7NYiFddw4bnAYkUAW9qhWk+mjc17CuigeX9sgaXiLM7QJvLrL53E1YhEDTOuRitMP+SCgKc1wf975vRD02gIdUpxd2GRo+mbCbet3BGCv1VZZV6WGy9d8ivTIoc2F/9XMMCb4hf4Mml23YtCTCOOARehuyFyT4HLnpdIWRRc4quuGVkWNRfJZDMq2Kdkb0nfH6P5mkBAKovf2++8w2uvvTa04pjF0k8Gd7VmsQwIQggWFhaYuzWP67oDN2lp7Y4SxNmIdpw6RWr46g2H700L4gAIWfExlGJhbp7T6bn4sItJGwEe8FxCQfmtD+8RZj3rOPzH8QdURSG+IdrpQ5KO3E+kTFhqKKUS40YYlglm+rzoEAHUJPzbY4djUw/J63IzLJQWJieo3nmVmk44m+dTLMEpecLhW/U9vlrdQl7iJLPuR5HLSnPZ/RU5mibvkRVZiBCiJ+0s4jQ7yTKH+TrurTvJMLfE1ZG1+Ixf73DYtnNVsQvV602697VOZkyJYqEVCgXm5ub56te+Frw+YHNQi2UQsQKHxdIBruvy4MErlErjA/NwaTcBDoKIhsHpwteCtUQqL7tBbM0BaAH//E6BeTO2amrRdLNYwLnzChXTpP4i1hvhRxzCtLF1SYEMQaWXGHUuoFlxp3k8Nh8UF5Z5naeencTUgCBQZBQs1Pc8lFIJq6Cm8SaydpIbLhs/LQt+UWu4LuUaeyOkKASTi/fYKxRx+pgWdk75/OPTZ2DKGxe8t7S8rjOsNuIApDkP8GZ3EXoSVLQViaB9Qxr/ICHOGNfeRdoqazwMa7sMAkpdvD/aHT9s/WCDi/aC6B5sirEaz2vEJTLnY77n8c677zAzMzN048ViuSqswGGxdIAQgrm5OW7dvn3lqbmC52L2Q04pje83gogm1oldLNukhsWSwz+adxnLeL8A3Lxzn+2xCZxLm/SL+MMFYEUJ6n4jWWYkOPScUOSIAlu+P3abfXeiL7E4BnWScu6usQatNNKX1Ot16vV6Kljoxdn34Y/PHE6itXcfxA0BzN64wdGNW6m0sPnF3oDgwfuD6joL/gkyegx3GHvjPLLiLYiM/ulrphUNnuf1rbxBvb664TLpYdtjRY5OaLa26E1/tLK2HHRs7I3e0RwqSON7SfE3eha7hQKvv/EGn33rLSsuWSxdYAUOi6UL3njjDQqFIsVi8fyDc6BV2lcVWmwEk+LU+12YgZu7BlWl+fZNh3fHm3eFb05Pczp3B9mjRWG0lhVAFcGWr8GYUOY9/RPAljPJz8duYbZwXuWamRGufHLboaWG9H08LxA1fN9riGjn7BS3KRbTeuOvyw5PveyI8j0nPNfxgos7v0jFKcSxX3KdPoaeFG/IM75e3aQm3K7SKndcTDr4KEAfA5Cmv9P3/WTmpj5M0hPxhYYQ1aMFdfO12ZOvvVZEqTuhN+Ppyu/5F8GOm57QJJyhM2OkRbFeSqUSb739tk0La7F0iRU4LJYuGB8f55c+/3k8348Djl7lrqTWxMJGVhDRy85mZwqCH9x0uNEwsmCqUKB06w5nbiGZFvZSNAJNQpA2tuanY3Hka8XhC8FHY7fYdycbN8ZeuqoM4KRWtzm/RFyNet0IFpr9iW52lyJxA4KeP/YFf3LmUIm+Ok/rjcjiSGtmZm5SmZ4lqk1QbH7WG46GktZ8u7oVBBY1XHd6TXD9Q7937DODihpxN5I1yrUmcX2GYUGZCGapG/fzPBY11lWlPa1ib2S91zlDvjjNOG07drqjaY6GaA66bAizhUKBO3fv8s677w50gHuLZRCxV4zF0iXz8/Pcv/8gdlXJU1VvFwchsNponx3lIphWHAJ4b8blrYlgZ90RMHVjlvLMbOP44EMXLq/xPY3YCzUEm76moBppYwPjlXxEjqB82Bfj/GT8HgWMdLU9KjPrW/pqchouss+LraGUwqt71GuNuBommbE1uq9M/P+SgD84Frz0zPfzFTcASq5DceEu1TADUN7iBoAksN54r7YdXF9a98w1JQvzmjLr0xSXo8OYK+fRtAupVELc6Od4T1ZF5HLr6BVNopDRZr1YRGa3uRU5OkFrMheg3RLFwGp8b/OO/SCjzbRqQ67VXAVZ/ev5Xsux5TgOvpR861e/TaFQGPjxYbEMGoXzD7FYLCaO6/Lw4UMODw7CLCWNyOq9mryfl4bTDHgW0cuFQ+wDCky58DtzLr+o+Ei3gDO/SNUpAjqHRaGIv3dXO9z1PcbHSuTljZ4sFVwUHxfneac4z5veQSP8Y7gQHTaaAz1m+39HJti9iqfRUd0AF/hFRfCHZlrYPjSzozWLt++wN3mDOK1qzuIGgCMcfrO6yg1VC8ZWjuKGSXBv0Eb3G4FOMv1W6LofshZsvp8cT1c3SU+YBvX2m3t8TpEI2W0Z593/o3t6q787qtslz7Uf4lav+0OppPVRL78/PWdI90/eXPRcHOEgkecf2AMGZWHf6/4w544RGh3HOnEchy9/6T3uP7jf03ItluuCFTgslgtw4+ZNFhYX2Vxfx/PqfRE3tA5Nl7tM+3phhEBojQJ+acrhG5Pw/sQ8lakZ4mVbjnMwCSz58K7ro8Jd9gusu7pCAB6CH40/4K48Y0J5jZgcOpx8DIHO0cmkUKkgGG3k3pQlmPVyXDfqFn4/UFXw744dyj0t4ZyCtWZuYoLawn3quj9mjALwhOBX6/t8obZ7qbSwl6mFEOmxoUE3j2mNRmS83g0yjLvRT7/x5jGcr2dY1nV22fPV4fV43ve08tnvoqSEyHHe5y9yrpevY3f0uj+ijYS86hzfCzPEpqtoq6gu536mb0aH3dcxr/Iv0x9ZLk9SykS/m9/tui6zc7P8yld/JfdxYLGMKlbgsFguQJA29gFbGxtA7yYjrR7oUrUWNvJ6+EVWDRpwHfiniwWelxZZxsGNJY4c/MPDMh3gAIdNT7LouPh57naHYo4mSBu76k7xcXGBr9Q2EofpcOf70ouYDhcVF/3edu+rcOeoKUuDCFwa8txFNKsnCAKLflRrxEHpR+aUcUcwfuceO4VxHJ3MNtRrTNeU28rjH509o6AlMtynuxKZo2kx1RjTyVc7H+tNLhaeH6uRflMsnfwoFAqp+sQjq+ckr5Pg2vF7YAGVNltvheM4uK7bVbaVrIV08rXOJGTHcZBSJlxpelXHXtFpHduhlEKq6GrNB03QBw7gFgpX0lZCiOxnQoqoPy/TphdFCBEI8rladCS/23HdxDPxIs/rVuKG+V46xbXruvzyl77M9MxM12dgsVgCrMBhsVwAIQSzs7Pcf/CA7c0NypXypXYK0xPyYOcxOemIH4J5mzGkEIDUgjtj8PecI/4l0/lmuhACES6uXIK0sfPSRxTCzDV5uYsYIoeD5v3SAm/W95jV9aaFQS+EiX4IG1G9VZgFJcvfN55kRcmEc98tCso78uFPTkXDeiNvcUMIUIqZGzc5mVlAaNUoLcdzjtxfflDZ4J53TCXKnHKFu3Lpvm/8Hlp5EI4Hobu+3pQfTN63trd48vQpp6dnYZk9q35LZmdneeett5mZmQnPR2cu6i9L+vuq1RqPnjxmZ3unswVq2mKmS0FGayiVSrz22qvcu3s30Z+XcVVp1dXp811dW2N5aZlavd7yitVoxsZKvPrwIffv34+/N68d6fRYXltbY2lpmVq9diGBQhv/zx0NbsHl3r17PHzlFRzHyc2CDpr7c3d3l5cvl6hUq236MxAQ79+/x8MHryS+K+86CiHY299neXmZarWa080k3deCmZkZ3njtNSYnJxP16jyYdsoqB50QfOPrNuWacv+VB7z56TcTx1gslu6wAofFcgne/PSn2djYoFAo4Hnd71Q2T7yDv5UKfH+bFtXQ34VRaOMt0FRx+Krc58fuLO+LqVCE0DktTEVsI+Ih2PQVDxyFcpxg8ZWbyBGu6YADZ5wPx27zjcoKjhA4qfISEzDoa7+cu2CLYmqo7Aw70Xf0P+hj2KsaflJ2eOaFZectboTnPzU2hjN/h1qUAYm8JpCh9QOgELzrHfPV6iYVUQiumwGZtDYLHWGcDiFiC47wgMwx3hxUVKO1Ymt7h//047/E87y+Rv8/OjqmfFbmvS9/menp6eYFe4/vG9H5/+yDn7G8strXcz09PeXo6AgBPHjwIGHy3o3IER3fapc63ccbGxt89OFHeL5/bjmnp2ccHx8DmgcPHiTKykPg1Vrjui5ra2t88OFH+B3UcZA4OTnF93w+9ak34n2MPK38hBDs7x/w0ccfU63WOnI5Ojo6QvqSh6/kJ3Kk63h4dMRHH3+M53l97c+zszNqtSqfe+ddSqVSV5/NcjnyPC/zWFPcGB8f5913P8fNmzcvVmmLxQJYgcNiuRTFYpEvfPGL/OxvforjnG/iGXGROBtXMVETgA4DFAoNU3h8R+7ywi1xLNxQbCCXtanpqrKjBPNSMh4KHPmJHI0dVAn8vLTAZ+t73PZPkcLBaSEIBIv2q/GZNt+PrDV0B+bG/Y2NAFG7CmDDgz89E1T7VzgOMHVzlup0Y+KYWwvohqHVFD6/Vt1kVlUxnUAGetkVWnM0VdJ4PWs8SimpVqp89HGwuIxcRvqF4zgcHB6ytLzMu++8AzQWD9Ab4zfzvF3XZWlpifWNTVzX7fs9WkrJs+fPWVxcjLN6RXXsti7CEJXTokdErVZnaXkFqVRsZdCO6H60tLzMrVu3GB8fv1QdW5URn4MQ1D2PZ89fIKVMtMkwoLVmfWODhYUFZmdv9tyVsema1fBy6SW1Wj0W5zqJwbG+scHc3BzTU1OJ93o+/kMXt6fPnuL7ft/7U2vN8fEJG1ubvPnGpxKuJW3biWZxI+2ql/V5x3FYvHuHT3/m0zb2hsVySWyaWIvlkty6dYvFO3cBc0e09fGtFqpKRYvTwRA34rKN/wN8UR7xZX2CwoidkIcpr2iYy9cQbPkKoWRjU7n3JSaLBw6cEv9l4n4Qc0QbmUZaiAdap6c2mQd1XIdItGgnbiil8D0Pr17Hq9czXVHi1L/isuldL4cmSAv7hycOS14f6mC022SxgJi/Q9XpT1pYAUgEb3snfL6+GwhyYZmDNm1N+IDHv+m4ziJ+haRlh4H0JUpKlpeX2d8/wHGcnruGnEd0raysrnB8fBzUITKlgcAypUd1EkJQrlT4+Bc/T2TS6hfRAujw8IgnT59ewHpEtP0zXVZkGXFwcNB1XY+OjllZWcV13VzbyHEcnj59Fli25OCalCdRXSuVCsvLK7lbA7lO0J87u3tdPw87w4mBAAAgAElEQVTK5TIbGxstn4O9QiBYW1/n8PDq+jNwd1rn7OysrWVT8kPJP2UqNk+6vaO4GxrNr37724yPj1txw2K5JFbgsFh6wKuvvcb09LSxC5J9XGaAN8D3ZcOVIFwAXfVi1MRcDM7g8Vtyl0mMAI25zTuitoBt7VD2fNz4HboSCzovstHeLpqPxhZ4VlqgqFWwQBICpXUipWqij84RJDqtcauMAFFZUkrqtVogaoR1ESLcdReN483PXh3BuRQFfFIR/H9lB+Vg1DWnukXfrySLC3c4mZiGXNIbZ+MK+EFljWlVD+szeOJGRDy2RDx4YsskjUCbFRdp15Qgxsvp2Skvll5e+b3r7KzM48eP4wW1IKxLj3dFHz9+zMnJaUe7370mal/XdXn69HksKnX++Szxs/F5cwfZcRzK5TLPnz/vbpEZjietNS9evuT0NL+2chyH/f0Dnj97FlvTDMKzs1Oi+jqOw8bmBru7uz23WDD7ulwp8+jJk8z3z/s8wObWFscnJ4nv7AXmM/WsXGZldfXK+7NarfLk2bNzj9M0P/t9GWw4nNdOruvy1a99jXv37g2VMGexDCpW4LBYLonWmqmpKebm5+O/k+83dhbTSKmQvhGRPJyED4qPfhYSwZvqhO+rA6IQc9FCKA90aCaigBdS4EovLjOvaUDCbR/BDydf48wZC3a0QzN9DYk4F031NqwvOnEv4bzjtQ5EjXqdeq2G73lNu0LxYo7Bmdybp1KW8K+PnGCI59mBUcEaUJrbk1OcLdzDC8vLrVjDgsfD4Vdru7xV30cNrKzRhijuBoBWCJV4q/G70nh1L7ScWOPsrBwe0/9JurkgX11fZ2193bAaaJj7X6Ru6c/t7++zurZKoVC4MnPyRp00T589Tfj4d3qOphsEZMff0Frz+PETqrVaVwJFJEI7jkO9XueTR48T33nZMWJ+3vM8nj17FjwXevDdV4FZ708+eUS9Xk+816vv1lqzvLxCtVYzjJu6G7/1ep2Xy8tGmJ7e9qeUko3NDer1+pX1p3k/2d7eZntnp307ZVhuKNmw7mr1WcdxmLlxg29885uJci0Wy8WxAofFckmiXZdXHr7KzMwNCoVC6gHV/GBWWuPL5oVxZLkxiCRrpfn7/gavU0diRq7Ir1wHOEaw6SkKusVqq2eFNtxvXBSb7iQ/m7hrnKPxm9Ztg3m2IzHpbPG+kgrf86mHLijKsNbIMnUdPBpn9qMzh5/XwxgOkH9wUWDcdRm/+woHThHHiAOSB6b71B1V4x+cvUBguAvlVG6vyRpbWa4pWmt8z0MgODk5YXllOduqqc8IEWSg+vjnH1OtVkPxrzffHfnTv3gZxC64SqI2dl2Xvb19tra2Eu93cj/qZNd+a2s7IRZ107eR8Oq6Lpubm2xsbOQST2Jra5u9/f3Y6mEw74XtMXf5j46PWVldTbzfi0V+4NZ0yMbmJsUwRs5F2spxHPb29nLrz+PjY7a3d+K/r7o/hRBBFpdaI3KUWed0/aWRDva87x0rlfja178Wi6UWi+XyWIHDYukBQgQpxRbv3sVpY1aqdWC1oaRKLMyHx5w2dI9AsKBr/CN/izEwgvfl83COmiZIG+tQ9WV888p7OqCBopZ8VLrNTmGq9XFdCh0dxdXwPDyvjpR+y+MHeeyYVd72BP/hTHD+lK93OMDsjVkOZ+ZAGy5VOVNA8NvVNW7LU2Rjj7QPJfeYyOUpRjcsYwhSwqpwh/7ps2echSlhr5JoQe04DoeHR7xcWmqILsYx3ZC2lNrb32djczPx2lURna+UkuWVVWrV6gXuia2F0mq1ysuXL3qy8NJaB+lIK5XEa5elWq2xsrqSdNUbUqK6FwoF1tbWOD095bL3DlNE9zyPtfV1arXapeoX8eLlS8rlcvx6b8aJYm1jnWo4Tq76+oJA0Dk5PWVrazvxfpZ1SZSWPet7srj/4AGvv/HG0I9di2WQsAKHxdIjhBC88cYbuI7L2NgY0aQkirMhlW4KNjV0iMaPGoKvyz2+rE8DH33ISW0Qid88YN1XoIylco5WHFG5h06Jj8YXUWEcjuShSbPutkJHi7pqrZG+n4yrkbbwGaLJjw4HRHS2//lM8Mwz8ojkar0RlDJZKKBvLVITTrKkPNoxXkQI3vKP+VplgxpGucPTdQlaRQ1RvkRKScF12dze5OXS0sCNT8dxWFpa4uTkJHghXoRd/JYhpeLZs6cXXiDmycHBAZtbW4mU1p1ZcTS9Ev+2ubnFweGRcWz3fZy2TNjY2Ei8fxHLN/O7t7Y2OTg47Lpeg065XGF9fR1tWCxepq0cITjYP4gtIy66oDb7s1KpsLa+3taaoas6Og57Bwfs7OwMlKtuJGRsbm4mBLqs4zrJmALBud68eZPPfe5zTE5ODtz902IZZqzAYbH0iGiy8Mtf+hJ1z8NxggiHSmmkn1ysRq4og7z7noUZnNEhcN/4vr/DTYIHen6xOBoZVRxgXwvO/MbeeG7lGq4qGnhcnGfLncExYi1gTPZMTKHDrJtOHSOlxPO8IK6G37DUaOV+MgxjxhQ3BLBVhz8vG9YbeYoboYWBA0zenKM8OZO0ochJ3IjOdVJLfq26wYT2Gg9YMbjBRdvRyvfd971gEi8ElWqVjz76uGnReZVE14jWmtOzM5aXl1Pn0nkAGPO8XNdleWWJre3tngdXvAxRHZRSvFhaisWXZHyN877D/EuHi9cqq6ursSvlZc7VrOPq2nocqyUusduYIeHftXqNpeXlntRxUIjGLsDm1nZDoAvptq0ipJQsLS/HsT160Z+O47C9s8PR8fGF6pjG8zxePH+BlPlmaOkG85l7Vj5jfTPbLSctbpz3rBZCsHjnDm9++s3cs+ZYLNcNe0VZLD0iepjNzc/zyisPYz9wM4K2cfDVVLIHmItEDbytT/iKOonf64fI4SPYkjSnjc3ZkuPEGeOvJ+4hMAMwNsSOVpMeaVh06NA31wtTu/qehzJ8dc3vGEYRLKDRDwXg909cVqVhvdGH5f5UsYi4dYe6cBsl5ixuaOBz/hGfq+8nBLBh6z3IXqAEMTf8OHAeWvP8xQsODg8HOvbByuoqh4eHl17QnZyc8Ojx43xubz1ACMHpySlPnz69wH0jeazruqyuriYyZfSsjqenrK6uNGcJ6aJdo02Cp0+fcXJyOpDj7jJE51OtVllaXs4U0LvBcRxW19Y4ODzs+WK6VquxsbGRGWz7PNLnsbKywvHJyZVkJuoMwcbGZtN1obXGb+NKmsZ1XUrj43zjW9+kEMZCsVgsvcMKHBZLj9Fac//BA0rjE8278AziA7t7zB3xCS35rtxjBpV7PAzTYH5fC048nwLJ4I75lq55OjbHs9ItXN3d+Sql8Op1arVksNA0Q+3CZKCJ0sI6/KjSpzEfWb9oxfzCImcTU8SjIucqaGBKK75b22Ja1ZNWI0NG1hhUSuH7yZSHR8fHLIeLr0H2Hy9XKjx7/vxSsTe01jx5+oSzs0a8gUE630DQCBayyysr7O3vd1W/tAXOyclJU5DLXrKytsbR0VFykdjFHVUIwf7+PisrKziOE2ePGjWEEGxv77C7u4vjOBd6xgkhODs74+WLlz19vph9t7O7y9HxcdOiv5vvOjk9ZW1jY4DFjYB6vZ6I7QOELqXm+ba33AD4whe/yJ07dwb2PC2WYcYKHBZLjxFCMDs7y/0HD3CNjCpCiKG23GgiMjkG3lbHfE8eUA9jDuRnxdEQMSTwUgoKvpf/tNboNw/Bn069RtkZa9xAdev0rpHZauSCIqUM0gNLee6O1zCKHVGVHaDsw/9+JDjtbN7Xm4K15s7UFKcL96glmi9f6406Lt/2dvlcfc9wxRm+6z1rxEWZfKIJfDTWl5eXOTs7G/gJuhCC5ZVVVldXKRRaB4Fu9/md3V2WljOsDgaI6BLwfcnTp08T5vLd3ks+/vkvErEGetHH5nfUqjV+/vNfoFTn9TLPwfd9nj59hh+mWdfo4VQTO0BKySePHlOv1y/UD1prXrx4SSXMKAS9Fw/qdY+XL5e6rleElJL19fVEatxBJRCdtgNXNceJhd/kMa0/67outxYW+Oa3vjmUz3iLZRiwAofFkgNCCO7du8fU1NRAT4gvQ3KHWvO7coNPUSOaUuf12I4mDg5wimDNkxQTQdhyKjf86aLZciZ5f+JeUJ75ZgrpB+ld0xHVlZJxjA7f95EZAUlN/3ndRkAZJNKBRX946vCsbuyr5hl7I2TccRi//yrHTjF+wOW1/jbFtvu6xt+rLgNqKK034vGV9tv3ZeZC+fDokNW1tfi1QRQ5TDcNrRUffPQh5XLFeK319WS+V/c8nj9/ju+3TtE8CER1cl2X/b19No1ML9D6fOPXNQjhsLGxwebmZi476Wbshq2d7TjNaHTXOLeOIZtbW0OfFvY8zLY6Pj4OAvka77drKx25TgrB/v4BW9vbOfenYO9gj7W19YQLTKf9eXR8zM7ubtP3DhLmde84TijwniaCwHZyb9BovvIrX7GuKRZLjliBw2LJASEE09PTPHjwAMdxElHtR4rwvCSCGV3nn/obTJjSRk6xOCBYXLrAinY583wc01El54CjJS35qLTAevFGUJvEKQeBQyOLjaa6hEPB3PGJ4nL4vjw3zexgix2hiwiwVocfngmkMEWgfK8DB5ibv8Xu1CxCmztq+VhvRIwBv1tdYVZW4rSww3TJt4u3IWVzYt8oLWy7bAKDhuu6nJyc8vTZM5QRyLcTN7HtrS22d3fDwNGDj9YapTUrq6uUy+X0m60/KKBarfDi5cu+CPMFt8DLpaVAdGpzjab7o1yusLqyOsD3wd6itaZQKLC+vsHh0dH5HwgRBEE7V1dXmzJ75IEjHF4uLXFyel5MlGSfKaVYX1/H87x8K9hjzsplNje3ElZI541H13X59Kc/Y9PCWiw5YwUOiyVHXnn4kKnpaQqF4lVXJRfMneo6gi/Jfb6qT4w97PzL9YE1CZiCQa6lB+UeOSU+LC3iCRcIFkrS9/E8D9/3Wk50TLGrOfJ/YNURuLFEYkfregzSBL+xCSyQGv7jmcN6IrBo/oVPlUrI+TvUNX2zotDA5/0jvlLfjl20+lNyb8gaPkoFLilZLlSu67K6tsba2vpAxqLIIhIyisUiyysrHB4cgGgt7Jj4vsfzly/x6vWhWJCY9Ts8PGJtPUjJms4+EpGOM7K+scHR0XGufWt+90mYNraTNKPR6xsbyYX+oPfJZTDbqlarsba2lhAdW1n+RZ/Z29tjb3+/6fvyqmO1VmVlZeWcOjZ+dxyH3d1ddvf2cq1jLzEtwHZ2dzgrnyXebzV+hRDMzMzwzrvvMDU1NfDnabEMM1bgsFhypFgs8oUvfBHP90fWVcXcqhZo/ra/zSJ+vrE4RCOjigAOteDYl+S+nBbJtLFPx+ZYL8ygfI96vR6keVWqaRWRnMgIzMVv2mIjljp0JHYEu+idWHVcFY2iBQLNal3wn8pO7K6Ue1pYAmueqdl5yhNTfU0Le0NLvlfbYEzlv0OaDymXFCmDeBsZ4ylawHzw4YcXypgwCFQqFV4uLyXEw1ZCR5AWdoWdnZ2hWoxEdZVSsrKyQrlc7qj+p2dnrKysxvekPM85Ep2U1qyurXFyctrRZyqVCsvGAnqY+uWimJZG29s7HHVoxaGUYnl5ObaMyLs/o5+7u7scHp5fRyFEkBZ26WWmpdgwcFYus7W93dGxxWKRh6+9yqfefPNajFuL5SqxAofFkiNaa27cvMHrb7w+sgJHtIiMFv5vqFO+oo4SqTPzclWJpgg+sO2DkApt+tfn6KoCcCYK/M3YYsNiwwg20TrFq25ac6tzrE8it5fYqqNF1a4iXkcUdyPwLNaMC/jhiWA7ofPkK24ATIwV0bO3qYePtbzFDWhYb3zWa4x348Del90jWo0R6Uuk336h8eLFS04GOo1jNuYicX19g8ODQxyn8Vq6LRzHoVwu84tPHie+Y5iIzuH58+eJ50+6/zWBe8Ha6honJ2HK7z6ca1TG6ekpa2trTRk40mPUdV2eP3/RsWAzSkTnW6vVWFntrK1W19Y4OLhceuSL1NHzfTY2k2ljs+oohODl0hLHxycJgWQYiOuLYGdnl9Oz06Y+MXEcByEE7733FQojOhe0WAYJK3BYLDkSPfDe+NSnKI2P9zz//KBgihxFNN+Ve9zWfv4iRzzJgAMEh75PoR8L+yjQGJrn4/M8mbpHgXAylzTQyPioQIjmcdBuRzwSSmKrDv98qw7or2WHBgoC3i8L/rxinF8f5quuVswv3OVkfKJhxZOz5YYAprXiO7VNxvXw+I5nDgdNZryN9GLj8OiIpaUlisXiULhrpDEXiY+fPEm8BslFiVKKX3zyCZVKeWjv21rrMG3sKtvb25mxoLTWOEJweHSYa1rY81hdX+Pg8LBlXBTHcdjZ2WFldXVo+6MXRO2wvbXVsh2iNL/PnnWfGrlX7O3vt01VLITg8PCQtfX1oQ+26fs+S8vLbV1TXNflV772VW4v3h5g6dtiGR2u71PCYukTWmvGx8d58MorFMfGhm5R0C0aeF2d8n21Tx8SuDaCdgJrUuDIxmIzP+uRBhLBX868zklhAqF1aMyQbd7f+D37u7ox+zetOqIsLK1ONV+hI/heBzjx4X87dEmGnszZekNrbk3PUJ5fxO/jzLEuHL7t7fBp/xAVWxM11K0BCY2SIBgDKX94pfA8LzH2TEEt+lwwiV+iPESBRVshhGBza4uVlRUcx2lacMTvr65SKBSGWsyJ+vHxkydUa7XM46RSPHr0mFqtdiXigeM41Gt1Hj16jJQys60DUeopSqmh2+3vNUopHj99RrVazXyWSCl59ux5oj/73Va+7zfF4ki87/msrq4lgp8OW3+a4/Dg4JCt7a3Mc3Ach4XbC3z5vfeG8l5isQwjVuCwWHJGCIHjONy/f5/x8fGmhcOokH5k/5bc4jPU8Gm4r+RSbrRhD5wgWK4pilol3AhyKTf86aLZcyd5f/pVzFa4aLlZIkd6nDSZJ0eBSVX7LCy9dl8xv0UAf3YieOGl08Lmy5TrMHH/VY7cYu6BRaPz9RC8qmr83coKjuGyMshkBhOVCq9FvA3zNUc47B8csLa2Fo+fYZ+kK6X44KOPmt0ddLCYfvb8eV8yT+RJ9KyJFmBRwNH0MWtra2xtb+O6bt/7Nqqj67rs7OywGrpfpMfk+sYGBwcHiXO6biSCs56csLS8nPmg2d3dDfrTca6kP6Ofh0dHmRY3Gs3+4T57B/sjI1YJIVhdXaNSrUavxK8XCgW+9e1vx/M/i8WSP1bgsFj6gBCCqakpHr76KpOTk0Pnv94xUfwL4Iau88/8dYoYC8AcA45CcENbxqHseSS8XHOMxaGBAoqfT95hq3QzEejULDXpe+wYvzfH6mglcpjHCSGC9jY/q5uzsLTisvE6TGMAAazVBX9adsHR+aeFDesrtObG3C22JmdxotcgN/eUiCLwDysrzMkyiuyzHKRLO8tyQ0rVtIBPW27EnxXw7PlzKpVqi7gyw0NUd8cRnJXLPHn2LBHYVziwsbnBXpjVYdgX02bdV1eDgKNm/5YrFZ4/fx5YslzRuZoix4sXQYwNMyVvpVJhZWU1cfx1JTp313VZX1vn6LiR8UZrjed5LEcpdLmatjKfUc9fvOA0TBsbjTslFWtGWthh7k+z7pVqlc3NzfC10LLRcfjMW5/l/v37I7WhZbEMOu7v/d7v/d5VV8JiuS7MzMywvb2NV68PbRaC8wkW/hLBXV1ly5lkSUw03s1l4Sswt++VhjkXtMg54CSNGCO+cNA4vFI7wDXiQMTVSrioOOdmAWi12Eh8D8mWTB8fxezQOtJCzm+DziebjQCFdQV/eOLwfk0EkUj6ZMJxc2ICcfchlUIxs517h2mlIfi6t89vV5cbgUWFMfiI+q7x91WROaHWgfm4MkzH24kWruuysrrCkydPMHclh5lgsRWc28nJMVJKisUivuexsbnJJ588olavD72Yk6bu1amUK5TGx9FKcXJ6ypMnTzg4OIyPuerz9XyfcqXC2NgYWmtOT095+vQZB4eDU8dBQSpF+awcx7CoVCq8fLnEzu5ufMxVt5VSmtOzU8bGgrg91VqNly9fsru7N1LWG9HParUaiHUFFyklU9PT/Npv/Drz8/NDf54WyzAhtJUULZa+cnhwwF/95Cd4nje0qdHaYca9EMDPnRv8i+JrbFGIX8tHbAhiUAgCS47PFODGWAFlREfIM/AkwKTy+M2DT3ilutd43xA5zNttvV4P324WJUyyfOLbTZSiz2eZeZvWIu0nW6JtU6VjmzyqCv7nfZf1aDjnbb0hBAVg4c59Tm/fx8tbyDL6eE77/A9nT3jH22+8L0TYHlEgWHnlAkcrtxPpN1v2tByDQlCrVvnzv/iLOHPKsFs0RCRccBwRW9adnZ3h+3JkFl8R5vmWSiVK4yVq1Ro1Iy7HVZ9rUx1LJWq1warjoGC2VbFYYLw0jud5iTgrV91WyToWGRsbw/c8auGzL+Kq69kLzOeuEILx8XHGxor8/d/5HX7nd36HQqEwEudpsQwL1kXFYukzs3NzvPLwYSJY2ihhLjIV8Gl1xrfkQWxt0Nj3///Zu9PmOK4zX/D/czJrw74DJECAIChukrValqiVlChLVMuWLS/y0mtMv7jzSeZ+hLkRc1/M3I7omIi5fdvTcd093tqW1JZkS6JEkRQpiiJBEPu+1pKZ58yLrMzKKhSAAlBZqCr+fxEQRKCQeXKryvPkOc9T/jV7y3cATDluEs6wc3EE+7DrMorPmvrhiPwycMXWLbbJgB9UrCzsdnHpTdNYCv6ucApL8UVtPXVF+/8R0Nl9/rtVialKBTey35vicdjtXRULbnhLftxaxIi9nPt9IIBVLYodN6UUbMveMbhRsCB8desrLC8v113ug/wpYRqrq2tYXl6B49Tn+3JQOp3G8vJK1QUOgm1Ip9NYWclvI+UE95Vl2VhdWyuaRPYg5bfRwvr6el0GN4DA5252c9LpNDo7u/DKK68gEonUzXYS1QoGOIgqTGuN4WPH0NrWhkgkctDNCYXX2RQCiMLBeTWPvkBNldDGjQXycSxpgWXL8XNxiNBWnB0RAbds7K1YF2429iKinU0jHYI3OcVKNgZfl5dIdJdBjmLLCgY9vM6qG+zILzlbLCiSF+zIRjg0NGJC4/K6wDtJAeXPlwnxRs7LO6IctHT1Yj3qTn0KcwqSv3wALdrB+fQkYtr221Ntt63FRu14wQ1dcC4Wu+kOHuulpSXcvjPqP32st5v04LUhpYSUchejnGpL4XbJKt3OwnbW6/Eoh1rYV7XQxnJx7wNy2/TXf/3XaG1tZe4NogPAAAdRhQkhEIvFMDAwAK31gZTlq5hs1dQ+lcRrzjzSQuY+/oskPizzqjGuBIRt+f8Os2xsbms0/tQ0hOVII/wClNtUzSk1yed+ghwePxkddF4cIq/krONsW242WBZ2yQb+cTl7/oZ7ON19qDWgFA61tGCjrRuOt19DXKe37AwkLmSmMWivQlddWGPr88i2bNjW5mSiWy3D4zgOvr5zB5ZlhVxmmIiofhiGgZdffhmPPf4YgPoZpUJUS+q4Z0VU3Xr7+tDR2QlpGDu/uAYVfqSfc+bwoE7ml40Npc+Uy7mxDoHRjEK0wmVjF80EPmoeggpUSylcb37S0eI3QJtGU2wR5NjtNgnknjTljRQpGNWxfRUW4FerErft3LDc8Oqz5rawyTQQPXwUK9KoSFlYATdh7ohK4uXUREG60eqwVeDMtuxNeX5KCW5IITA3P4+pqakd/46I6H4XnMLX29eL7775XQaFiQ4QAxxEB0AIgUQigcOHDyNiRup4FEcuF0eTzuBv7HE0Ij+nQShrzS5cApiAxKplo1JhJA3A1ArXEz0Yj7XnlY3Nm6IiDZSyF0oJcmAPQY5iyy5MiKqUW0rUUSp/egOA2xmBP6zLMGeGbCKh0drZg+mGFoiwy8IilzMmBo0fJkfRqpJ+0tqKbvg2iufb0LvPtxFcJoBbX99CKpXa1d8REd1vgtM/I5EILly4gEOHDh1wq4jub/XaqyKqekII9A8MoKGxoX6TUIncNxsC33AW8Zxagsp2+8N+vuGlhbhrawgnMEw/jCcrweAAgIwwcLXxMDIi4q9TI9hZLH0PlBrk2Ku8+dDF8jIEEpM6SsHSGu+uC8yowBZUoGpISywOq6MHTiVKLGePl4LAY/YyHs3MIgNZNaM2gO2DG4UBqVIq72itYRgGJiYnMD09XZ/vSUREIRBCYHh4GE8++SQMw+D7J9EBYoCD6ICdOfMg0plMXX4YBp+uCwApSLzmzKAPVq5jHGLiTw33TW4FEgu2AxnM2RBykEMAuBtrw714R9468xM9lv4WHNZ0lbx1BNaVnwQuOxJHa2il8NWGxsdJWZngRnZ/RYRAor0La9F4LnGsl3Q0hHV629ahLVxIjUND5z4wt0wuGgxahXc9b5UTw7Ed2JYFFI4aKnEfSSmxsbGBz69cgeLoaiKibQVHb8Tjcbzwwgs4cuRIHY/KJaoNvAKJDpAQAm3tbTh+/AFIWZ8R/2CQQwmBfpXE884iTATKxoY0V9VbvgYw7QCOKigbG2KQQwNIiQg+bzoMS5pFXyrl7o53ydNVyrhZ7jpzC9Qa+M26mRu9UYGRGwDQkEjAauuCkzfpJwSBsrASwBPWAobtlbypKQd5le6Ub6OU3C5bLU8rjRtffonV1TUY2Rv0enxPIiLar8L3xuHhYTz73LPMvUFUBRjgIDpgWmsMHR1CS2sLjGw5xnrjbZHUGgYUXlDzGNCZgo5qGMGG3MPrVUgsWg7MwNP58KfIaIxF23CzoQ8RXSQY4bVjFzdEJQU5UL4gR7A6bFQAnyYNfJyu0EdHduUmgObOXmzEEv6vwr5KFIA+lcaL6WlEtVNyQtNK39sW5tvw1lXt9/gAACAASURBVL/b9xEhBGbnZ3F3bAymafoJ84iIqDjvs9s0Tbz9k7fR1tbG902iKsAAB9EBE0KgoaEBIyMjO86Vr2l+iVKgX23g284cFAQkwq6okkt0ek8JwLbyO6khjeLwKAAfNA9hNZKALNzIPR7qokGOzUM59rbwTXJlYdds4B9XTaTyW1Om9RSuNtt+pdDX0oKN9h7YYScWzQa/JIAMDLyUmcFRexl+xo+S1hlSGeIi01KUo2Bny7gGlZxMNPB3lmXh1te3YVnW/htLRHQfEEJASomXX34Z3/jGNzh6g6hKMMBBVAW01mhrb0d3T0/RuZsauQ6O1sH/L/jyXrvd13Z/H+KX12F1JzwIvKjm8LDeQCavbGx4NwcCQBICo5ZCVOdKZ4ZdNlYCWDZi+FPzMLTwQhzub+UucnBsWn5hkEPnVzpxf7a/kRzB0RsA8P+umZh0AlM0KlAWtjESAQ4NYUWIvBwYoawW7iZZEDihNvB8ejKv4k9J4Y0yn1De9VrIsR3Ytp33MzdvSqnL1Xnfp2dmMDs7l1fukIiINgvm3ujr68P33/o+pJR83ySqEgxwEFUBL0HVocOHN1VUCQYHsj/ZekHea7f7Cn1iRhFeokORG03RoG38xJ5AE5T/hDy0YEN2dxoApiCxmrHyRlOEM3gkF7iJaIUbiW6MxToK3nRziTz38uRnc5CjWPLJ/U9XkQC+Tku8mzQAUbncGwaA9s5uLCSaIAO5MUIRSECbgMaPU3fQqNJ7KAtb7glQhUErN7jhOE7ez3dzY114jti2jdHRUVhWhsENIqJtBN8fY7EYXnrpJXR0dHD0BlEVYYCDqIp0d3ejta0N0Wg07wlBmPJHhxSMBtlqVEiRUSBKKSil4JTwpZRCWmmctBfxsjOPSiSpzG2vwB1HQDt2bq0h35gIuGVjLzf1I2lEUc5OcFhBDh2YN5RSwO82DCzrynZ8WxoSSHX2wVKqYmeIgsBZax6PpGdhHWBZ2GIjN9x8G1Z+cCOv2s1u16FhGgbG7o1hZnaWgQ0iom0UvkceP34cT599Gmad5k8jqlUMcBBVkUgkgtNnzsCybQgp3bKcCAYV3C+VDSiUEkzY8ctxtv+542z+Upv/RmnttrfYl1K5Ly8gojUsDbyamUa/TodfNtb/Pzfh6LytIILrCikXR7AGyb1oG0bjnYFfC79U7H5ujkoNcpQqGNwAgC8zEp+ljUAuCv8/5Zdtd0wIxNp7sBaJ+R9UYefeAIAencGF9Djs4PbtWDml2L7dezt1kZFWW+bb2PNasmVhk0lcv/Gln6SUiIi2J6VEc3Mzzp8/j0OHDjG4QVRlGOAgqiYaaGpqwvEHHvBHUDiOkw1mOP6XygYUypEbI5jYVGSfBlfky91cdOkkXnLmEMntglCDDZ5pR8BycjkMKrHejDBwteEwUjLqd1/LdV9USpCjlJwcweCGAmBr4A/rJhb9Bvv/Kb9A4xoaGpFp7UD+asMLbrhlYTWeycyh316D9o5bCWVhdRlHthTNt+GoLfJt7H69eWVhtcYXN25gfX3dnT+OvS2TiKjeFU4dPjZyDE+ffbpo3jQiOli8KomqSfbzc2RkBM3NzZs+OMMINISVsHFHgY7jU/YCRlTS72iGGWzwbEBg3laQheVbQ1mv901jMtqM642Hti0bu+fV7BDkcH9d2lo13LKwHyVNfJqp7EdFTAANXT1ImtHcD0M5T3PBDQWgX6VxNjMDQ2t3dE8JwY3N9j5dpFhAyrZtOEWCG3tdR3AZs7OzGBsbg2EYnD9ORLQDL0dRY2MjfvSjH6GxsZFBYaIqxAAHURUyTRMjx44hGo36QY6wP0Qr/iEd6FB1qRRedmZRiVwc3ho0gCklYNt23s/CXavbkb7UNIDFaBMktD9FpWxr2ibI4VdFKTqFxf8LAG6CzwVL4J9XDaTz11DO5gYbmv2u0NXShrWWTniZJsJLLJpbviUkXszM4LC9lj9qpATBXb6Xy6jYofCCG8rJnzpSrus0lUrh9p07+SNDeJ9ORLQl7/33woULOHPmDAPDRFWKAQ6iKtXV3Y3W1jYoFeiM1sGH6Vad629mZvENZw1W2GVjAx3EFAQmLIWocspe+2LTagPfV2QMf245CreKSu6mqVw3S6Xl5Ngs+BIB4N/WTExUsiysBpoME0bfADaEEVhvuFNTMpB4wEni2dRU7vjvqipJ8f8v7W+L5NtQCrZlQ6uCfBtl3A8zMzOYmZ0NZdlERPXEK58tpUR/fz++++Z3WRaWqIoxwEFUpWKxGIaODqGtvS03VaWGP0y37GRrIGPZiKQ38HbyNhLQFQs2SAATMLCWsWDkNzaEleYCBSYUrsV7MZbohAhUrCnnzVLpOTly5VE9XlnY3ycN6AqWhZVQ6OruxUyixS/jG1pMJfA9Bo2/2vgazTo3VmU3693rYSuab8N23OBGwXSS/Zwb+aN4NCzLwu07d5DJZJh3g4hoG4UV7S5evIjW1laO3iCqYgxwEFUpIQR6e3vR0tJS0yXItgpseAlULSsDrRzYQmLEWsTLmWnkdS9DHsUhANxSbtnYSvBGp2hofNo4gKQZhwzp0O4Y5AiOHAkkF11XwG83TGwEGx0yAaCjsRmrHb1wVH4Z1LILJtqEwPnMDM5Yc7BQmUBi0WvCy7cRLAGL8o+sME0To2NjmF9YcJ9Khjgxi4ioHnijNx5++GF888lv7jvoTEThYoCDqIoZhoGTJ0/CMAwYhrHzH1SZrZ5wKMeBbVlw7NyTaneqgMDLqQkcczagQ+5VB0dxrENi3nIgtZvvoBLTYyQ0xqOtGE10AULmygGXfZXbBDnytjHX1f08ZeDTtERBV7vMLfMbBACIGRJmVw/WC8vChkgD6FcpXEhN+FOjwrZ1vg0ntHwbweWtrq7iq69u8ukjEdEOvPdgwzDQ2NiIF158AV1dXaycQlTleIUSVbmmpiacPn3aTYZZQ08Mthq1YVsWbNsu/nsIdDkbOJ+ZQgwql4sjjKfMgVK1gJtwNG3nuvRhdv+yA17dsrGNh7BmxBHszle6ukrQhgLe2TCwtNtMm3sRCG41NTYj1dweflnYwNSXCIDnM7PocdahRG70RsjjN/L/pTVsy4ZS4QY3vHVd/eIa1tfXNw27JiKinML3yFOnTuHs2bM1+bCJ6H7DAAdRDTg6PIyuri6YpnnQTdmW13HeKreAlckU7ch55WoF3I7nY+k5jNjrfhLIbJKK8jc40JndgMCcrSCD0xe0Lv96s9vqbpvGRLQFN5oOI6LtcNbnrzZ/SG3hcdJwy7P+ecPEZUsGuuHeUSmzwLpNIRDt7EEqWxY2tOCG1vBn4wDod5J4OjPjVrMJMZGve1g3XxeO48DKWGXNt5G/3uz1CDe/y/T0NMbG7kFKw18XERFtzZue8oMf/gDxePygm0NEJWCAg6gGaK0xcvw4IETVPj3YakSAVsqdjuIUjEARRTpY2X836wzOZ6YR2TSWIdxpI7NaIGNb5V/HdjRwrWkAy9myse7PKjN9INjplgAWbYF/XTcqm5VBa3S1tmG9qR3K2+6wSyIDUBA4Z02jw0kWaVL59kCxKimAG/Bz7HDzbXjLFBDIZNL4+vZtBjWIiHbBMAy88cYbOHXqFN8/iWoEAxxENUAIga6uLvQfPlx1cz+3SyJqWxYsyyo+aqNgVEDwXxrAo9YcHrVXYGV/E8iBGZo0BMYthYhy/Bwg4Vdy0Vg1Y/ig81RumkSItpquogH8YtXEuJMfhApF4HxpiZgwegeQFDLcqSGBsrA2BM7Yq3gqOb11YG6LURdbvbb4z7e4LrLJRIPHotw3zsGqKVprTE5NYW5+nlNTiIi24Y2i8yqbHRk8gu+/9X3mLSKqIdU93p2IfJFIBIf7+7G4uIiVlRUopfwP4Wrg3Qx41VFUQTUI7zXB71suC0DMyeB7G6O42tyM9Wzn15+yUmZCuJ1UAWAaBroyFlrjEnYF0k5qAFIr3GzsxUhjL4ZXJ6CFrNhx1dotz3o9ZeLdpOHui4qsGTC1RntPH6YTTRDZIFiYe9wduQEktMJb618jbm3AEhIye0ObPz2kYKrSjjS0FluO2AAApRRs24Eucu2Gdby963H07hiUUlUXICUiqkZSSkSjUbz55pssC0tUYxjgIKoRXtnYe/fuZcurWn5JyeDH7kE+l3UcB45tQwoBuc98IRoCxzLLeD0zjf873g9Tq53/aM8ERHYvSgF8rQQedWzAiGQbo8s/bSKY5FS7OSBuNg9gOL0AUzmhT9MI0hr4JG1gA4FzKbT1Z/elUmhvasJK5yE4SsGfeBXSer3tcoTES/YMvuEsYSMSRST4IiHygh17Ibeo+es4CtAKpmEAIU8z89qutUY0GsXHn3yChWxZWCIiKs03v/lNPPHEEwwOE9UYBjiIaszp06fxX/73/4LVtRVEzAi0Um7SygN+uqCU2lTmcr8c5aDPGMXhM69hqrkbwksG6WahLOu6vH0oNJCExETaRl9MQhtGLghR7g6if8w0AImV1RXcuHEDUjmVSsORXbvAYuwwdKwL7hgHEU5QB16GT42olJDtXdgQJmS2RG14MZXsyCEh0LO+gMHr/45LqWVoIXLJRYO8KVQCuyoeq6GhiwTilNJlvza24yVpVUrBsizE4jG88sorvEEnIiqBEAKDg4M4+8xZtLS0HHRziGiXGOAgqiFaazQ0NOC1i6/hP/9v/7mqpqrocgcAtPY7oP1WHAtn34RluGlHRUhzVbypKhLAtBJoTqfQ0NCY16ZwqnsAwjTgXHoHn3/2CbSUxTveIXD3sUK0awGRUy8gE9yxZd3e/LosiYYENpraEPr4Iy/3hgZMZaH/2h8x+tF7uKP1NmvTfoBpN+e0fw0WJpSpoGCOjYZEA/7m7/4Gzz33HBKJRGUbQkRUw6Ss3FRRIiovBjiIaogXyDh9+jTOnz+PX/ziF/7PquGDuOxtyHZO27++jM7jj2Gqb6S8yy/CmzaSkQbm7QwaHBvaMMufAyS7bdAa2oygYew6jOsfQ2ejLBU7mlpDQ6BtYRxHFu/hVudRQNkIJ9jgfjOlQKS9G2vRXMm9sCdPaAF0zI6j86tP3FFPKC32sKdz+oAvRW+KzTPPPoNXXnmlrKVniYjuF3zfJKpNDHAQ1RjvA/fV117FpUuXMDY2Bsdx6vJpg7c15uoChq7+B+a7B2FLA1pkRziU/ebDz4oBAJiTUXStryHR2gF4Uw/KvV4pYVgpNP7mH6FSG4BhhjMdZgv+JBnHxqmvP8Zk6yFsyAjK20vXgRVptDY2I93W7U2G8adUlJ0/ekMBUmLoi/9AbGESWrg5MOrt1tU7Z6SQ6Ovrw+t/8TqnpRAREdF9hXc+RDVIa43urm68eO5FmKZZt6UfBZCdqgK03foUA3evwTKieck5y7/S3D60DBPjWkIm1/yfl2uNwQkbDZffgx67VfHgRq4xGloYiKwt4cT4NeTlySzHPg4solEConcAaSOSCzCEGNwAANuIoH/iK3Tc/ARaS3cfl3+NByqv5KwUePqZp9Hf3193QU8iIiKi7TDAQVSDhBAwTANnnz6LkydPwghUZai3IIdLApkUjn78/6ElvQaF8gYbCnl7UGqNxUgCs8kUpGPnXrDfTmMuwQOis3cR/ewP0NFYOAGbkrhVZBzDxKGpr9C9OofyjW/IbZOhNVq6erHa2OqOqghRLn2rQIOVwsif/ieQ2gC2qHJSy4JVU4QQGBoawgvPv4BoNFqn7wdERERExTHAQVSjhBDo7evF+fPn80Zx1CcNJQ3Epm7j5Ke/reiweyEE7poNSCc3/C7/vsIQgdwbwrYQv/JHYH7aH8VQ6eMoEBxAIWCmkxic/goJJwN/S8sSeNFoSiSw0T0ApYPjV0KkNYSUOH7tPTSM3YCS5gEGkcInpYSAwLnz53Bk8EidvycQERERbcYAB1ENk1LixXMv4tSpU3mJBOupYxPcJkdG0Hvpt+iduQMtsm9fIU1T8feg1rBMExMOACvjvWD/682O3ohc/xhQqgo63t7EH42eubvoWZlBWcIP2c2KC4FoVy82IlF/qWHm3gAALQ10LE7i8Ce/hi0Nf1X1eH14Bo8O4vXXX88b1UVERER0v2CAg6jGGYaBv/rrv4JpmvU73z5bWUQIQGVSOHLlD4jabrAhzFwcXtfR0BqLMor1jBfgcEdh7HZ/68DoDQiJxKfvQK8uuus64EoXwh/KIWBkUhiauom4VtjXKI7s3wgA8YZGbLR0QAZ+FnbuDVPZOHLtjxBrK+6+DavMbxUQQsA0Tfz93/99fb8XEBEREW2DAQ6iGqe1xvHjx3Hx9YswTdP/WV09pQb8Dqo2TLTeuYq+iS+zv9OhJxzVAGwpMasAbWXypqiU3JEMvE6bETTcuQLj+seAkFUweiNIQwuBtoUJHJkbBWRgJMAe2xmVAkZHD2wzmvthyMENAOiaHUXnrUt+6d28kTl1wCsR7f3/uXPn8NBDD9Xd9U9ERERUKgY4iGqc18m5cOEChoaG6r4spNAaxsYa+q/+B6JWOrxMo976Av+/ICNYTaUg99B59JspBCLJVSTe+SfoTLocTSybvOIpysHxu5fRktnYQzBC54IhWqOlqRnp1s6i6wmF1jC1wuC1PyKyspA/JaYOSSlx+PBhvPLKKwxuEBER0X2tvntCRPeRw4cP49z5c4jH4/Ub5AiMqGgdvYqBsauwzCiEDncUh9ddtIWBSSXcsrF72cfZUQQNl34P3PsaqOI8CVpIRNeXcGrsyr4CA80C0L0DyBhm7ochjt4QWsM2I+ibvOWWhQ1znVXAm5ryzLPPYPjY8EE3h4iIiOhA1WkviOj+4uVv+Na3voXTp0/nJeasp6e5eSMMLAvDf/5XtGQ2oAKBj3BWnN2f0Fj2ysbaubKxO01T8X8vJaIzY4h8+nu/LGy1HSMhRDaoo+FIAz1Tt3B4ZSbXxlKCSN7maoWWnl6sNrZBBHNvhMBrlRICjXYaJz74BZDe8H9fPXt4/woTCo+MjOC55567D6opEREREW2PAQ6iOiGlRG9vL1566SUkEon67eh42yUNRGbu4eTH/wYpAm9lIeezkAIYNRuRSq6X1mn226MhrAzin78HvbocYgvLRwAQtoXByRuI25ncL0rYx0JrtDU0YrV7AFqpwC/Cq5riLl7i1Ke/QXT8FpQRCW+dVcI0TZx/6TwGBwfr95onIiIiKhEDHER15tHHHsVDDz2U97N66vjktkRDSRPdV95D79Qt6JCn5fh5HLSGZUYw7QDaCuTQKNbpz0t6KRCdGYV58zP/d9V6XIIVTrQA2hcn0bMykx/Q2SrIkf1xzJCQXX1ImVEIhDt6w1+1kOiav4fez/4ARxqhjxo5CMFzRgiBEydO4OzTZ1k1hYiIiAgMcBDVncbGRvz8L3/uj+Koy46PP4pDAMl1DH/6G8QzSbd0KxBqLg4Nd+rFvBHFajrjr2vbNWoNoRQSn70DLM+Xv20hCCbmNDMpHJ38EpHgSIwtabcsbFMzki0d+UGGkCunRO0Mjl75A7C2nMuRUqVBpP3wrulIJIK//bu/RXNLc9UGy4iIiIgqiQEOojqjtcbg4CDefPNNGIYBKWXdVVbwO8taA9JA0+h1HLp7zZ1SgfCDHABgC4lpJaCsTG60g85VD9GBxKc6EkXD7cswvvizv4xaOB5eG5UQaFu4h6GFu9mysbkKKTm5bY8a0i0Lm00sGnZwwzvuPdNfo/3WZ4BhuoGVOi0LK4SAYRh49bVX8cADD9RnEJOIiIhoDxjgIKozXqf0269+G8eOHTvg1oQnF+RQEHYG/df+iIbUmt/ZCzPI4VkxIlhJp/1RCkVJicj6MuLv/QLasnNtqyECgNLAA6OfoTW1hqIfHTr7Sq3Q1NyKVHN7YAHhjtyA1ojYGQxcfc+tcKNV3QU3gqSU6O/vx6uvvgqgNoJlRERERJXAAAdRHdJao6WlBa+88gqampr8srH11hEKbk3jxFc4cvtTOJFo6IlGvfU6QmJKS+jkel4J27yklwAaP/oV9NQYYGZLpdbScfBzcQhE1pdwZuwzmMEQjfYnBgHQaDYk0H0YlqxQCdxsWdj+sWtovXM1O0GmvvJuALlrV0qJeDyOl156Cb29vRy9QURERBTAAAdRHRJCQEqJJ5544j4Zwi4Ay8KRS79Da3IVKhvQCW0UR26tWDXjmE6lYdhWoJufJSWik1/DvPQOYET8ttRS5zuYi8ORJrqnbuHw0mR+kCa7waZSaOk5hLWG5ool+NRSoMlKYfijfwPSqZDXdvCUUhg4MoCnzz7NsrBEREREBRjgIKpTQgi0d7Tj3PlzaG5urttRHG5HW7tTQebGceajXwJmxK/cEUp4w8ujAUBAYyzaiExyDTJv32pIK4P45XezIzyyf1eD+18IkW07oLXC0ckbaLCt/BdpjdZEAiu9Q26eCISYewPwj64yojhx+d8Rm7gNbRheg0NZ50HZavRGLZ5LRERERGFigIOojgkh8NRTT+H06dN5ozjqqWMUTDjqmFF0fvp79I/fgMpOkRBAaKM4vKUqaeKeMoBMoGwsBGL3voTx1eeAkKFPm6kIrQFItCxPo2/xXt7ojLghIXr7kRQyl+g11HYAWhjonb2Dvk9+DceM1n1ZWK01jh07hhdeeKGurmEiIiKicmGAg6jOxWIx/OznP0NHR0fddor8rRICyrFx9NJv0ZDeAIC8RJTlXWkuiaXUCgtGFMtewlGtIW0Lsc/eATZW3FbUeNLL3GgMDWFbODL1FRpsN6AjASSaW5BsboehnILXl1kguWjcSmLo8h+gN9bdksGor+BdkBACLS0t+Nu/+1s0NDQcdHOIiIiIqhIDHER1TmuNo0eP4nvf+1595+LIjuJQRgRNY9fRN3rVnSahVe41XhnXcn0hV6JUCYEZJeCkU9CRGBK3PoVx63OgjpJeBrehdXkaQ7N3AMNEwpCQ7T1wDDN/O8u9v719nv3ed+862m5fdqemZMvC1rPXLr6GEydO1Pd1TERERLQP5kE3gIjCJYSA1hrffvXbeP/993Hjxg3Ytu3/vF4IuJU+JDR0JoWBK+9ipv8klprash3iMDu/7n5cMCVatY1DqVXE//BP0JYFyDqLI3tVVZTC8bHLGOseghwYwVpbF+y8lKRhcQMZjZkkBq68B2Nj1Z0CVOMjZIrxrlHDMHD06FFcvHixbkeoEBEREZUDAxxE94lIJIKLr1/E3bt3sb6+7iaCrMcgRzaY0Th5C4/89v/E5JmzQCQOd2JD+EGOprVFtHzxR+ileSA7sqDuOqXeaIl0Cs99/itMRV7GRjo7FSfkfSwAaNtG75d/RvPYDSiIutzH3vYIIRCNRv2Sz7oOt5WIiIioXISup94NEW1Ja43FxUX81//jv+KDDz6A4zh5v6sn2p/KoCAiMcAwEXLayxzbgrIsQBqoh9wbhQpzmgitIMwIYEYq1AIBODaQSfmJZIH6yr3hbYs3euORRx7Bf/pf/xN6enrqajuJiIiIyo0jOIjuE0IItLW14dz5c7h27RqWlpbqLrBRSEsDyrYgLGvnF5eLQHZaijuaod66o36FlGzOEy0ktOMAtrPDX5aPFoAwzFzi2Drt9Esp0dDQgHPnzqG7u5vBDSIiIqId1NnkcCLajpQSjz/+OB599NG8zlK9dZz87fGG88sKfnkjNoSo1363n1g1uK2V3MciG1xxV11fQaTC6/LkqZN49rlnIestlwsRERFRCHjHRHSfkVLiBz/8ARKJRN0FNoKEEH7nt9Jf9TYtZSvBba34V/b41ishBOLxOH72s5/BMIyd/4CIiIiIGOAguh8NDAzgJz/9CUzTnaXGxIVE1cGbNmYYBt74zhsYGRk54BYRERER1Q4GOIjuM17llBdffBGnT5+GlJLBDaIqEKyccmzkGC5cuMDgIxEREdEuMMBBdB8SQqC5uRmvXXwNjY2NeR0rIqo879qTUiKRSODChQvo6uo64FYRERER1RYGOIjuU1prnDlzBt988pt1nXCUqNoVXn8PP/wwHnvssU2/IyIiIqLtMcBBdJ+SUrplY8+dQ2dXJ4McRAeg8Lprbm7GufNuWVhWTiEiIiLaHd49Ed3nTp06hae+9RQABjaIDopXFeaxxx7DI4884icbJSIiIqLSMcBBdJ+LxWJ483tvoqmpCVprdqyIKsy77mKxGH789o/rvoQzERERUVgY4CC6z2mt0d3djb/5279BNBqFlJKVG4gqwKtoJKVEJBLB22+/jcOHDzPISERERLRHDHAQ3ee8QMZLL72Ek6dOHnBriO5Pw8PDeOXbrwDgVDEiIiKivWKAg4gAuElHv/Od76CtrQ2GYQBgR4soLMGysE1NTXj9L15HIpHg6A0iIiKifWCAg4gAuFNVHnzwQTz2+GNQSh10c4juC1655kcffdRPNEpEREREe8MABxEBcJ8oJxIJnDt3Dn2H+vwSlex0EZVP8HqSUqKjowMvvfwSWltbeZ0RERER7RMDHETkk1LizJkzeOKJJ6CUYoeLKCRCCCil8Mgjj/ijN4iIiIhofxjgIKI8pmniu9/9Lnp7e/N+zg4YUXl1d3fjrR+8hVgsdtBNISIiIqoLDHAQUR6tNXp7e/GjH/3ooJtCVLe01njrrbcwMDDAxKJEREREZcIABxHlEUJAa40Lr1zA448/7ufiIKL98a4tbyrYxdcvMscNERERURmx50JEW/r+W99Hc3MzAPeJMztiRHsTTCyaaEjgzTffBACO3iAiIiIqIwY4iGgTLwHiyMgIXnjxBUQiEb+DxiAH0e5414zWGoZh4KmnnsKZM2eYyJeIiIiozBjgIKKipJSIxWJ4/rnncejQIXbEiPbJMAx0dnTixRdeRGNTI6d/EREREZUZ766IaEtSSpw4eQJPn30apmn6HTIGO4hKUzjy6YlvPoFHHn2EwQ0iIiKiEPAOi4i2pbXGyy+/jNbWwJstQgAAIABJREFUViil/J8zyEG0veA1orVGIpHA63/xOvNuEBEREYWEAQ4i2pYQAr29vfj5z3+OaDQKgIkRiUrlXSumaeKnP/spBgYGDrhFRERERPWLAQ4i2pHWGs8+9ywef8ItG8vRG0SlEUJASomHHnoIFy5cYDUiIiIiohAxwEFEOxJCIBqN4oc//CGaW5ohhGBHjWgbwWuksakR3/v+9xCPx3nNEBEREYWIAQ4iKolSCv39/XjxxRdhGAbLxhJtIXhtGIaB559/HiMjI3k5bIiIiIio/BjgIKKSSCkRj8fx3HPPYWhoyH9CDTDIQVSMl7/mhRdeQHNzMyunEBEREYWMd1tEVDIhBIaGhnD27FlEo1F22IgKBEdvmKaJJ598EsPDw0zMS0RERFQB7J0Q0a7EYjFceOUC+vr62Gkj2oLWGi0tLXjjO28gFotxlBMRERFRBTDAQUS7orVGW1sb3v7J24hGo8zFQZQVTCwajUbxs5/9DF1dXQwEEhEREVUIAxxEtCteIOPs2bP41lPfOuDWEFUX7/p4+OGHce78ubyfEREREVG4GOAgoj0RQuD73/8+enp6IKVk2Vi6r3mjN6SU6OjswPe+/z0YhnHQzSIiIiK6rzDAQUR7orXG4OAgzp07d9BNIaoaSik8/dTTGBkZ4dQUIiIiogpjgIOI9kQIAcMw8PTZpzE8POw/rRZCcCQH3Te8811rDcMwMDAwgOeee46JRYmIiIgOAAMcRLRnUkoMDg7imWefQSQSYYeO7ltSSpiGWxb2+APHWUKZiIiI6ADwDoyI9sUwDJw7dw5DR4fyAhwMdlC9KzzfB4cGcfH1i4hEIgfYKiIiIqL7FwMcRLRvnZ2d+NGPfgSl1EE3hehAaK3x1ltvobu7m7k3iIiIiA4IAxxEtG9aazz55JM4/9J5GIbh5yTgKA6qV8FzW0qJp59+Gs88+wxz0BAREREdIAY4iGjfvA7dT97+Cbq6u/gEm+4LXhCvra0NP/jhDw66OURERET3PQY4iKgstNbo7unGxYsXEY/H/aAHn2ZTvQme25FIBBdeuYDBwUEG9oiIiIgOGAMcRFQWXqfvySefxLFjxxjYoLonhED/QD+eeuopmKbJc56IiIjogDHAQURlI6VEf38/nn/+eSQSCb9UJjt+VC+8c1lKiWg0imeeeQYjIyMsC0tERERUBXhHRkRlpbXG2WfO4ujw0byqKgxyUK0LnsNKKfQd6sP58+c5NYWIiIioSjDAQURl5SVdfOuttxCPxwGAHUCqG965HIlE8OMf/xhdXV0M3hERERFVCQY4iKjstNZ49NFH8eKLL0JKyQ4g1Q0hBKSUOPvMWXzrW99i8I6IiIioijDAQURlJ4SAaZr4y7/6S/8Jt1dSk6gWBc/h9vZ2/PSnP0UkEuE5TURERFRFGOAgolBordHQ0IBXX3sVkUgkL+EoO4VUK4Lnq5QSkUgEr776Kjo6OvJyzBARERHRwTMPugFEVJ+8ofzPPvssbn11Cx999BGUUhzSTzXJC3Q89NBDeP6F5xGLxQ66SURERERUQGj2NogoREopTE5M4r333sO9e/c4eoNqktYavb29eP7553Fk8AjLwhIRERFVIQY4iKgiHMeB4zgMcFBN0lpDSgnT5MBHIiIiomrFOzUiqggpJRONUs3SWsMwjINuBhERERFtgyM4iIiIiIiIiKjmcRIxEREREREREdU8BjiIiIiIiIiIqOYxwEFERERERERENY8BDiIiIiIiIiKqeQxwEBEREREREVHNY4CDiIiIiIiIiGoeAxxEREREREREVPMY4CAiIiIiIiKimscABxERERERERHVPAY4iIiIiIiIiKjmMcBBRERERERERDWPAQ4iIiIiIiIiqnkMcBARERERERFRzWOAg4iIiIiIiIhqHgMcRERERERERFTzGOAgIiIiIiIioprHAAcRERERERER1TwGOIiIiIiIiIio5jHAQUREREREREQ1jwEOIiIiIiIiIqp5DHAQERERERERUc1jgIOIiIiIiIiIah4DHERERERERERU8xjgICIiIiIiIqKaxwAHEREREREREdU8BjiIiIiIiIiIqOYxwEFERERERERENY8BDiIiIiIiIiKqeQxwEBEREREREVHNY4CDiIiIiIiIiGoeAxxEREREREREVPPMg24AERHR/UZrDSFE3r+3IoQo+vrgv+n+5Z0LwXOi2Pnk/d57LQD/9UopAICUfO5FRES1jQEOogO0Vaemmjou23W89mM32xhWG4op7CAEOwOVVMr+KXe7qum8C6qn7dRaw7ZtWJYFy7bhOI7770wGtuNAOQ6UUtBaQwOQQkAaBgzDgGkYME0TpmnCME1ETBPRaBSmWV0f5eU6XtV6PlYLbz9nMhlYluV/T6fTyFgZ2JYN27ahtIJycgEMaUhEzAjM7PkTjUYRiUYQjWT/PxLhvi9QzvegWty39XZNV8N9DRGFp7ruiojuM9X+YVgtT4kPog3BdVbDPiimWttVbrW8nRqAbVnY2NjA8soK1tbWsL6+DsuyoJRCKpXyO6e2bUMpVXR7hRCIRqP+92gsBkNKJOJxNDY1obm5GS3NzWhqavKf0h+EannPqGeZTAYrKytYWFjA+vo65ubnkEqmYNkWUqmUf0555xiATaN/pJSIRNygRiweQzweRyQSQSKeQEtLC9rb29He0Y7WllZEIpG8v+XxpVp2EA8siKiyhOaVTlQWWmusrq0inUrDffbqEhD+vwUEpJSwLMu/SXQcp+iy2tvb0dDQUJnGb2FpaQlrq6vuP4rc1Gqt4SgF7PJtRAiBjo4OvzO2nfn5eax6bQiR1w7TNCGEgFJOdrM0bNuBbVlF98Gm5UDAsu0iywcMaQDCPebbbbfWGtFoFIODg1s+nV9ZWcHExETZOhumaWJoaKjqRgMsLCxgfHyi6NB5IQAhJCwrAyllSTeu0WgMw8NHEY1Gw2iu3wFUSvnHaG5uDpZt+0/YLcuC1hqmaeZGa2S/tiKEQCQSQTKZ9PeFUgpSCESiUcRiMQBAU1MTenp60H/4cEnXVznZto3R0VEsLS9vHvmkNSAEBOC+/+2wLKU1Tp48ifb29jCbXDNs28bc3Bxu376NqakpJJNJWJaFVDqFTCYDADAMww9o7HQ+AfADYYXTVKLZ8ykajaKhoQH9h/sxPDyMjo4O/zq7n4IclmXjww8/wPr6RsF2axiGmQ0kOcAOZ7XWGm1tbXjyyW+G9v5TbpZl4erVq7hzZ3Rfx9x9rxZ48skn0dfXV8YW7o7WGh9//DHGxu4hGnVHKmXS6Vwjt/5DCCmhlHKvk8JLSwDQwIMPPYiTJ0/eV9cHUTWqrjtZohpmWzZWVlaRSiYRi8chpRvM8G46vRvOjY0NJOIJrK2tQUr3aazWCk52CHEymQKgoZSDRGIAQlR2TrR387q0tIS7o6NoaGjYcv5/MpWC1hqGYexq+bFYDGtra2hqatr2ZllrjcnJSUQikbygUJi89tiBDqmRPY6l/F0ymYRl24jF4ps6GFpppDNpABpNTU3+3wH5T1gdx0FzczNWVlbQ0dFRdH2Tk5NIpVLY2NjY17x577yMRCLQWmNkZKRqbs5SqRSuXLkKYOugUDKZBIC8p8zFBI9rV1cnOjs7y95epRQyloWpyUncGR3F4uIiTNOEnZ2KUtgey7J2tXzbtiGEyFuWApBOp5FOp6G1RjKZxNz8PK5evYqe7m4MHzuGvt5ed2pCiPkVtNZYW1vDxOQk5ufntzxWyrZhGsaOwUIBIB6Loa2trWrOx0rx3hO01kilUrh58yauX7+OhYUFGIaRN9LHMA3EYjF/BNBu11P4HiWEQCaT8YMmS0tLmJ6exp/+/Cf09vbiwTMPYmhoCPF4/L7J1/H555fx5z9/VDRglMlk4DhOSftCaw2lFLq7u3DixIkwmlp2q6ureP/9DzA1NeUHwPbC+4xxHIXvfe/NMrawdEopfPjhn/Cb3/wG6XTa/zxwHBvRHT4/hBBIp9NQSkMEAln+w6vse1Q6k8bRo0cRi8Xuu/ctomrCAAdRmWit4QQ6xd4Nj5QSEIGhvRpYW1uD4zhIp93XezerWmsoJztEXQvs9EQorO1YXlrC6OgoAPcGp1heCgAQ2dEowaeGhQo/5I1sPoHW1tYdbwC8G0Jvf221jt3aab1SSijHgaOUu31SIpVKbWpbsWUKABEzgvX19W2Xn8oGh4Jf/jICT1W3CgD19/fj0qVL/miAYm0qhbdsL1jS3d2N1tbWXS+n3JRSmJychG3bfucd2HwOyuxTtY2Njbzfe4L7zjAM9PT0+MGlctBaw3EcrK+vY3JqCvfu3cPa2hoAbAps7OvcFcIPsm13zL3fSSkxOzeHe+Pj6OrqwtGhIfT09KC5uTm0jqnW2s3/kH1PyzXdPZ8dy3IDh9lg5VbvFwK5/Xq/jRbwcrTMz89jdHQUN27c8N9LnGB+Fu/L0jAj5r46n4XrD3Icxz8OMzMzmJ2dRWtrK06cOIHho8NoaWnxR73VI8uycOnSJWQymU37xnvvSafTMAwJYOt8TcH3qz//+SOMjIzs6sHAQfECqt727+czxjt3D4JSCteuXcN7772HjY0Nvx1KKUQiURimAa1U3nYWntORSDTvbwF32wzDgGG69zRnz55FPB6v6LYR0WYMcBCVi3CfInsf4t4NvGEY/r+9BG8qGwzRSkEhe1Pr5J6+ucPNi3/IhklrjbXVVUxNTfnD7L2fF74uOCVgu5uWYIdUSoloNIpDhw4hkUjs2J5gh7+cN0aFNyjecfKGn3pPQr0OhVLKvRnNBlx2Wia08kedFGu3t1z3qbqAEBJaO3n7c6eb36amJgwODuLOnTuwbXvP+6dwnaOjozh16tSBD6FeW1vH1NR09qnZ5n3utdtxHH+URLF94P1MSolEIoH+/sP+dI69Cu6zxcVFjE9MYGZmBisrK/5TwcLX7pdWCk72eynXm9Y67yn85ZUVtLa2oq+3FwMDAyUFGPfCe98I7ndojUw6XdJ+0dmpLKZp7jiVq14ERxdNTEzg9u3buHfvHlZWVvwgr/e6YvvNNExYovh7TTna5vFGEC0uLuLDDz/EzZs3MXhkEMeOHUNPTw+klHV1vLTWuHnzJubnFzZ1zr3PDW9koVIam+ct5C/L+3737l3cvXsXw8PDYW9CWXiHdK9BtIMMUnr7/datW/j1r3+N+fn5TdvhTRuMRCIwIxFo78FG9ph7+WoKc9qYpuk+vALQ0NSEt956q2aOKVG9Y4CDKCTBDhiQf0Pk3SgKIaC0hg6M4MhLblnhNieTSczMzMCyrKK5QYK2SoZYTLA04W47V2EFOQpHSxSORJHB+bbZ10khdmyHm7ZDZ6coGXCc4sPGc0+oZfYpkJmdx537/U76+vqwsLCA5eXlXQ9PL8a2bayurmJ+fh6HDh3a9/L2SimFqakprK6u7rgfvONoGIb/pLkYwzDQ1dWF7u7ufbdPCIFUOo2bX36JyakpbGxs+OdKmE8oveldxXK8FHutxzs35ufnsbi4iOnpaRw6dAjDw8MlBRr3yhuNkc5k4Ozy/BRCQKO2E8yWwjtOS0tLuHTpEiYnJ7GwsOC//wRfsxXLshCNRouOMgijvV7gaX5+HsvLy7h95zaGjw7j0UcfRWNjY6jrrxQvQHj58udF96k3VWi3+9sbofP+++9jaGjovpnmcxC8Y3Pnzij+6Z/+BxYWFrZ9vTvy1v0sbmhoQDovKOtO3fICG0K4uba01mjvaMdPfvxjnDhx4r4bcUZUrRjgIKqQYMc4+ATBMAz/Zrbcnfjd0Eph7O7dovkCtuN1LLdddnabHnjgAbS1te2rnfsVDGwA8OezAwWlYZXK2y7HcSBKHFKstYYAYBgCO+1K77g7juOXZ1TK2dTOYmKxGPr6+vxpRPs9d7yb+rm5ObS2th5YkttUKoU7d+6UdB7mOlwSWhfvRAshEIvFMDh4ZMdcHaWYmJjApU8/hdZuzotKXbdaa1jZ4Ohe1ucFYObm57G4tIR74+N44vHHQ8lHArglbtOp1K7eT4LquZsQfK/5+uuv8d5772F9fd0/RqXuM29UR6WH/3vrtSwLi4uLWF9fx5c3v8T5c+dx9OjRuujojY+PY3FxcdPIGT/fgpeccpccx8Hdu2MYG7uHoaHBsrSVihsfn8A//MM/+NMGdxr95jgaSrkjOmKxGAzTRCadhmm692mRaATpdNp/H25qasIbb7yBBx54oC7OeaJ6wdAxUQV4T2m8Jz7BD0GllPskAG5OC2kYUNlh2pWSyWRw69YtP7FmuUdKxONxDA0Nob29PS+/RCUV5rXwtjU4pz34OrvIaABHq10Nwy4lOanXHiCXs0FKw7953ulYdHR0oLOzs2zzuZVSWFhYwNzcXNnm9e+G4zi4cuXqpqkOO/GS+hYSwk3ke/jw4X0H19bW1nD588/x6WefIZVK+QlOK9Wx9AIbkX3kPPA6w7ZtY2VlBb/793/H1atXN80t3zNvOp4QsLIJGPe+qPot8qa1xsrKCt555x388pe/9PMM7eWaU0rBkMaB5HTw3jszmQzW19fxu3//Hf74/h+xtLRU8baUk23buHXra6ytrW0KbkQiEf9p/l45joMvvri2r+uDtqaUwsTEBP75n/+Hn8Mm+BlvGAZM0/QfMHk/N00TpmkiEom4Dz8cjURDAzK2DS2A9Y0NZLI51hoaGvDqq6/ikYcfZnCDqMpwBAdRyLxOiTest1g1BSD3dNXLVVEpqVQKM9NuroPdVnUIJuMq1hnxghtdXV3o6uoqV5NLVnjD4R2H7UbLuKM3dNEpH1pp2HBgGAbENvk4vHUBgGHIkjvqXufTzc8RQyn9u1gshp6eHiwuLpZlmorXhomJCb+UbyVNTExgaWlpT+diMC9M8NjH43EcO7b3udFaa0zPzODmzZuYnZ09uGR52cDnVrkYdrco7SdDvvHll1hcWsIDx4+ju7t77+8/QgDZ4MZeqnpsXlx9dhhs28adO3fwxRdf4N69e/segeEFbA9yf3ltTyaTuHz5MibGJ/DYY4/h2LFjAGrrWPq5dcbvbZr25o2w2+37U+HyLcvC6OhdzM3Noaenp6b2TzXzjtXC/AJ+9atfYXZ2DpGICa0B27ZgWW4VJyklZPa91LZttwy8uwD/IYajFKxMBrYVQcax/JxG3r3DuRdfxNmnn67rJLtEtYoBDqIQ+dUDsjdJXsK9rTrXwZ9p7RYgC/Nj08pkMD83h7W1Nf/Deze8DqUBbOrMeNMC2tra0N3dXdGni4V5O4L5EYLJ3rb6O8veusqDF9QwSuwEGlLCkbsLcvgJzLZJWhd8fXt7O1pbW/0nqfvt/HqVAcbHx3Hy5Ml9LWs31tfXMT4+safpWl5g0E0IK+E4CjqbqPf48RHEYrFdP2Xzzp3R0VGM3r2LhYWFsgQX9kplrzVpGJCB/DD7Wmb2WE9NTWFlZQVnTp/G0aNH97YwrWFlMn5C0XoegbEfX3zxBa5fv54XlCxHwOqgO1neNmQyGdy5cwdra2tYW1vDmTNnyjI1rBK8a358fBxzc/ObghtSSn/k1n4tLi7i7t0xPy/QQR+/3Qn77mTvMpkM/uVf/gU3btyAo1ReVSbHceDYdl6AKhhgLBYozGQysHUulxoAnDt3DufOnWM5WKIqxSkqRCEJdri8myTHcaBRWjbysDsHSinMzMxgcXFxz3OJt7upjsfjSCQSOHKkPHkPSuHt82BgKZ1O55VX3EkpT1O11lBewGqHZWmtEQ1x+71gyMjIiN9Z2u8Nl3ejNz09jcXFxXI0s6R1jo2NYW1tbddPs93jofzjkUqnYdluMt9Dhw6hp6dnT8ENx3Hw5c2bfmf0IMscFip3O7wpK59+9hkuX7685zapQFlRyqeUwnvvvYfPP/8cq6urZZ+eYEjjwJNWaqXh2O7xn5+fx7vvvouPPvqopgJe6XQa16/f2HS9u5V97LIEFr1g9Ndff41kMlkT+8ZLGuy+j4pNwZ/gV+HPvfffMGMB3mf3f/u//huuXr2KZDKJdCqFVCrlJwz1XuMHOwLTwraaPquhEc9W3hJC4OzZs/jOG28gkUgwuEFUpTiCgyhETuBmX2bzMXg/O+h2TU9PY2FhYV/DyIPTazzeHOVYLIbjx49X7AbAG01SOGJjNyMBpJBIZ3YO9njr0YEg1g5/sWOVj/1qaGjAyMgIRkdH9zQap5C3H2/fvo3m5ubsiJJwuEPCl7CwsLhlad2t+KN1IJBKJd3pPXArcMTiMQxmA2y7PQ9t28YX16/jq6++8vfFQfPykng5LpwynkvetZJKpfD17dtwlMLpU6d2/YTSq35COVq7yWg/+ugjjI6O+mUpyzGlLG89B7znveCK9z7nOA5SqRTef/99WJaFp556at8lmsPkXQP37t3D2NhY3ue0d+1ZVnmOmfe5dOfOHczOzu591FQFBfNP+Z+z2s3/Ig3DHc8hAOUo2JYFaUjEotFA4DkF5eQSepfz3kBrjVQqhV/+z1/ixo0bJQX7d/qcCY4ETTQ0wLJtPPjgg7h48SKi0SiDG0RVjAEOohB4H3zBDq33VPygO0pecGMum0tgvwqTbhqGgYaGBgwODvpBhzBvBAoDG3sNIkgpdzXSw9t33vZv9Tfe9kciZuiBrUOHDmFubm7XlXC24jgONjY2MDk5iYGBgVCOo3fcJicnsbKysuvghpcQ1rat7BQwwHZsxONx9Hb3oKOjY9ft3tjYwLUvvsDo6GhVPlkVQkAaBpwyv5d425pOpzE6OgrHcfDgmTOhlpK9H6yvr+Pjjz/GnTt3/KfImX3kcChGKQWpZIkB1/Lzr0Ur/zPOC3R88MEHSKVSeOaZZyqe16dUXhDjk08ubfqdYRgllU8vVXA6z+XLn1dt5Rnv/dm2bRiGhCHdboMG4GgNO2PBkTZMw4SQ2Smhjvt6lVZIJVP+dhmGAXuLsun7lUql8M477+DjTz7eFCQvx3u44zgYOXYMf/H66+js6Nj38ogoXJyiQlRmxYIbAA586DDg3gTPzs5iPlshoyydt+zTZMDdxng8jv7+fsTj8eyvy3PDFkwe6U1F8W7mbdv2v/aTqM9RuwuO+AlBvadX27xOKxX6VJ1IJIKBgQFEA0/N9suyLMzNzfmZ6MvJu/FdXFzE1NRUyeekEAJCCkAgOxXFyo3WQe48OTp8FNFodFftSSaT+Pzzz3Hnzp3cSJ0qC3J4bQqrM6S1Rjqdxti9e/j0s89qanpBtfCOkWVZ+PDDD3H79m1YlgUhpTslMIT96SYnLr3KU7l5yWWDgufq5cuX8fvf/35TZZJqMjY2hvHx8bzPby+AvZ/EosV4wYNr165hfn6+6oIbQDbo47ifc+lUGhsbG1hfX8f6+rpfAtq2bKTTaaSSKaRTaT/AEBwB4S+vzHk7vGP07rvv4t133sX62vqmANt+SSnR2dGJH/zwB+jv79/38ogofAff4yKqI4Zh5CUVDaqG+fuLi4vlDW4AcGwbyp9fKzA4OIjGxsZQbtaCI0K85IjeqJj9PLX0lruXZXhPKGX22G+7HgGYISZb1Vqjra0NLS0tZZsn7jgOFhYWMDMzU/bz19tfX355s+Qno8EqQ16ljrx2abeyzJEjR9DZ2bmr9njTUu6Nj7uLqtJOmFfiMKygqXctpFMpTE1N4Y/vv3/g0+pqkVIKv/71rzE+Pg7LsmAYBpIbG6GPsAieF4W5EbbKM7Af3tN5y9o6EOYFOm7cuOFPWTno0YyFtNb45JNLm6ZcRqPR0IJ83sjODz/8k//vauK9F0ghEIvG/Ol+wSmgwWkrlSaEwLvvvotf/+rXWF1dzQus7LU9wW0yDANt7W34+7//X9B/uL/qjg8RFccAB1GZaK39xHGFT329wMdBPaHx2jY5OZmXVKtcpHDLwY6MjKCpqansc2uDNy1SSn/++m4rbRSTG3GztyCJn5QUpcz3La2DsZ8bs2g0it7eXjQ3N5ftOEgpMTs7i1QqVZblBY2OjmJjY6Ok3BtecMOyLaRSqU3Hy8tPYRgGTp0+VXIbvHNs9O5djN654/+sWgUT5IXJG8mxuLiIL65fr+p9Um0cx8Gf/vQnzM3NIZPJ+O9bYe5DpRQEcqPbgFzwwftZcIRH4b/3+35hZbYf4eBdZ1euXMGVK1fK8v5dLlprTE9P4969e5uCGY7jlCWv0VZs28a1a9ewtLQU2jr2Q8MdvZJMJWFZFiKRCBoaGvLy81R6eo0XGPr444/x3/+f/+4nSi9HcMP7eyklWlpa8Pbbb6O1tdX/fCGi6sccHERlVixxnD/UvcJt8W46VldXMXb3LhBCskQpJaLRKLp7etDe3l7WG9ZgElPviZHjOGW/MdYacBx7TzdH3t/Ytg3TNHdom4ZpGlCB7ShcXzmehnV2dmJmZgapVKosTx6VUkgmkxgdHcWJEyfKNnJgbW0Nd++OlRSsklJCQyOdSW95DiulEI1E8PAjDyMajZZ80y2EwPjEBL788suSqxyVU7DKgPfvQoXDrk3T9HPOhM227Zop83nQvPeoGzdu4Pbt23kVqsIYBeCdO14ZbiEEmhub0djU6L83RyNRGKYBaMBRbmc9k864SUDTKaysrPjvR975tJt2+vmL9M7XjddJ/OCDD9DS0oLjx4/vbcPLTCmFGzdu5AUyvITZGxsboa3Xu+4ty8IXX3yBp556quo60VLk8kx5gVUvOBaLxfyHOt77Udjt99px5coV/OIXv9j0Pr+Xa6zw74UQaGxsxKuvvYpjx44BqI5pxkRUGgY4iMooFosVnV/s/VsfQMdpZWUF09PTSGcy+UOUvTbt44ZbCIFEIoHOri50ZBNvlfvmpljy0P202RtNE5zq4g0fL0cgQMAtJ7hTZ327QIbW2u9Q7mV/GoaBo0ePYmVltSwjXbxjsLCwgLm5OfT09Ox5WR7HcXD37l0kk8kdO+mmacLx7MRrAAAgAElEQVSyrZKegPf29eHQoUMASt93s7Oz+OzTT2FVMAlwMJgRfJLuPe0PBsu8TkMw70xhfoCw2iiEwMixYzg2PBzKOuqJdxwmJydx+fJlv2Psjd4o57nlnT+macKyLHR2dqKvrw/d3d1obW1FIpFANBpFJBJxR3AY2WTMyj2fbNvNm5BMJbG8vIz5+XmMj49jeXnZn/ZXcj4cIZBOpUs+Dx3HQTKZxB/+8AfE43EMDAzsa1/sl9Yay8vLuHdvPO89xjAMZDKZigQRLSuDr766hdOnT6O1tbVqghze+05h8Mp76GDbtlshTrrT5iKRyK7On93ylnnr1i386y//FctLy0V/v5/le/v+pZdfwmOPPRZqBTEiCgevWqIy2u7D9SBuWDY2NjA7O4v19XW3bVoD2acQ/tOI7BO1vdx8JxIJtLS2or29PZTt+//Ze9PmOI40z/PvHhF5IJEAEon7IgCSICleVRJF3SqpShIldVWpq1/11E5Pm82+mH05+yX6I+x0m+3s2MxYm1V3Ve30alulVm3VVEuiWCVSlMRDvECAB+47AeQRt++LSA9EJjKBPCIPkP4zg4mAMiM8PDw8/Hn8ef5Ppe3aC+9ihR/fr9BTHtYqZY3QgsdkDIFAAKpmgLFCn2HZiBKrquoVra2t6O/vx9TUfUiS5PZjpQtA27ahqiru37+Pjo6OssQ7C7G5uYn19Y09jQe+uNZ0bd/qOJRSRCIRjI4ecnezSyGVSuH6tetIJVOQs8Yg76taODv4/eb9Z9s22qJRxONxtLW3IxgIIBAI7DjiANiW5ZYWTafTWN/YcMPZZVlGOp32xfmX305JkjA+NoZTp06JRX4J8Pnkq6++QiaTyTGW/Ize8Do3enp6cOrUKVdcmI8bm9muoKM7xxAA1PleIBhAOBxGjMQw0D8A0zShqioWlxZx/fp1rGSrbO373BEKyyy/chV3mH722Wf48Y9/jLa2tor6wi/m5+extLTkXgfXZfK7lG8hnAhPx9H6+PFjnDlzpubnLBXHuW2BIDumikSXcScsj3oJBAKuI82veZTfm42NDfzyH3+JtbU1X47rPT5/57z3/nt47bXXROSaQHBAESsWgaCGMDj6FN7Q33qhaRoWFxeRSqV2wo7hRJFQSt2dl/ywy1J2hAkhCAaDTinO3t66OG+qNQ4URUEsFsORI0eemlDTkZFhrKysIJlMglIp63SpvC95qtXc3BxGR0cruu/caJifn9+zmgKVnJKvPCWllDbH43HEYrGS22KaJqbuTyGZTDrPqGmCAJAUGfA8B34YpnzxH8g6MDo6OtDf14euri60tLSUfTzLspBIJLCwuIiFhQWoquoa1X4YFLIsY3BgACdPnhTOjRLg/X7x4kU35QNwogCSyaRv56GUQlEURKNRPPvsszh8+HDB+0PJ3nMcQbYSURZZlhGNRhGNRnH0yFHcv38fV7++ikQiAV3XCz4DhDiVjCpx3nBjcmVlBTdu3MALL7zgOmfqCWMMuq5jamo65zoJIb6V2y4F23Z0siYn7+PIkSMIh8PNEcXBGGzGoAQU6NruCjn5aXW8P3kUInfkckdRNYm6jDGsrq7iP/0f/wmbm5u+VEvJ1xAJBoN4+ZWX8c477zSNPoxAICgfsWoRCGqMV+ytXi9MVVUxPz/vip7m493N5ykMEqXu0sO7rMpvMyEEsiwj3NKC4ZGRui3Cqu0/nk7TFIvGOkEpxdDQIO7dm4RhGNk0CApCKq8Yo2kaVldX0dnZifb29rKPQQjB2to6lpdXijouCHVKExrm/mH93HHQ3t6OQ4cOlWWMryyvYH5+PtdAIwSGbkCSnEgcALCzxmslY9Dr2IjFYujp7kZfXx9aW1uLOtr20w7hmgvxeBydnZ2YOHoUq2trmJ+bQyKRwNr6uvu5Sp4ZWZbR3d2NEydOuOWeBfszPT2N+/fvu7vZsiwjk8n4Kobc3t6O8fFxnDp1yteoh3xD7/Dhw+jr78P169cxeW8SqUyqcKQGqzzSiTHmak/09/djrAFpUIQQrK+v42FWXBhw5p9GbEoQQjAzM4OVlVWMjAzX9dxFya4NZFmGZZqwrNx77XUI5X6NuKXbecod16mqBMYYFhcX8atf/gqbm5s596Za5wYAV0/k+eefx49+9KO6i6YKBAJ/EQ4OgaCGEGSNDNuum/6GpmlYWFjI2UUshneH2sq2z9XpcH4B84h68v8XiUQwMDBwoBYAzaTYXy8IIYjH44jH17G4uOgYXgCoJIFSCU46THlGsG3bSKfTWF1dRWtra1npINyhNj09DcPYXXGBjy/LtsqqOCHLMnq6uxHr6Ci5HZZlYXp6Gum8sp38nJZlA5bt6BcQAipJAClcAroYPFy7va0Nw8PD6OnpQTQa3XfxvN9zla/fEggEMNDfj57ubqyvr+PxzAwWFhaQyWTKzoVXFAWRSAQnTpxAR4n9+bTDNRwmJydzdI780m/g+izxeBzPPvtsTYU5vWOvNdKKc8+dQ093D77+5musrq7mjH/uBKgmYsi2bSQSCVy7dg0jIyN1jeLgz+GNGzfdqkyOs1+CYRp1d3DYto3t7W1MTU3h0KGRpjGyCSGwLQuKosCytJy/50e5FUth4dpClfbpxsYGfvvb32JmZsaXCDVvO3layvHjx/HmD99ENBqt+vgCgaCxPB1x2gJBg+AvUSpJIHVIizAMA/Pz80gkEmUvJLihyzUprKxhlF9ysCUSQW9fHxRFaYrFVyU8TY6OYDDoRgwAcCu48JDh/FKRpWBZFhYWFsoOvSeE4OHDh0in07scBa7IpqEXDYkvdDxJkhAMBnH06NGSUo+40TAzM4P19fV9F8tuSVbTAmwGOVtycz8HBY/aGBsbw7lz5zA+Pu7eA7+eG34ejiRJ6O7uxtmzZ3Hu3DnEYjEEAoGSzydJEiRJwvPnzqG7q+upek6qwbZt3Lt3D8vLyzlaBH4YyHyM9/f3480338T4+Piu+14LvFox4+PjePfddzE0NOQ+Y3ze8KP0LWMMMzMzuHv3bl0d0YQQJBIJ3Lx5050HuHN/v5K3tcK2bdy4cR2apjXN+5U7hHkE4H6fLZbORAhBJRkqhmHgo48+wq3vbu0S6/VjrFBK0d/fj59+8FNXLF0gEBxshINDIKgh/GVfzq5vpeexLAuLi4tIJBK+LDjd6iW2DZsxSLLs7BQPDKClpaVpFl+C/YnHO9Ha2ppTmcOJprBgmhYA4u5ilQIfG7Ozs2WNtc3NLTx48BCapuXs+EmSBJvZrphoqXBnxTPPPFOy6CkhBKqq4rub3xWMIil2Hv6MWaYFiVIoslzQ0eF1ujz77LM4c/o0Wltb62aUEkKgyDL6envx5htvYGhoCMFgcN/z83a/+MIL6Orqqkt7nwQYY9jY2MD8/HzOPO+HfgMP7e/s7MQ777yD7u7usiKm/IIQgrZoG9760VsYGx1zoyws0/LFicNTVS5evFhXw54xhuvXr+fMRYGAgnRWy6beOPOME8XxzTffun9rNAw7a4xAUCmpTXzOrFbHyDRN/PrXv8a333zrOr7zI9jKxetEkyQJHR0d+A//238Qzg2B4AlCODgEghriGm81KpkG7CwklpaWsO7Jvffz2IwxhEIhDA4NIRKJ+HJsQf2glGJsbHTXbj53VDgaFI7wYCnRHNwgWVpawtLSUkltME0Tjx8/zjGc+blMy4Su62WHHkuShN6eHvT19pb8HcYYpu5PuddezrPCv2PoBkzDhESc8ojc4OMpKV1dXXjl5ZcxODDQUANFlmWcf/55nDlzBpFIpKjTgovrnT51Cr29vU1hVB0UGGN49OgR1tbWYGcFnAFA1/V9vrk3/F719/fjxz/+cUVCtH7Bx0xLSwtefPFFjI2OgVJa9TV6sW0bmUwG33zzTd3GXyKRwN27d11HJ7+mepWKLoxjfF+5csXVb2k0BDuaGjyCrR6kUin88z//My5/ebmgkG25Tljv5/m/u7q78G//6t+6aSnN0N8CgaB6hINDIKgxtdbeYIxhYWHBXWD7vTiUJAktLS3o7+9veCk/QeW0trZicHCw4AKOa2OYtu04OkqI5uDpSzMzM8hkMvt8FlhbW8f6+rob0s7LMJaTkuKFUopwOIyRkZGyIk+2t7exuLhYtXFm27YTLm1ZIAxQJBkEBD09PTh75gw6OzsbGgXhPe/o6CieffZZdHR07IoA4M6No0eOYHR0tOx0paeddDqN6elpADsObU3T9vnW3vAd5r6+PrzyyituuehmuC+dnZ04f/68m27lJ6ZpYnJyEpubmzV3cjDGcPfuPSSTKQA7Bq+m+ee0qbRdlmW7zpdmcjbyCimKUloURzWk02l8+umnuHL5CiRJcqMPC1HpcxGLxfD+++9jZGSkquMIBILmQzg4BIIawRdMdtaY8xu+wFheXsbm5qZbb97PhYckSW4pWCG8dfAZGRlGe3t7USV7O6vNYZoWGENOZEIhLMtCJpPB3Nxc0XHnRHvoWFxchKqqOSkpulGZCCN3wAz097vpFCV9DwRLi0sViW8Ww7ZtJz+dUPT29OB7Z8823bNCCUF/Xx+ee/ZZBINB9/5znZCR4WFMTEyUnOYj2GF6etotxS1J0i7R2kqJx+M4d+5cwx1lhejq6sKFdy4gFAr5JgrKIwW3t7fx6NGjml4vYwzJZBIPHjxwIza4KGyzOBQsy8KNGzegqmrTtIk73ijNjYTwE+5sv/TFJXz6r58imUzCMAzXEVusEppX3LdY2720tLTg3ffedctgN9PzJRAIqkc4OASCWlLDlyYhBBsbG0gkEq4CvN/HDwaDiMVioprCEwAvLToyMryvOj9fZBqGuacBw1NVNjc3kUgkCn6GEKcsLC/HSimFaZnQNK2qMdve3o6BgQFIZZQdTGfSWFtbq3qH3QshTjlQJaDghRdfcHfbmwnuEIrH4/jB66+7YqKBQACdnZ147rnnmsK54c2tJ4RUokdYVyzLwu3bt3fGdYEw+nLh5SonJibKik6qJ4wx9PT04PXXX/dVX4oxhlQq5UaF1cqwJ4Rgfn7BTel0ng9SldNzPwO7HPj4TyQ2MT8/X/Xx/MJN6wMgK4r7dz+dA4QQ3L59Gx9//LE7T/MqLKqqQtd1hEIhhMNhyLJcUNR0P0eHLMu48O4FvPDCC1A81yEQCJ4cmu/NKRA8ITDmlIettoxeMba3t7GyslKTHR5KKRRFQWtrK3p6enw9dqOotdBrs8MXfB0dHejr6ytZrFDTDDAGUFo8mmNrawtLS0tuZRaOE9Js4OHDB5CzopyqppYs7lnsOmRZRndXF2KxGMpZWm8mNrGZ2Kz43MXaEwwGcf6F8zmREc1Ke3s7XnzxRXR0dKC3txcvnD/f6Ca5UEpBJQmyokDVNEiS1NTP7OzsLNLptPt7tRVF+PPV3d2NM2fONO218538o0eP4nvf+15ZlXpKOfbqyioSG4UdptXCGIOmaZiensLW1parm6Lr1ZWFlSQJ8XjcN4OZMYZEIoGpqWlfHGd+4EalWo7Qsp/zHBcxvXnzJv77f/vvu8oR83PxqEFVVd00xUAg4Fb18faT1+nEnUYtLS14++238cYbb/jWdoFA0HwIB4dAUCP4rmktjJ2trS0sLi76Fg7thbe5vb0d/f39TW2slQMv9/m0EwwG0dPTjVAoVJKYKMDcihCOPgfN2VXmO2jr6+vY2NjwfM9henoaW1vbMLJaG9U6miRJQjgcxtjYWMnf4Yvn9Y11ZFT/doYJIQiFQpg4NoGOjo6mf1b4Qr+3txfnnnsOZ06fRigUapjxxNOVJEmCJMs51Rp4CdJm7VPLsvDgwQPXsKq2ago3xKLRKF599VVfnQa1gI/906dP+zr2GWPY3NrE/MJ8TcalExmRcAWPKaWghFTsdCXEeWcODw/jz//8Axw5ciQb9VZ9W23bxuPHj7C5udlUY8FxChHA416upn38HXLr1i386le/KslRyPVAVFUFAFenIxAIuJEdXiilCLeE8dJLL+GHP/phxW0VCAQHA+HgEAhqSC2iBrhzI5lM+np8brQyxtDZ2YnBwcGiWg0HDUIIwCAcHFni8Tg6OjrK2m20bdvVm7BtBknaiVbgIcRzc3Pu33j5zJmZx9ANHZquw7KrNwAZYzhx4kTRXOxi3zVNE6urqwVDmqtpT6wzVlS8tRkhhECiFJ2dnYhGo3XTd+DnkbJVGILBIAilYACsrGCrYRhZDRiz6XQn8kkmk0gkEu5zkR+9VAmMMZw+fRpdXV0+tLA+9PT04MiRI745ZLjhOjc7V7NqJvfv38fW1rabtpepIgqSj+lz557D8PAwzp4960tfBAIKJEnCwsICHjx4AKDxJWO95zctC4Fg9Wlt/JjT09P4+DcfYzOxueu+71dy1jAM6LruiD7btqsdxtPuGGOQZRmnT53GG2++IdJSBIKnAOHgEAhqgHch72cOdSqVwuLiIra3t6te/HkjTAghoNlw8Gg0WlYKw0GBSv7ei4OMJEk4dGik7EoiPAfbyoqRypLsjiHLsrC1tYWFhQUAjjNpamoayVSq6tB9fm5ZljEwMFBR+dVMJoON9Q1XUNAPWltbMXpotKRomKcRb4g41/yglMIGkM5kcpwaXP+g0UZcKfCIJV3XQQjxRS9CkiT09fXh2LFjPrWyPkiShGeeeabgrnmlMMbweObxvtWZKsGyLFy7dh2m6egL8bFXCYQ4EW2xWAwnTpwAABw9eiQb0VJZ9KYsSwiFgjAMA+l0Crqu4+uvv66ofbXEtqyqozh42sj29jZ+/atfY2lxKWcTotB84HVyeP/Nnd+WZUFVVWiaBsYYIpEIgsEg+vv78ec/+3O0traKuVogeAoQq32BoAZwQ5D/+HG8TCaD+fl5JJPJio/jOjOyhr5391HXNEQiEQwMDDSF4KBfeIULhYNjh9bWVhw5cgTBYLCi7zslXg3YNnMX86ZpYnp6GsvLK7h2/ToWl5d8ay+lFAFFwXg2NaXcRerS0pI73v0wxCRJQkukBb19vVUf64kiGyHCQ8YppZBkGZquI53JQNU0WFlNgf0cGs3s7FhbW0MymXQrA1UD//7o6CgCgUBTX3chOjs78cwzz/i2M87nkpmZGQD+jAN+jGvXruW8Q6vTsHIcd6+99qqrFyNJEl566UV3g6DUsSHLUrb/CFKplOt8tm0bc3NzuHv3rmvENwuWZSFYRRQHIQRrq2v4L//Xf8Hi4iJMy8x5X5dCoc/xftJ1HalUCoODg/j3/+u/b0oBaIFAUBvEal8gqAHckK5m4et90ZumiYWFhbKcG94ybt5IEr4Dr+s6DNN0F1KRSASDg4OIRCIVt7kZ4SkUtRJ7PagwxjA8POSq0Vey+8Z3zCzLdHfRVFXFt9euYW5uDqYPkRscSZLQPzBQdglW3s6N9Q3fygHyiITx8fEnLtKpGrhhiuwzZxgGdMNwjchSIzS4g7jZDDqOpmnY3NzKVhqqfoxTStHR0YHBwcGa6TbVmlOnTkFRFN/SVCzLwuzsnA8tc3Dnpm+vuY6IatKK+Hs1Fovh+PHj7t8AYGJiAh0d7SU51CmlbiqoYehQ1cIlrC9duuSmbjULlmlCkisvE7y4uIhf/vKXePToUc67uZLnKX9u4W0aGRnBz/7iZ24luGbqP4FAUDuEg0MgqAHlLOYL4Q3tNk0Tjx49wvb29r7H9H6PL5R3Sn7uhIPruu4somwbsiwjFAphZGQEbW1tlV5yU+LtQ26AC3YIBAIYGxvbsxTsfjjGqPNjGCZUTYOqZnxV/qeUoqWlBQP9/WVHF3n1N6qp3uJFlmW0tLSgt1dEb3jh99swDBimCbOIRtB+44IQAtOymtLBsbMznPRlPPHnLhaLIRaLVX28RsAYQzwe91W3iTGG9bU134x6xhimp6exubnpOhCqd045mineqBvGGMLhMM6ePbuPQ51AURRQSmCajhOwWHts28bMzAwePHjQ8Och//yWaeZE7ux3r7jTZ3V1Fb/56De4d++eb9pY3nMTQjA0NISf/PQnGBoaKqltAoHgyUE4OASCGsAzUyuJGOC7V7ruVJ2YmZmBpmlFBUX5brLXseHunmaPwRX+86MYKKUIBAI4dOgQWltbq7ji5iTfuSEWODvsGFYd6O7urrhv+JgzLRMZNQMCuDukfkVLBINB9Pb2Viy+mE6nXePBr3D3oaGhJ0aE1y+KiQBWchw5u8PejM/s1tYWEgl/ypjy8d3T03OgtVwIITh+/Lhvxqpt25ibn8spw1sNpmni7t270HW9au0NAKCUoLMzjqNHj+Q4z/l/jx8/jng8DkpJTkUV531NEQoF93VsADvPkmmauHr1asXtrRWWZUGSSo86WlldQSqVwieffILr16/vGi/VbAp5/93e3o733n/PU9XmYD5XAoGgMsTqTCCoBWSn7nolL2zTNJFMJnHnzp0cI53D6717DQruAOELBn7uYufnzo3+/n60tbU9cREO/Fr44tG2bWxvbyOVSjWlFgcvcVdvFEVBb28PEokEUqlUyePVcRgBICTrgDMBEBBK3TKfkiRVrUPDq34cHh+v+BgbGxv+RgMwiOiNIvgxh1BKoWmar4KwfsDn15mZGWxvbwNA1eOKOwMP8nji96ivrw+RSMSdR6rpF+64X19frzqykDGGhYUFrK2tu1pMpll59I1zuQSjo4fQ0dGx691p2zai0SgOHz6Mr79OwLadcttSVuiaMSCZ3Hbbth98/pydncXs7CyGhoYa+lx4r9eZ3x0BaB7RVOyZsCwLt2/dxt/8zd9ge2vb/Vy5uhv55OtsRSIRvPveuzh9+nRFxxMIBAcf4eAQCHzG69ioZoGXrybuXdAwxmDZNuBxaOTnrO+XysIX1V1dXU1lRPgFr+zB4WkKyWSyqULfeWRJS0sLzpw505A2dHR0oKOjA5qmlRR2z9XznVQE7+7jTti3aZqu5gWPKioXQpww7pMnT1YkEMfbtbm56e7aVmt0ybKMjlgHQuHQE+cUbAb43ORH2VW/4WM5Eom4TmavoQeUZ6Tx78qyjHg87n+D6whPzejp6cGjR498ieSwbRtra2sYHR2tql08zTORSECW5WzVm8rbRQhxHRjBYHDXHMA3D8bGxjA5OYnNzU1QuiN8WenY5pse/f39DY8e80ZFWpYJSkvXIkpuJ3OcG35F1UmShNbWVly4cAEvvfRS1ccUCAQHF+HgEAhqACEElBCwCl7efNHAF8ySJME0DCC7M+51YBSqF1/q8fv7+9Hb29uU0QzV4i0Z5+0TvsBsNiilrmOgEQazLMsYGRnG6urqnmKs3rFpWkbByCKJUjBZhmmabilG/ne7TKefJEno6elBf39/RdfF+zKT9rfcZDQabbiB8STDd2KbzXnE59x0Og2GnflFkiQ3DJ4LGpdquHHnRqXVjJoJSZLQ3t7uW5oKpdTp62w/VjIeCCHY3NzCw4ePAACWZVYtLgo4lWNGRkb2/Nzg0CAGBwextbUJwzCqErrm1c4ePnyIRCKBeDzeFM8HAwCPs8N7r/ZKu/E7ZZRSinA4jDfefAMvvfyScD4LBE85YoUmEPiMd5Fbznfy/821DLj+hiRJvi0ce3t7MTAw8EQ6N4Cd6I1Ci0m/+tAv8kVhG0VraysGBwcwOzsHXdd3LU557riuG9CN3f/f88Gc73AjkFfyKeSYK4QkSQgGgzhy5EhV49SyLPcZqha+GxwOhRt+v55U/JznaoFt28hkMs6YlAFDN1yDmUf4BAIB9x3gdUjnjxf++c7OzgM/lnjkTXt7e8URW4Xg6WWVwPt8ZuYx5ufnQSlFJlOds9O5ZwqOHZtAS0vLnm2LtrZiZGQYk5P33JSramCMYW5uDnNzc00Y8cOgKErBDYRKhIbLRZZlfO9738NLL70k9LYEAoEQGRUI/MQ1Vkt8wfLPez/LS7eqmgbdMNxFkR+L/vxF6JMK131oljSUUmlkewkhGBsbQyAQ2CXKxo35dCazp3OD7zLyvuef8xp73pLF+zE4MIBoa2vF/cIrJfCqQdXCn5+WlpYn+vlpJHwMNeuzyxhDJpPJ0ZnxVs3SdR2qqsLOVqiSZbnomOfOvielehWlFK2trb5WUslkMlVFXNi2jVu3bkNRlGyUXPVtkmWKkydP7vtZQgiOHj0KWZZ90ZPh4+XWrVtN8YwwxsCvyElJlHL6t15OBkIIQqEQBgYGEAwGxdwsEAiEg0Mg8BP+Qrf2MK69FU94GgUv3aqqKkyPorpfVR+8cME1VVV9PW6zwBc3fu0gPk1IkoTx8XFXO2Mnx9pCRs2U7DQqJJbKxzpf6O8VAUEIQVtbGwayZSerqfDCKwr55eCglB7oahfNTH6YezNi2zZ0Q88KVZqQFRmS5OgPeOdtwzByIod4Gku+89AwDEQikfpfSI0IBoO+pNtwY56XNq8EQggePXqEhYWFqo7jhVKKc+eeRzQaLenzsVgMZ8+ehaIovswZlmVhamoKKysrTTcHWZaFQFDZ/4M+wxjD9vY2rnx1BctLy+LdLxAIhINDIPATbgDxf3t/+N95uVa+s8y1CryL+lq9oLmRmUql8Pjx46YOBa8E3tfVlgB8monHOxGLxVxDUzd0aLpWsnNjL6ccT/HgGgWFdtoI2SkL2+7Dzra33X4YzrIsg0ri1VkruHO42Yw3DmMMhm64/7Ysq6gTjo930zRznGySJLlRDowxhEKh+l1AjVEUxRdjns8/XLuikmfXsixcunTJjeirrpoTIElOhMr588+7bSyF5557zjeNFR4ldPnyZV+O5yemaSKg1N/BwZmbncPFixfFu18gEAgHh0DgLyTHoOK5yLZtQ9M0x6GR3UniizbvT72wLAvpdBpLS0t1O2c9qET/RJCLoijo6+sFlSg0Xa0oFNo0zT0X/3xnltl2jjHEHVSKLGN8bMzdGa8G27Z9OQ5HkiRIZVQMEJQGT+Owm/jZzS9nyR0cINhzjCOvQTIAACAASURBVPFoBO7o8OoqhcNhKA00Cv2GR6n4QSGh6HK+Ozs7i8XFJRDilLKu7h3rzE3PPHOi5OgNTmdnJ06dOlVxv3jnx2AwCFmScevWraZ4f+f3qWmaORF89XJUcmfYlStX8NWVrwq2TSAQPD0IB4dA4CPe2vamaUJVVei67obm8/KujX7xMsagqio2NjawsbHR0Lb4jaZpTbv7exBgjKGzsxPxzk4QUv4rgutUlGK0WVnnnzdnPxAI4MSJEwiFQv48Jwy+5mQTQgAxvHyH3+tmdk66mjIsd4fYsixQqTRtGe918gi+J00zwM/5t1ItJcYYbt686URKalrV7XBKeUdw/Pjxir777LPP5qT+7QdP4eMlZ2VZRjgUhqE7DjJN1XD1q6tNFa3A1z1SnSPcvOVmNU3DL3/1S8zOzop1gEDwFPNkvVUFgobj7Ezn5/w346Ldtm1sbW1haWkJmg8LwEZDCIFtOX3eaAfSQYY7KA4dOoRoNFq28VVO3/MFsWEYbth+R0cHBgcH3bZUC4P/GjZifPmLV3vjIPStd0cd2EkprERc0zAM/xrWJPh5DyupVsQYw/LyMubm5iFRCt2ja1VNO8bHx9DV1VX2sRhjiMfjGB8f31Njhs+9lFIoiuKK1FqmBVM3kEql3OhPXdcxOTmJjY2Nhj8z+WV87WxkHqeeYqMAYFs2Pvrnj7C1tdXwvhEIBI1BODgEAp9gjEFRAmDMBsByXvrNupNACEEqlcLq6mqjm1IVTv8SGGb1C1mB05/t7e3o7+uryGjjaVmljHsevm/bNoLBII4eOVJJk4tCKfXNwVhqiVtBeXDD7kAY+6RwRBCvqlLq8+Kdp/wQv2wWqtW68FKoyth+8Gf04cOH2N7eRkatviwspQShUBDj44f3LQ1b7BjBYBDHjh1DMBjcdU2yLLtRb5RQEDjOekM3oGacKFC7gPNve3sbk5OTTffOs20blNZ3zePtA8YYpqan8Plnnz8RmzcCgaB8hINDIPARvrjzam/k7/Y1E7ZtQ9d1LC0tYXNzs9HNqQICxhqf+vMkQQjB+Pg4WiOR8pwcjLnRGKWOeb6rOdDfj46ODl+fFa7L4texLMtyI4UE/sDvUbM7j5yymGRX1RT+b9MyoQSUkqOeeATTk2SE8YgsPyCEuGV2y5kTkskkHjx4CFVVYVX5rCqKDEVR0N7ejuHhoarmpkOHDqG3txeAo1WiyDKCwaCj6cMAQ3eEx0spbc1L6E7dn8LW1lbDn518kXRCSi8HXou26JqOL7/8Eg+mH4h1gUDwFCIcHAKBj3hDrJ1FO3MXe80aycFV2e/du3eAF9qVi9EJiqMoCiYmJspbPPMQ7DLuBSEE8Xgcg0NDFUWM7AUXr+TnqQa3dKV5ACINDhgHIXqDz+GyIhdMfeJCouWIhsqyjEwmc2DSc/aDp2j6cS2EEAQCgbLEOQkhWFlZcUvDVookSQgGg64g8uHDh9HZ2VnxHEIpRTwex+HDh51KM7IMy7KRSatQVXVXtZhS+292dhaLC4tNoeOS22YGRZHrGsma72RJJpP47W9/e8A3bwQCQSU0fkYUCJ4gvLnklJJsugrcyh48FLvZcNpLMTs7e+DCpXl/N6POyUGH544PDw+X5XiwbdsVEN0Pvkvb3d2N9rY2XxfBzBNN4pcBYJomMplMw3dMnxS4kKJfRnGtIZQgFAyB2YXbats2GFhJzwshBIqiYHNzs2kd4OXAGEM6nfbNWUUpRSgUKsthxBjDrVu3kUqlKjrnznxBkMmkkclkEAqFcOrUKV90PI4eOYpgIIh0OpN911bu2LJtG5ubm7h1+5YPVWL8hesqoc5jmjsKebTdwwcP8dE/f9R0/SMQCGqLcHAIBDWCL9yBndQVXk3Fu6vcDHD18c3NTSwvLx+YhQAhBJT4p7EgyIU7Hwb6+8vKPeeOhVKceZRStLW1YXR01Pdngrc/EAiAUlr1uOYLZzWjHphnpNmhlB6YSiJ8vmkJtxS9/zzKR5Klkq7Jtm0kEgm/m9oQLMvC5uamb/MxIQThcBhA6RENa2trmJ6eLqu8NQEgZYU9AQbD0N2oGlmWMTExge7u7gqvIpf+gX4MDw9DkiRfIsoA4N69e0hsJOriICvHEWfbNgKBxpVAZozBZjauXr2KL774omHtEAgE9af5VxQCwQGlkEAad3LwaI5m27XTdR2rq6vIZKoTZqsXhBDYzC5vMevp92b48e44NSM8faQrHi9LV6PUFBVCCMZGR9GSNWT8RpIk18FRbR/zCKx0Jl1x+UpBLoSQsp7fRsIddy0tLXs+s3xslPK8GIaBlZWVAxc5lw9/t21vb/viTASc/o5Go2V959q1a9ja2ir58zzliEoUhqG7pXs5sizj5Zdf9mX+AJy0v/Pnz/s2f9i2jVQyhe+++w6A/xXECCEFozBK6QvTNBEIBHLaVM/3HH+/2raNS19cakpBVoFAUBv8TXYWCAQAdnZ6C73LuUFrGAYURSk757aW8HbNzc3h6NGjjW7OnnAHgWEY7kKmFMoy0uuAU31Hga7rjW5KUWRZxvDwMJbLMMTMbLTSXgQCAXR2duLQoUN+NLMoPPrEjwgOy7KwmdgsW2tBsBsuLtoMc18p8HkjEonsW53HNE0EA8E9n2t+3alUCslkEu3t7U01N5UDj8RZX1/37Zi2bSMej5fcJ4lEAt9+e63k9DHu/NR1DaqagRPLsQM3jk3TzAqWWu7fZVkuO02Nf8+0TF9T3EzTxJdffomXX3kZoVDIt+MCAJjzw4XTvRSaU72OP8YYLNNEMLjzHNT7WedzzMrKCn73//0OPT09aGtrOxARYwKBoHKEg0MgqBG2bUOSJNh28RxbwzDcdBXvbn4pcAPfz4UST1XZ2NjA7OwsBgcHm3bBzXNsSxUX5fnuXV1dTXdNtm1XJWBXD2KxGAb6+/Hw0aOS9BLkbIqKaZoFDUE+7p85caJWTXbb2Nbe5lY0qnaBbVkWtra2sLW15YbPC8qHwUkLOEgODk4kEkEkEkEymdxz/jVMA+GW8L4pTZZlYXFxER0dHbVobt3Y2NjA2tqab9EoXAOoFGzbxo0bN5BOp0HI3gFkkkRBqQTGbCST29l7s9u5wR3of/u3f+uWd5Wo5DpzKo08UlXVl7nISzqdxtdXv8bLr7zs2zEBgIFl7yeBLCuwrNxr9jozCmGaJmRZyfl8/me9x+Cpvd7nqpx+yn+HetMl79y9g0uXLuHtt99uuuhZgUDgL8LBIRDUCP7y9KYieOG/8xc5f7GXkr/MQ+WDwSA0TfO9goht21haWkI4HC55gdkIyrluRVHQ29vbtJEpB2GxNTY2hoePHpW0OM/GJRU1AAkh6OvrQzQarVmKDj9mLBbzJQ1iR0CYYmF+wS35KCgf6gkfP2gOjlA4hEgksq+QJd/9d6IE9KLXqes6FhcXceTIEd+rCNUD/vxOT0/7WpI5Eomgvb29pM9vbCRw586d7Hgq/BmJUlBJArNt6JoKa4+xxzcdJElyIht1w03DAaqLRKjFeLdtG9988w3Ofu8sIpGIr8cmlLibMYFAoKjTmuOdz537YTuRK1nHl/f94Z33KaUIh8Po6OjA/Pz8zvlLdAYVeodIsqMDlUqnYFkWPv30U4yOjuKZZ55p6tRQgUBQHSJGSyCoEfyFvF8oKw975z9cfGyvF68syxgYGMDY2BhaWlp8D7fkC/Pl5eWK1ehriTd6oxy48dBo3Y1CPweBQCCAQCBQUnsdYd3CEUk88kiSShNirJZIJIJgMFhxHr3XWSlJEizbxuzcLFRV9bupTx0HUSA4FAy5JUT3w7IsgKCo4C6f/9fW1rC1tXXgnD2A81yoqop79+75YjQS4ogD9/f3l5wGNj09hY2NBApVJXGi95xKSpqmQtM1mHnOcT4PK4riVG6RFVBCYRomDM1wy99ywXBvamm5P37Dj7uxseHeg1pgWRY0TYck7a5KVeye83f1XnMvYwyUOBVzPvjgA/zlX/4lDh8+DEpoznH2Iv//83tpmiZSqRRM00kLWl9fxy9+8QskEvURZRUIBI1BODgEghriLDRYSYrpfDeT75QU+3woFEJ/fz+GhobQ1taGkZERBAIB39tuWRY2NjYwNzfXFAJ4+Yu2SnZ+m0nv5CBS7gK9mDOk3v2vKAo64505mjd74d1d5E4NmjVQM6qKTCYDVdUwNzdXM6PlaeGgldslhLi7zKVWwrAsC7Ii7+nkWFlZwdra2oEzuvj4n56eRiqV8iUihzt9hoeH9929t20b29vbmJqazpZvzv2sE+noRB1k1EzBqD9FURAIBNASDsO2LOiaU0VF0zTHMGaFS14303Nv2zbS6TRu37oNVa1NlScewaKqKiRp93j2jt38eZFSAkpJzmf55ymlIJTg7bffxvPnn8fwyDAuvHsB8a54SQ7wQmkpiqIgo2aQTqd3RYssLy/jF7/4RZlXLxAIDhLCwSEQ1BjGUHLYMV8U8HBmbzlZQgiCwSDi8TiGhobc77S1taG3txfhcNj33XBKKZLJJBKJRMMXc97FEHcGCZoXxhhYE6Qf8PPH4/GSxgzfPSbcyUgINN0xeNKZjGvAaZqG+/enYJrmgTNKGw2l1NVnOYhIkoR4Z9zVZdgPbhgSWnwH2zAMTE9PQ9O0hj8z5UCIUwXn+vXrvqVK8vHB33N79TGlFCsrK5ifnwf/mOOUpAgEFEiS8w7jukGUUkiUQpZlKIqClpYWZ2NBN7C9nYRh7J1+0cwQQrC8vIylxaWajCGvVoaqqqBUgqIoOffH67jwfp5rYbiqpfCKsROcO3cOL7z4Aihx5t3Dhw/jhRdfgKzIOccrdK78SJxgKIhUOgVd1wuuiWzbxu3bt/H73//+wM5BAoFgb4SDQyCoIc4LHNmf8owgy1OFglLq7EJ3dmJgYGDXOfr7+9He3u5bKTsOjyhZWFhAOp327biVwBdD3LkhHBzNj2Gavo/JcuHn7u7q3jMlyE2XIYCVHfeqpiGdTruh6d5dSb5z/PjxzIEySJsB/uweVEOSMYbu7u5dJTD3wrYdHYJizm7GGB4/fozV1dUD5TBjjOH+/Smsra1nn3XHOaEojnNhPwpdKyEEPT09iMVi+57bsixMTk5ie3sbtr0jKEkIga7rSKVS7kZBQAlknScywADTMJFKpmDoRo6he1CfZ14t5P7U/ZpEluUfT1VV2Hbhcsj5v5tumgoFF3Tlnzl9+jTee+89RCIREEpcJ/OLL7yIk8+cLDpG8n+XZAkMDJtbmzAMo2jbGWNIp9P4wx/+4KtujEAgaB6Eg0MgqDE8TaXc6Aq+eOPiiNFotGBOMjfYBgYGEI1GfY/isCwL6XQaDx48aIhBUiifWuy6HAy4KF2jdUYYY2htbXXTCrzRUdyxYVkWdMOApulQVRWGYewpKMgjrWZmZpBKpQ6sUVRvXB0Tn4WR6wkhBLFYDG1tbUXTTvLhURr5O94c27ahaRouX758YBw/jDFsbydx584dpNNpmCZ3ypNslRJnDgiFwm4apSzvpDbk7/R7jzs0NORG6xWDEIJkMonbt++AUkdnw3k/6DB0J2KDa1RR4lQ+MXQDmqZB1/UDPQaLYds2bt+6jVQqVZc5l6fx7OW4y/4DQK4WDaUUp0+fxs/+4mfoiHXsam+0LYqf/PQn6Ovry1nXFHRuSBIMw0A6nYZtFXZY5N/rtbU1/Ou//quYvwWCJxDh4BAIaozz4nQMvHKdD27+P6UYHR3ds8Z9KBRCX18fWltbayI6ahgGZmZmfD1uOfBIAOHcOBgQkq3V2CS6J5IsobOzE7ZtO44NWQYDg27oSGcyUDUNZjY8vdS2WpaF+fl5N4qj0ddYKqlUCtvb2w07Py+zeZAiFfKRZRmHRg6VrMPBMS0TwWCw4P+zLAtLS0v45ptvADT+mdkLHkk3PT2F6WknVYs7DXSdOwlNGIbpatZYliMsHFAC7i59JBJxIwC4wzESiWBkZKSkvr1+/bobpaHrOnRdgywrkBUnSiOVTEFTHYcG3yx4UnfsueN2ZmYG9+7dc//m9zm8OO9kC4ZhItzSsuvz3vtnGAaCoaCbrnL06FH8m5//G8RisaJaTfF4HD//+c9dR3mh84dCISRTSWQymV3nzG+zV4fLNE188803uHTp0r5aLwKB4GAhHBwCQR3gqSrlwHe9A4EAzp49W3RR7CUWi6Gjo6PkShelwnNut7a2sLq6WreFAF+weY3HUsp9eq+dFsgJFtQexhgs24bpSbVqFNx4infFEQqFYJgmkskk0ukMDMPcqXCA8kVrGWOYnJxselV+3ta1tTV89NFH+P3vf4/Z2dm6O2YopbsqURxECCE4cuRIzu/7wY1rBlZwx5vPs1euXMkpk9mMOHoPK/jqq6swTWuXEckdhfzf/H6n0xmk0mkYhglV1ZBMOloJJFtFQ5YVxGKd6Ojo2Hd8ZDIZ3Lhx0zVWZUkGsxnUjIpMKuPqbvA2PenwqDQCgs8/+3xXmoZfFJozLMtCJp1BMBjaMy3RtiyEw2GMjo7iZ3/xM7QUcIpw+DEGBgdw4cKFXesaR/yZYn1jHbZtFxQ5LRZ9xx0apmniww8/xP3795t6/hYIBOUhHBwCQR3gL9R8JfH9CIfDGB8f3zNyI5/e3l5Eo9GSQ6dLhTGGVCqF5eXluulxePU2vLu+u4XGdv7NQ6AlSXLM1axxa1k2TPNghH4/KVBKEQwGy97lrgWEELS1taE1GvXV8LFtG6lUCl99dRVbW1t+NNV3+PyzsrKCzz77DOl0GhsbG7h69SoWFhbq2pYnKQqrtbUVxyaOlTXXcqNKkouXSLZtG1euXGna8QQ4UUCff/4ZVldXy3Jgeo1O7vywLBu6rmN7OwnTNDE46KRb7jdn3LhxA2trq1DVDHRNd8uBWpZVtrPyyYDBskxouoaZmRl89913NZ13Czk50pk0CKEFdTn4Z7q64nj3vXfR19dX0vxLKcW558/h7NmzrpNDkiWYluOorhTePsMw8Itf/ALLy8sVH0sgEDQXwsEhENSJnWiE0j4fCoUwPDyM9vb2ss4jyzKGh4fR2tpadJFRDalUCisrK3XJEyeEuM4NrxI7NwwopaASBaUSbMZgmo5miWGa0LPh0YZpwTBNWPaTl299EGimHdSWlhZ0dTnVL/xqDzfSlpeX8dVXV7G9vd0U1+qFOzeuXr2KRCLhVmlKJBL46quv6raw57umT5L2wcmTJ8uOmHPnMrmw4880TSwsLODGjRvuvWomDMPAZ599jgcPHlYUAVQoZYDT0tKCsbGxfZ1GqVQKN27ccBwaplXwfdRs/VZrCHEc+fyeXPz8Ys2iODi7+pgh60DOrR7HnayBQAAX3n3XjX4q5bnhzulXX3sV8a44ZEV206Dyz1/qeMwfg7Ozs/jkk09yysoKBIKDi3BwCAR1g7mhm3u91AkhUBQFbW1t6OzsrEhPgztHZFn2VY+DC+UtLS1hfX3dt+PuBSEkG+LMYNvMdVgYpgVV06GqOlRNh2GYMC3L+f+G6aaymKaZTUNA2WlCgurg46VZFoyUUgwODu4S6q0Wvqien5/HlStXmmaRzNuwtraGP/7xj1hcXHQNHu5kWF1dxRdffFEXJ8d+opEHDcYYYrEYRkdHy55nTcN0SmKisPaApmm4fv06bt682fDoJw6PqPvTn/6EO3fu+JpmxI3foaEh9Pf37/v5+fk5rKyswrIZQqFQU0SJNRJCnEprPJqGMYa5uTlMTU3V/Jkr5GRw9FhsN/qU64mdPHkSJ0+erEh4enh4GO+//z62t7ezFVxyI4cqvU4+rr/++mvcuHHjiZqjBIKnFeHgEAjqBGNO6HEp4cxcM6CaBVtrayt6e3t9X/TxKhRTU1N1SVWxbdsRidN06LoO27ZzdqnyS8buveh+ehfAjYDfh6DPmjDV0NHRgeHh4Zro1DhGhePkqCZ02q/2WJaFx48f45NPPsHq6uquUpiWZUGWZSQSCfzpT3/C2tpazRf3pmk2XJPFL3hK3MTRCYTD4fKcHASwbAvBULDg97iRePHiRVy/fr0k7aFawsfLjRs3cO3adWiaVnV7eDSeIy7q/Jw7d27PdyTXKblz5w4sy4BpGMioKhRFgaIovgtsHxQYs6HrjpgqR9d1XL92vS56N/mRE7btpB1lMqqry8EYc1MWK4EQgjNnzuDP/uzPEAqFcoRBK7k+/h1+nFQqlaNNJBAIDi5P55tAIGgQToqF89jV2uAjhKC7uxtdXV1uiT4/sG3bNZQePnwITdN8O3Y+hBAYhglCqZtTbZmmq7bvTVcRNC8MzRUufuzYBAKBgO9jh1/j7OwcLl++gqWlpYYY87ZtY2trC9988w1++9vfIpPJFDSQvWH9Kysr+PLLL7GxseF7e7yifk+Kc8NLT09PyVU/vDDGYFpm0YginqL3+eef4+uvv3arRNT7WeKRcNeuXcMXX3wB09Ah76EhUgzutHdSJ7mz3AZgQ9NUnDhxHP39ffseZ3Fx0TVCZVl2xEszGdiMQQkEipbifZJxHEXSLn2TBw8eYH6ucYK1vPyxJDnpsnzkVnJ3+D39yU9+grNnz+ZsAlV7v/lYmp2bxW9+85umTA0TCASlIywDgaCO8EU+X5TVmkAggL6+PgSDQV/0OLxaGIZhYGtrC/Pz8zXV48ipiJJdUNuWBTt7TolSyFlHx9O2qG0k5fS1bVlN5YiKRqM4efIZAP47GrkRv7S0hMuXr+Dmze+Qyai+nqPQOb2GzdTUFL744gvcunVrT6cCIQS6rrtRWQsLC7h48SLW19d9nZ94H1ei13AQCIVCmDg6gdbW1rK+5703+VVVeAi/oiiwLAuXL1/GF1980RDh0a2tLfzhD3/ApUuXkEqloGfTnAIBBbJceDeet5+nnkgSzc4BDKapwzB0pNMpaJoKTdPQ2dmJ8+fP7zk+vEb72toaLMtCKLSjp8N1GRxHh1ITDapmhI8TVc2dZ3gK2r3Je3XTvfFGRfC+5yWEdcNwozeqbcmFCxdw6NChnL9Vc68JISDUcSheu34N//LJvzwVY0cgeFJpnhWnQPAUwBf49TTGW1paMDQ05EuIM4+c8JZYW1tbw+bmZk0XT7yvvP3GGIPtWbTxiA7v5wW1o9T7TSh1K9s0E2NjY+jv76tZu0zTxObmJm7fvo2LFy9idnbO/X9+CpwCO+N9YWEBH3/8MS5fvoz5+Xk3jaDY+bxpXrwfVlZW8Lvf/Q6JRMJXfYVmcnDVgsHBQRw5cgSBYPmCo5Zt7aqqwo3zTCYDTdOQSqXw3Xff4cMPP8Ti4qL73VpMu15n2aNHj/Dhhx/iu+++y9GW4aVfnWc7dyddlhX3XSHLFKqahqpmkE6noKoZqKoK0zRhmkb2WiW88MKL6OiI7dt3mqbi7t072eorFhizEQjsRMDw95Km6SDUKT273/u2mcZmpc8Kj6zMv07TNHH3zl2kU/WpfAbsdmTySCSJSrCs6iO4CCEYHBzE22+/jY6Ojl1V1SqFEpodlyZ+97vf4dtvv30iHbICwdPA7kLsAoGg5vBUFa4lUWtisRgOHTqEpaWlXbs85cAXtbzNtm3DMAwsLi6itbW15qHBxcrOEULAslECAUWBZe9odOT0r/B7VEUlwnBgDDZjYE2WmhAIBDAxMYH19fVdOi5+wfPQV1ZWsLy8jMHBQZw6dRKxWMw1uvKdFMUoNE9wY251dRV3bt/G3NwcDNMsy5nJjxEIBNxnKZlM4uLFi3j99dfR1tbmyzNNKXVTLMqBp7c0O5RSPPv9Z3Hv3j0YumO4l3oPbNt2DNuso4BSCk3T3FRAb4TC0tIS/ut//W94440f4MyZMwiHw66Tw69+4mPi5s2b+NOf/oRMOgNCScFUR8YYIpEINE2HaZpQFAmaprmpCd52FeoPSimOHTuOiYmJfdtECMHU1DQWFhZyHC2Oc87I+Szg9JclSQgEA7BME6ZZOIohGAy696BZKOc9zdNe8yuDcMfC9LTTZ23tbb63cy/y5zbnfezPPCtJEp577jlMTk7is88+cyNU+DuqlGcvPzrUsi23nel0Gh/+vx9icGgQ8c54UznBBALB/ggHh0BQZ5yXMEp+CfvFwMCAqzxeSWWLYmHmhmFgfX0dc3NzbshoLRaKey1evDuOhmE4KUCez/EUGt72ZlrI7kWpxm+9cRx0UkmpSdwhZjfhTlh3dw8OHRrF5OT9mqVPcGOREIKFhQUsLy+hKx5HT28vuru6EAqH3RQyr4aDd5zyPrQsC4auI6OqSCaTWFtdxfLyMtbW1hxnSva5ruQ6eDlmfq7V1VVcvnwZ58+fr9rJwSshlQO/3nwhwEZTrB+4gOKFdy7gXz75FySTyX3b63VyMcYQDAShqqpb/tK5H16jFdmKUAxffPFHTE5O4vTpMxgcHER7exsCgcCu+a3QfFfoM4Azl29ubmFm5jFu3bqFpaVlUEog7ZFSSakzv1IKmKaBdDpZ9Pj5SJKErq44nn/+ebS17W18O3pMBq5cueLOPbzfJEkuOB/xZ8+yLEebIyDByhO5jUaj+MlPf4K2tjYwu7HvBn7PNzY28E//9E+uo2j/7wG6UVwLy7Zt/PGPf8TRiaOVOan9xMdHmBCCH//4x3j06BEePHhQ1bFCoRAy6o4DlhCCxcVF/OEPf8BPf/JTtxqMQCA4GAgHh0DQIPhOXb1E9wgh6OvrQyaTcUtFlvt9YKeKSv5u0fLyMsLhMPr69heJqxQeEl1M2DTfocF3XWRZhm3bWF1dQzAYBKVS05eMZQygxIm+iUQijW4OgB3NAN7PvF/57mcxQ4bniDebcFswGMDx48ewubmJ+fnaCvFxY4sxirm5OczNzSEUCqGtrQ3hrJMjFA67lSAoF+XMOu3UTAaZTAa2bSOZTGJ7extmVnDXNE1I2ZSGSuYTb5oK/75t25idnQUAvPzyy2hpaanIMOLlIcsRI+Z9NT8/j6tXCA3iKQAAIABJREFUr7qRA5Zt+WoglQUBbMtGV1cXDh06tKsv+Pjv6+vD97//fVy+fHmXgco/wx1Ztm3DtmwYpgFmM2gZzdW34DjPCwHAcpwhuq5hbm4By8sr6OnpQXd3FwYHh9Db24OOjo4c4dJi0T+OBouBRGIDS0vLWFhYwOLiopsCwyNI9tq9liQKTVOzcwB13w/7jUN+/efOncfQ0PCen+VMT09jfn4ux/HFowIURS5aLYQxBl3Tsikzcs44P/f8OZw+fdrpD5CGR/kxxjByaAST9yfx7TffluSwpJS6UUP8GF5s28bdu3cxPz+PoaGhA+Xk3wtCCKLRKP76r/8af/d3f5cT2VMONCtizmzmzC9kZ7Pkyy+/xOihUVcf5knoN4HgaUA4OASCBuCNRqgnLS0t6O/vRzqdzolqKAVvvn6hCArDMLCwsIBwOIz29nbf2853twC4C9S9tAWAnfQV7kxKp9N4+PAxFEWu2Y693yRTKUwcPdo0IbLevuXh4Yosw8oaDHvdk2bs72g0ijNnTmNjY6PkHdNKkSQJhq7Czu4Up9NpZDIZdz5QFGWnMhBjACGwbBu2acLM9rdX6JdHORBCQKucT7iDw2tEM8YwNzeHTz/9FD/84Q+r2sWsJIJjc3PTzYMntLGGBXdMRFuj6O3tRTgc3vUZ3nfHJo5hdXUVd+/edSNjGGNQZMVxGjC4zipgp+8ZK/b85JbC3LlHFnTdxvz8PObn5zE5eR+BQADhcBjd3d3o6OhAJBJBKBR0RUwdfQoNqVQaGxsbWF1dRTqdzpb0zLjzKh+TXmcF/52PM1mWYBi66wgJBGSkUioC2UomxSIFudPr+eefx/e///2SdHAsy8SVK1eKOlOdaBjnsSl+DMstjSxRivaOdnz/+99329RMvP7667h546bb93tFwVj23gKijDFomobPPv0MP/9fft5011oNhBAMDAzggw8+wN///d9je3t7X4c7/x6HO2CZx3vKHXBbW1v4p//nnzAxMYGOjo6aXotAIPAP4eAQCBoEN7pL2e3y85zxeBxbW1tYWFgoOc0A2HEw8MVsPnxn+dGjRzh+/HhN9Di8i+tyHTM8NcgiBJZpwDBN2Iw1esNuX2KxjqZ0DAA7aQTcaKBZg5z/P06+M6rZFtg9PT144YXzuHTpj+71+IkjvCjD0DXXAMt3+BBCoGlawb7xfq5o26p0cPB76Q3/5/dte3sbqVQKwWCw7HO4xkMVY1g3Gh/5ww2mSCSS4wAo9LlgMIhzz53D6uoq1tbWQOAYS+l02k1Xyp/zuQOz3OA6ft8AIJVKIZlMAgCWl5fdaAquncTPw51opkevxevY8h47/1z8v4FAAKqagWHsjGnLstxILUVREFACMExjVxSLoig4duwY3nvv/ZKvcWZmFktLiwXfl855ubjr/uPENE3YlOLYsRNob29vqp15fh96enpw7NgxfPfdd0XfuYAjjGkX0bXwXpdpmvj222/xxptvoL+/vy7XW3Auq0EIlm3bOHnyJF577TV8/PHHOYK3wP5rhUAwgFQq5fziaTL//tr6Ov7P//yf8b//x//YdGLZAoGgMM2xJSgQPCGUs2hwdvYak1c+MjKCtrY2d0e4lOgAHgmx3zVmMhksLy/7fl3eBbgsle+bdRbGTqSJaRpOedm8qizN9pO9ch970X94Ww3DgJkdT/ljhRs13rKNzWJQcEZGRnDq1EkEg0FfF7GOc0OCbZn7Rh1x4y3/Z/eY2P3dvY5dKvnOE0mS0N7ejnPnziEej5d9zwrpiZQKH0earu3qg0b9lJoCRAhBW1sbfvD6DxAMBKFpGpLJpBvRUOg+OdpIxQ3ZUvD2k2EY0DQNuq7DMAx3LPEIDp6q6B13pYwfHn2hZtI5zg0gq8WRnacNw0BGVXO0Zfg8MDo6irfeervk67IsC3fu3EY6XbwSiGWZJUcYUUoRjUZx7NjRpi4le+rUqX3bx8BKijzj789r167VdEOl0DrB6xijxH+zg1KKQCCA1157DWfOnNk1f+/Vf47juXCkEU9pYpaNW7du4f/+H/+jametQCCoD8LBIRD4iKqWnmcOOOG0XmHBeiFJEg4fPoxoNOr+rRQnh3cnMB9+DYZhYG5uDuvrG/40Not3kcTAXOX4So5j2wyWZ+eS72g2XIDtAFHcSDPcfuXOM0IIWJEojmZaKk5MTGB8fAzBYLBgxYhy4X1glVnZpBKYT5VgTNN0jdL2dieE//DhwxUdy9WZKNP5QikFleVdu//NACnR4cg1j9599110d3e7KSLA7meHG1J+4nWW8d/3dqSWBqUUuq5mo2p2/39CSY4Oh/NO3HFw9vf34803f1hyuD9jDGtra3j8+LETeVFkPDDGtU32fi/weWd4eBi9vX1NOd+7bRwZxsjISNF3MyEElm3lVIDJv5/e3w3DwL2797CyslLTdgOO44VHaxBCICsyTMuExfyNjvOeOx6P4/3339/XGevtK0opTGu3Y1GRZciSDE3Toek6bNvGxYsXcePGjZq0XyAQ+ItwcAgEPsEYr5ZAy1g07ehK1HuhFQ6H0d/f75aH5C97Sne3nxtqwG5HiNeQBQBdN5BKpfHgwYM9Q2vLJX9HqFpbkSG745n94WkElDZnhMFBgqd58IU3IcQpFcsYKHV+N3QDpmHunTRfZxRFwTPPPIPBwUEAqNrJ4Vz73o5Bv/AjgsN7nFAohFOnTmF0dLSi43gjHsppFyEEVJJc4cpmwXWwlumSGxwcxOuvv47u7u6Ccys/drOVKS2EosjQdXXPNEUnMlHK+ZthGNA1A11dXbhw4QIGBgZKPidjDDMzj7G8vLzv52zbQkvLbm0UL4QQhMNhjI2NIRptbeo+j0ajGD887goPe+HvXYlKjjhmCRBCsLKygunpaV+drYU2BggIKHEiK6hEoWqOU8wrhuo3jDGMjo7igw8+yPnbXu1m2J3ypCgKGAjSWU0aHv2STCbx6aefYmVlRURxCARNjnBwCAQ+Eg6HYZpWwRd+MbjB14gXZiwWQzwez8nHBnIdGt7f8xfo3moPmqZD05ydDsuyoKoq7ty5W5N2Ozue/kS+uDudlgXLNCFRCYFAoCmiOSrZYW0muNPPsp3c/FAwCF0zkElnPAKEzWNgEEIQCoXw0ksvor/fqQbES29WcixFkaHXWLiUY1p7Cw2WAh/zsizjxRdfxMTERMXpOnxOK8fJyaOpdF0DayLnBqdSJ8Tw8DB++MMfIh6PF0zX4akjfjqE/SYQCCCdTu1bYtwZ91KO416WZXTGO/Hv/t1fY2houOS51XmvaJicnNzXUcbTYmRZ2jMakTGGlpYWnDhxvOHz+35QSjE+Po72jt2i3Yw52iqapjnVhbC3wDPgjLNUKoW7d+8imUz6Mi/l9yEf34qiQAnISKVT2Nza3EntqGGX8znn/PnzuHDhQs56pVDKDI/cdPstO/+bpuWKP3uPbVkWbn73HT799NOaaDUJBAL/EA4OgcBHnJeeCdMsXbiTCzQ2YrFFKUVfXx/a29vdsGIeSs8jOng7TdN0c7m9bTVMC6qamycPAJqmIZFIYHZ2zldDfaeNvhxu17Ety4JpGKA8daWBjg7HsdR4R0shikX55P8XDJBAYeg6UqkkTNOAIss51UCakR/84Ac4cuSwWxGiHHZ0CjI1al3h81XzfX6/YrEYXn31VYyNjVV8PO/cUbqj1xG/bIa0FK9RxNvlzAUUlllZNM7Q0BDefvttV+DR2y+SJCGgVJ8SVQu4hkwqtV2SQbeTiuVcXzAYxJEjR/BXf/VXZZW75oby0tIiHj58uK9zyU0HswwEAoWfV0opZFnGiRPH0dXV1ZTzqhdCnAohgwODu8YMdxzxv5cyj/L5dur+FJaWliqqzOXV2ODn5ecm1ElFIZQgo2WwntiAbug756lDd/P3yltvvYVTp07lzIv57QbZGa/OM6hAzajQdb1gn/Lff/8//ydu3rwpBEcFgiZGODgEAh9xw/FtG5Zl74qEKP4dVtFio1oIIQgEAhgZGUFLS0tOKUF30ZJ90eenqFiWDU1zBOyAwrm/mqZhbm4OiUTC98Ukpfv3bSVwR41lWWCWBSpJkLJGTr0XxI2K7NkL70Lbu+PPxzqzGcAA27SccGTGkE6nkE6nnN1G04SmazBNA4BT2aZZOXPmDI4fP46WlnDJ958bhNY+oqJ+4oSql5MalwvfcR0YGMDrr7+OQ4cO+dIuHs1Vyvmp5OTCN3JX1Ovo4bu7lmVB13Rk0hlXmLPSfh4eHsZ7772Ho0ePOqH7HgeyXm75lDrgRO0RqGqmrPvCGIMSkCHLMs6cOYP33nsPnZ2dFT0LX3311Z7irPnnNU2r4LPKf1cUBc8++1zZ7WgUkiTh7NmzRd91uq4D2N+RyB1GPNXi2rfX3L9Xgvd7XLOHMYaMmsF2ctupCNWg6DxCHJHft99+G11dXUU/w9ssy85Y1TQdZrbsNv9M/ncYY9B1Hf/wD/+AmdnZml+LQCCoDOHgEAhqAE97cJwcexsezsKDViyaWS2EELS2trpGDW+rV0fBm57iRHKYrm7HXjDGoKoq5ufna6A+TiBJpVWAqRSb7YiRIrvL460IUHs8528SeFsooQgoiiNuaVqwTQumbsC2LBi67vZZRs1AN/WssZ81ek0T9gEI71UUBRMTR3Hu3DlEo9F9HZYEgESdXX6rjukGxbRzSiUQCODo0aN45ZVX0N3dXdXY9oZ/l+rckGQ5W92ofn1WyEknUef5Ng0TmqpBzajQVKcSiV+Ol66uLrz11ls4d+4cWltbQSlFMBhseNRKPtwAzGQyZacZAUAwEMSFCxfw1ltvuaKP5YwrQgjm5uZw9+7dsvueEEcvJB9JknD8+HH09fU21Zy6H+OHxzE4OLjLceMVkS0Hxhi+/uZrbG1tlX1POJQ4TsBA0CkFnM6kkMqmMOWfq1EcPnwY77zzDkKh8G49JbITNQYQpNOlOfH42m5xaQn/+I//iK2trQM1lgSCpwXh4BAIagTfcTJNM7sbWHwhwRcpjYji4MRiMQwNDeX8zRXW46kbppN+w50epTg4dF3H4uISFheXfHUKOAZzfSIc+ELSMh1RzICiuDu8tYAb0qZpgqF5BE8JIW50hmWaSKfSsEzLrW7AIxZ46G46k4ZpGmD2js5JNRUc6g038oaGhvDee+9iYGAgJ8y5wBfAwGAYet2urZqoDR6x9dxzz+GVV15BW1ubL2MtX9NnrzZIsqO50YjIDX5/FVmBZVrQdR3bW9tQVdV1uHgj2fw6ZyQSwauvvoof/ehHCAaDME2roXN/PlyLJpncgm2Xfl+4o62rqxs///nP8corr5SVlpLPl1/+KecdVAqOX5UVLEnNGMMrr7zcVH1dCoqi4Adv/CBnLAaDQVieaINy55tMOoOLn18s+fPe+VqWZShBBYZlYH1j3ZnnCzy/jZzfeVTa66+/jnPnnkNG1RAOtyAYCoFSCkV20ph03YCqqm6EiyRJUBQFgUDA/eEir7yvZVlGa2sEM48f48qVK03/HhMInkYO1iwvEBwwuNFnGOa+O1j1iwooTk9PD7q6unJe5oZhIplMIZ3O/P/t3dtvXVedB/DfPlfbsR3bbeI6TkNCIaFJE6VqoYiZ9G1GgFTEvCBg6N81SPwDvKNhkAaGF0ZixCA1UyCtptCWTqM4TpP4fjmXPQ/n7ONjx06c+LrK5/MSJT453meftS/ru9f6rU21NiKi+7rd1QD4+OOPY2FhYV+3t1Lp/M7D3G9FaBN53pu6clA3zAe9tOjTyvO8M/KiG3j1/3t/m2i3W7G6uhJ5vvF0sf9pY6+tH6PPtpP+oe03bvx9XLt2rbe88tZCvNVqJZqHPNWg3W4/1X4swrNarRaTk5Px1ltvxZUrV/Zte3pTlfLHT7srpqUcZs2NogPe6+DkEY31RszPz8fy8nJvuP9BK9rUxYsX4wc/+EGcO/dib8rKUV8DSqVSVKuVePjw/q7PPcWT8BMnhuOVV16J73//+3Hu3LltC6ru1uzsbLz//vuxvv50YWGWRTeA3xhtlXeXY7948cvxwgsv7Gm7DluxnZcuXYrp6eneZypqYm193eP078c8z+O3//XbXV+Ti2t8uVKOtcZaPJx7GCsrK9u22eMWXn/ve9+LL5x7MRYXF2N9bT2yrBRDQ0MxODAY5e75oNVsRLPRiCzyyCI6NbhKWZSyiCzPI/J2tJqNaKyvxfLSYtybnY3P7s3GL37xb/Huu+8euxFY8LdufxdeBx7RHwhUKuVt5+UXN1zFnO+jUq/XY3JyMubn52Npabn3ZL6oK1Iul6LdzjdVEO8EG53RFMXfi4t98bmKzu37778fV65ciYGBgT3fYPYXaD3Moe3Fd1c8PeufHrAfIxOKzn+zubGE6nG6WYyIaLc35nMXNra7EevbjGAolzvLGR63m9+n0VlG9uWYnDwdH3zwQdy5cydWVla7nz0ObcWUflm2sQTvkxTtdGJiIs6fPx8XL16MEydO7HuHr1QqPXa1jWL0SKPZiNYuCzI/63b0/86NqYOtWF1ZfeRce9jtMs/zeP755+M73/lOvPvuu3Hr1nvx6aefbhz/h6yo5bK0tPjEfVG0lyIsm54+G9evX49Lly5FvV7f9Jqn1Wq14g9/+EO0Wq1uYPp0x1RR5LSYJlUqddrbK69cPbKC3ntRhIWvf/X1uHPnTu/vW0Pmp9Fut2NxYTHeeeeduHHjxmN+eTecztvRardibXltx4Kvx/G8nuedJa9/9KO34yc/+UnMzMxEuVyOhYWFaDTWI4uIZqPRm3LbajViN9VQsyyLZqsVt2/fjp///F/j7NmzMTExkVzbgs8rIzjgEPTX5CgKt23VuWk42ukIeZ7H6OhoTE1N9UKMYtuLm8b+IcPFFJxmc6NeRzHqoOhMFSM7ms3OSJC//OXDfb15P+r91dtP7XZvREfsw2ic9fW1OH63i11bPloxkmdtfTVW11YfudHtD4JSVy6X4/Tp0/Haa6/F17/+9XjxxRe74U27d+N/2G1y8zG6WbHvK5VKDA0NxdWrV+PGjRtx9erVGBoa6r1mvzSbjy8UWoQbB7Usan/Huxil0W61ezU1VldWY31t/2pq7EXRVmq1Wly/fj2+9a1vxptvvhkTE+O9kWGH1Z467SSL5ZWlJ35/xYiNarUaU1NT8Q//8I/x1ltvxbVr1x6tdfCU8jyP+fn5+PDDv/RW7XoWrVYzarVqL7x74YUX4ty5F5PsgBbh3EsvvRSTk5NRrVZjdXV1z+/barXinXfeeXwdie5KIyurK5umcmx1HMONiI1j7Pz5L8S3v/3tGB0djVqtGsvLS7GyshJr6+vdKSn17ud6dDTK4+R5Hrdu3Yqf/exnSbYt+LwyggMOSf+ohmq1Enn+aJHOXrG7I1p+rLgZmJ6ejvn5hZidne0VBy3mNe/UKem/KS5uyIrQo/g8eZ7H7OxsjI+Px5kzU/uyzf1DZI/qJmvrqI5apdIpUFp8509xk148vU3hZmmj85XH6trqpjnh2732qEco7ad6vR5nzpyJycnJmJmZif+5eTPu3LnTXRo3j+Ib7+8QbK3nsF/ttd1uR7Ov6G//d1Cr1SLLsjh37ly8+uqrMTIycqBBU6vV2rGgcHF+W2/sT8CwXVsr6oo0Go1YWlrqrXpyXDtghXK5HBMTE/HGG1+LV1+9Hjdv3ozf/e6/Y3V1tXc+OKjRT6VSOWq1SszPz+0YKPQv+1sqleLkyZPxjW/8XVy+fDkGBwd7r9vreSvLsvjkk09iZuZuVKu1WF9fe6b36YTsWa/9nz9/PiYmJva0bUdtdHQ0Lly4EDMzd545+Ok/H2VZFp/d+yw+/ujjuHrt6o6vb7U3aidtNx0lBaVSKb72ta/GRx99GL/5z9/0jql2ux0rKytRq9XixIkTsbKyuqnuzOPO1cXPWq1W/PrX/xFf/OKFuHHjzU0/A46GgAP2UX8HY7vwotPpb0dEMyqVcuR5O9rtjf/TeQJc2tUKJQcpy7K4fPnl+P3vVzY9aW21WtuujrD18xbhRsRG7YWi+GSWRXz88UcxPDwco6Mju96m7fZH8d7lcvmR6u2Hpf+zb52iUimXI4+Idmwu2Pqk92g2G8d6nnixbVkW0Wy1Yn1989SMbaevxMaT9c/TfOVyuRxnzpyJM2fOxMzMTHzwwf/GzMxMrK2tRbO72lCpVIqslEW71d5Um2K/lpHNSqXI+oaNF0Uia7VaTE1NxaVLl+LUqVMRcfAdkizLtg0vitFcjWZjX1fQKZVKvbbVbrdjdWW1Nz3mIILPgzwmi/ceGBiIN954I65cuRLvvfde3Lp1q1sHqVMnpKhxsh/HUWc0Rhbzcw+j/936R47keR61Wi2Gh0/E2NhEXLt2NS5fvrLn0Rpb5Xln1a333nsvFhcXo1KuRL0+sKlob/G9Pu47LX7eaDRicGgwTgydiEuXLh7Zg4P9UISDl75yKW7evBlzc/O9nz1L+y6uUw8ePIg//umP8eWLX456vb5j+y7aw7P+rv7j9ChkWacw6ze/+c3O8dRXeyTLst5KSZ3ire1oNhu989hO+6S/LTYajfjpT38a09Nn48KFC8f22g1/KwQcsI+eZrnGItioVKoRsTkcaDQ6gcJRXSSLC/eXvvRS/OlPt2J5ebkXJLRazT3dKLbbeSwuLsdf//rXePnlrzzxvYpgZLunl726D41mbwm94/REqdj2UpZFqxvGFG1kp+1stVub29AxCjqK/VuskhGRR7PRKcz4pO+x3Vdnpvjess/BlJWIjeNlcnIyTp06FXNzc3H37t24fft2zM/PxcLCQudmOdsY5RPdIKBcLkelUunVhih3awS0u6OfdrJ16kIpy6JWr8fIyEiMj4/H6dOnY2pqKk6ePPlI2HRQihBja1vI805wm0fnGC7t4fxRdOxL3eV48+55tNlo9GqRHOTqRjvVH9jP31EYHh6O119/Pa5evRq3b9+OTz+9HXfv3o0HD+7H3Nx8rK+vbwoh+ov4bmdrAN/5nvJOzY3otKGse35qt9sxMDAQY2NjMTY2HtPT03H27NmYmprqjYrY7xA2y7J4+PBhfPTRR51rTbuzsk2nrtPOo8N2kuedgpHFtqeuGF05fXY67t27t+eAq+jA//nPf4779+/H1NSjoyr7zx17Pa6OQ8hx+vTpePvtt+PHP/6XePDgwaZjpgjYarVat1ZLRKu1u2mHpVIpFhYW4pe//Pf44Q//OYaHh4/NdRv+Fgk4YJ9UKpWo1+sx0F2G7HH6k/9qtRKdeZ+dGhftdiuq1eqeltfbq+LCPDIyEufPfyE++eT/eh2zzg1BHs+aI/Rf9HdzAzAxMR7z8ws7Pi0snhgXK3Yco3wjIjYXNyyVsoisqOy/zYbmeecJd7cDkWVZjI2NHZsbpVKpFJOTk3H//v1YW1uNPPIYHBp88n+M7vfSnbaTRScQGR8fPxYrR+zVpqChVIqxsbEYHx+PCxcuxMLCfMzNzcXc3FwsLi7G7OxszM/PR7M7yqBarkZW6i6/m+fRbjS6xXzbkbfzqFY7yxn2nzM2iid2VgM4efJkjIyOxsTERIyNjXXnmde23b6D3Af1ej3GxsZidXV1U9hYTE1q53vrkGVZZz8Vo8r6l9c+rGDz7NmzvQ7+YanX63H+/Pk4d+5cLC0txcOHD+PBgwdx795n8eDB/bh377NN03H6pwRu/bM4r3RGv22cN4vvb2RkJE6dOhXPPfdcPP/88zEx8VyMj49v22E7iH1QTH8ZGBjY9J12grOnH/1VqVTi9ddf6xU+TV29Xo/r16/H3Zm73WXEn63dl7JStPN2rDfWY3BocMdOfL1ejwvnL8Ta2rNNFerJI8qVclz44oWIONopHJcvX47vfvef4le/+uW2KycVx0dRkHY3tYKK812tVv/cTMOElGX5cXrcCYnrv+neje0u8sVN6EEuP/o0+guHbhTg2utpo1PQrui8Pc5u9+nxP5V1pnR0NnPnbc3zvLPWYXT29lHWZNlOo6/i/F5kEVGpVns1Ez6viv1UjNBotTrLOz58OBfz83OxvLwcS0vdgndra52pLX2rF5VKpShXylGtVGNkZCRGR0/G4OBgDA4OdoKNkZFeG9m6ashRWFtbe+IUtr06ylo7tVpt36dmPO02FH8W5+ZmsxnLy8tx//79mJ+fj4WFhVheXo7V1bVYX1/fdA4tl0tRqVRjcHAwsixiePhEDA+PxNjYyXjuuedicHCoV0D0MIucFoqaCPv1HWdZFoODg8fiWrpfWq1WLC8vF89E9qQYmTk0NLTtPipGNezHFNA8z2NoaGhX1/2D1mw2Y2lpaZev3v2OrlaLYyvt0B5SJ+AAgAO2XQHQ7V5ThANbn7ofl8CT46EISnfTkeqf3rebwGI3bRUAjisBBwAcsq3FEnUm2aunrbWytSaHNgjA54GAAwAAAEie8a4AAABA8gQcAAAAQPIEHAAAAEDyBBwAAABA8gQcAAAAQPIEHAAAAEDyBBwAAABA8gQcAAAAQPIEHAAAAEDyBBwAAABA8gQcAAAAQPIEHAAAAEDyBBwAAABA8gQcAAAAQPIEHAAAAEDyBBwAAABA8gQcAAAAQPIEHAAAAEDyBBwAAABA8gQcAAAAQPIEHAAAAEDyBBwAAABA8gQcAAAAQPIEHAAAAEDyBBwAAABA8gQcAAAAQPIEHAAAAEDyBBwAAABA8gQcAAAAQPIEHAAAAEDyBBwAAABA8gQcAAAAQPIEHAAAAEDyBBwAAABA8gQcAAAAQPIEHAAAAEDyBBwAAABA8gQcAAAAQPIEHAAAAEDyBBwAAABA8gQcAAAAQPIEHAAAAEDyBBwAAABA8gQcAAAAQPIEHAAAAEDyBBwAAABA8gQcAAAAQPIEHAAAAEDyBBwAAABA8gQcAAAAQPIEHAAAAEDyBBwAAABA8gQcAAAAQPIEHAAAAEDyBBzGGlghAAACZUlEQVQAAABA8gQcAAAAQPIEHAAAAEDyBBwAAABA8gQcAAAAQPIEHAAAAEDyBBwAAABA8gQcAAAAQPIEHAAAAEDyBBwAAABA8gQcAAAAQPIEHAAAAEDyBBwAAABA8gQcAAAAQPIEHAAAAEDyBBwAAABA8gQcAAAAQPIEHAAAAEDyBBwAAABA8gQcAAAAQPIEHAAAAEDyBBwAAABA8gQcAAAAQPIEHAAAAEDyBBwAAABA8gQcAAAAQPIEHAAAAEDyBBwAAABA8gQcAAAAQPIEHAAAAEDyBBwAAABA8gQcAAAAQPIEHAAAAEDyBBwAAABA8gQcAAAAQPIEHAAAAEDyBBwAAABA8gQcAAAAQPIEHAAAAEDyBBwAAABA8gQcAAAAQPIEHAAAAEDyBBwAAABA8gQcAAAAQPIEHAAAAEDyBBwAAABA8gQcAAAAQPIEHAAAAEDyBBwAAABA8gQcAAAAQPIEHAAAAEDyBBwAAABA8gQcAAAAQPIEHAAAAEDyBBwAAABA8gQcAAAAQPIEHAAAAEDyBBwAAABA8gQcAAAAQPIEHAAAAEDyBBwAAABA8gQcAAAAQPIEHAAAAEDyBBwAAABA8gQcAAAAQPIEHAAAAEDyBBwAAABA8gQcAAAAQPIEHAAAAEDyBBwAAABA8gQcAAAAQPIEHAAAAEDyBBwAAABA8gQcAAAAQPIEHAAAAEDyBBwAAABA8gQcAAAAQPIEHAAAAEDyBBwAAABA8gQcAAAAQPIEHAAAAEDyBBwAAABA8gQcAAAAQPIEHAAAAEDyBBwAAABA8gQcAAAAQPIEHAAAAEDy/h8zu05szdu7AgAAAgtpVFh0WE1MOmNvbS5hZG9iZS54bXAAAAAAADw/eHBhY2tldCBiZWdpbj0n77u/JyBpZD0nVzVNME1wQ2VoaUh6cmVTek5UY3prYzlkJz8+Cjx4OnhtcG1ldGEgeG1sbnM6eD0nYWRvYmU6bnM6bWV0YS8nIHg6eG1wdGs9J0ltYWdlOjpFeGlmVG9vbCAxMC44MCc+CjxyZGY6UkRGIHhtbG5zOnJkZj0naHR0cDovL3d3dy53My5vcmcvMTk5OS8wMi8yMi1yZGYtc3ludGF4LW5zIyc+CgogPHJkZjpEZXNjcmlwdGlvbiByZGY6YWJvdXQ9JycKICB4bWxuczpwZGY9J2h0dHA6Ly9ucy5hZG9iZS5jb20vcGRmLzEuMy8nPgogIDxwZGY6QXV0aG9yPkpvYW5uYTwvcGRmOkF1dGhvcj4KIDwvcmRmOkRlc2NyaXB0aW9uPgoKIDxyZGY6RGVzY3JpcHRpb24gcmRmOmFib3V0PScnCiAgeG1sbnM6eG1wPSdodHRwOi8vbnMuYWRvYmUuY29tL3hhcC8xLjAvJz4KICA8eG1wOkNyZWF0b3JUb29sPkNhbnZhPC94bXA6Q3JlYXRvclRvb2w+CiA8L3JkZjpEZXNjcmlwdGlvbj4KPC9yZGY6UkRGPgo8L3g6eG1wbWV0YT4KPD94cGFja2V0IGVuZD0ncic/PqoIoBEAAAAASUVORK5CYII=;fontSize=14;" parent="1" vertex="1"><mxGeometry x="320" y="681.73" width="170" height="113.44" as="geometry"/></mxCell><mxCell id="8kHsx0QUj_gs8FxgNmaQ-16" value="temporal 1.2" style="shape=image;imageAspect=0;aspect=fixed;verticalLabelPosition=bottom;verticalAlign=top;fontSize=14;image=data:image/png,iVBORw0KGgoAAAANSUhEUgAABLAAAASwCAQAAABBKHtEAACXVElEQVR42uzdecBXc/r/8eu+u9sXLSoqSwrJckfDhNQwIsuMLZStbCGyDPFtGkQzdmYUI6OyJ2uylFKaJoaUFFq0UmnTct8ZY6tevz/8jKXtXj7nnPe5zvP1+P9Tnev9fl9Xn+UcM0IIiSM1bSfb1w61DnaCdbbz7DLrZTfa7dbfBtlQG26jbaJNsWn2kc2yOTbfPrEltsxW2morsi/sK/vWNtoG+9a+si+syFbbSltmS+wTm29zbJZ9ZNNsik200Tbchtog62+3243Wyy6z86yznWAd7FDb13aymhSCEEIIIWlKNWtqbexYO9MutT52pz1kz9pYm2LzbJWtNwViva2yeTbFxtqz9pDdaX3sUjvTjrU21tSqUURCCCGEJJXatqe1s052qd1sA224/dvm2xfBjFDl8YXNt3/bcBtoN9ul1sna2Z5Wm4ITQgghJNepbwfYidbT7rCn7C1bZN+4GKVK4xtbZG/ZU3aH9bQT7QCrz6IghBBCSGlSxVpaR+tu/ewRG2dz7avMjVMl8ZXNtXH2iPWz7tbRWloVFg4hhBBCfpoa1spOsevsIRtvi20j41MZbLTFNt4esuvsFGtlNVhUhBBCSPZS2w60Lna9PWJv2nLGowgstzftEbveutiBfIeLEEII8Zu61ta62732un3GABSzz+x1u9e6W1ury0IkhBBC0p561s4utv42zpYx5gRimY2z/naxtbN6LFBCCCEkLalohdbN+tt4W8E4E7gVNt76WzcrtIosXEIIISS81LBD7FIbZO9l8CYKPm4E8Z4NskvtEL4gTwghhCSd+tbBrrWnbLZtYEhxYoPNtqfsWuvA3bYIIYSQOFPd2tu19oItZhxxbrG9YNdae6vOoieEEEKiSZ61sG420N4P6Ll+iOv5ie/bQOtmLSyPjUAIIYTkIvXsGLvJRttaBg3YWhttN9kx/AKREEIIKVt2t/PtUZvDUIHNmmOP2vm2OxuFEEII2XbybG/rYcNsKSMESmSpDbMetjcfHhJCCCGbJt8OsCvtBVvFyIAyWWUv2JV2gOWzmQghhJACa2PX2qtWxIiAnCiyV+1aa2MFbC5CCCFZzB52qb1oxYwEiESxvWiX2h5sNEIIIdlIPTvNHrJPGAEQi0/sITuNXx0SQgjxmkp2uN1ik7nnOhK5P/xku8UOt0psREIIIV7S0q6ykfYlbR6J+9JG2lXWkk1JCCEkze9ZdbB7bQFtHcFZYPdaB97PIoQQkq40tHPtefuCRo6gfWHP27nWkA1LCCEk9LSy622SbaR5IzU22iS73lqxeQkhhISXqna8DbQltGuk1hIbaMdbVTYzIYSQEFLTuthzfIUdbr4G/5x1sZpsbEIIIUmljnW1l+xrmjLc+dpesq5Wh01OCCEkzjSw7jbavqMRw7XvbLR1twZseEIIIVGnsfW0f3KzUGTqJqX/tJ7WmM1PCCEkmtHqanub3wcis781fNuuZswihBCSu9SxC2w871oBtsHG2wV8N4sQQkj5UtVOsxftGxor8BPf2It2Gjd0IIQQUvoUWEd7zNbRTIEtWGePWUcr4LAghBBSshxsA2wlDRQogZU2wA7m0CCEELK1NLN+PJwZKLUF1s+acYAQQgj5ZapbN5tAowTKYYJ1s+ocJoQQQr5PWxtsX9AegRz4wgZbWw4VQgjJdhpbb5tDUwRybI715p5ZhBCSxVSyU22kracVAhFZbyPtVKvEYUMIIVnJftbfVtMAgRistv62H4cOIYT4TmU7y96i6QExe8vOssocQIQQ4jHN7U5bRasLWb4aqFBHq5t66296WhM0VXP0ySbmaKom6Gn9Tf+nrjpK+6m+8rh+oVtld1pzDiJCCPGTAjvJxvCY5jBVVKG66W69pJlao3VltlozNUJ3qav2UwHXNVQbbYydxN3fCSEk/Wlsfe0zGlt471XtpTN0l97QynIMVVuyUuN0p7qohfK51iH6zPryG0NCCElr8uwoG87vBMNSSe3UR6O0PIKxanOWaaT+qLaqyLUP7zeGw+0oy+OgIoSQNKWm9bS5NLGQ1FInPazPYhqsfmmJhugU1aQOoZlrPa0mBxYhhKQhTe0eK6Z1haOxLtQIrU5otPqpVRqu87UjNQlLsd1jTTm4CCEk5LSzF2wDLSsUu+gaTQhgsPq5Yo3X1dqJ+oRkg71g7TjACCEkvFSyc2wqjSqc71qdqtdUHNxw9dMxa6Q68d2ssEy1c7jzOyGEhJMGdoMtoz2Foomu1/yAR6ufmqs+akTNQrLMbrAGHGqEEJJ0Cm2IfU1bCkV7Pam1KRmufrBGj+kwaheSr22IFXK4EUJIUjnCxtCMQlFD3TUlZaPVT72rC1WdOoZkjB3BIUcIIfEm306xybSgUNTVn7QoxcPVDz5Vb9WmniGZbKdYPgceIYTEkUp2gX1M6wlFNV2b2N2torBYV6sqdQ3Jx3YBX30nhJBoU8t62VJaTji/FbwoNV9nL91X3y/k94VhWWq9rBYHICGERJGGdosV0WpCka8u+sjhcPWDD3QaTzIMS5HdYg05CAkhJJdpZg/YV7SYcBynSY6Hqx/8Wx2pdVi+sgesGQciIYTkIi3sSR7ZHJJCjc7AcPWDkdqHmodlvT1pLTgYCSGkPGlpQ3n0TUiq6w4VZWi8Wqd1Wqtb+Np7aDbYUGvJAUkIIWXJ3jaM4SosR2pGxoarH3yow6l/eEPWMNubg5IQQkqTfewZ20gLCUk9PZTR4eoHA1WHdRCajfaM7cOBSQghJcl+9izDVWhO1YKMj1frtE7zdTJrIcQh61nbj4OTEEK2lkJ7nuEqNE30HMPV/zytxqyJEIes53l6ISGEbOmdq+EMV+HppmWMVT/zmc5iXYQ5ZA3nnSxCCPl5mtmTDFfhqa2nGKg263HVYn2EOWQ9yX2yCCHk+zSyB+w7WkN49nd9p/bymq5C1kiYvrMHrBEHKyEk26lrt9t/aQkhulCrGKO26nOdxzoJ1X/tdqvLAUsIyWaqWx+eLRimGnqYAapEBqka6yVURdbHqnPQEkKylUrW05bTAsK0t6YyOpXYZLVgzYRrufW0Shy4hJBsJN+62kKO/lCdpRWMTaWyXJ1ZNyFbaF0tn4OXEOI9x9sMjvxQVdIABqYy+asqsn5CNsOO5/AlhPhNKxvHUR+uOhrNqFRmr6o2ayhs46wVhzAhxF8a28M8ujlku+g9xqRyeVc7sY7CtsEetsYcxoQQP6luN9mXHO9h3/NqHiNSuc3h3ljh+9Ju4reFhBAPybfzbSnHetiO1nLGo5xYpt+ynsK31M7na++EkHSng03nOA/duVrLaJQza3Q2ayoNplsHDmhCSDrT0l7lGA/fDQxFOfdH1lU6vGotOagJIelKPXvA1nOAh66iHmIcisQDKmB9pcF6e8DqcWATQtKRCtbDVnN0h6+qhjMKReZZVWGNpcNq62EVOLgJIaGnrb3PkZ2O8WokY1CkXlJV1llavG9tObwJIeFmR3uCozot49WrjECRG8GIlSZP2I4c4oSQ8FLRetk6DmnGKzBipdY662UVOcwJISHlKJvN8Zye8eoVRp8YRyy+i5Uqs+0oDnRCSBjZ1YZzLKdpvHqZsYcRC1sz3HblYCeEJJuq1te+4kBmvMLWvMiIlTZfWV+rygFPCEnug8H5HMXpGq9eYtxJxHBGrPSZx4eFhJAk0tCGcgSnS2WNYNRJzAuqxBpMn6HWkMOeEBJf8qy7reXwTZcKGsqYk6jHlM86TJ+11t3yOPQJIXFkH3uLYzd97mHESdwdrMN0esv24eAnhESbqnarfcuBmz5XM94E4XLWYjp9a7fypXdCSHTpaAs4atPodEabQBSrE+sxrRZYR5oAIST32cGGccSm02+0mtEmGJ+rLWsyvYbZDjQDQkjukmfdrYjDNZ320WeMNUFZrL1Yl+lVxJfeCSG5SlMbx7GaVk30MSNNcGZqR9Zmmo2zpjQGQkh537vqaf/hQE2r7TSJcSZI/1ZN1mea/cd68j4WIaTs2cMmcpSmVyWNZJQJ+AmFBazRdJtoe9AkCCGlTwW7xv7LIZpm9zPGBO1vrNG0+69dYxVoFoSQ0qSlTeL4TLcLGGGC15V1mn6TrCUNgxBSshRYH/uGgzPdfs2tGVJxy4bWrNX0+9r6WAGNgxCyrRTaVI7MtGuoOYwvqTBL9VmvHky1QpoHIWRr71315UE46VdRYxhdUmMkX3b34Vvry/tYhJDNp4VN5pj04C7GllS5jTXrxWRrQSMhhPw8eXYZvxn04QxGltQ5lXXr53eFl3F/LELIj2lsYzgafSjUSgaW1FmhfVi7foyxxjQVQoiZWWdbw6HoQ13NYFxJpQ9Um/XrxxrrTGMhJOupY09xHHqRrxGMKqn1vPJYw548ZXVoMIRkNx1sCQehH70YU1LtStawL0usA02GkCymqvW3jRyCfvxKaxhSUm21WrGOfdlo/a0qzYaQbKW1zeL486S6pjOipN5UVWMtezPLWtNwCMlK8uxqbifqzUDGExcGsJb9+dau5tYNhGQhDWwUR543pzCauPF71rNHo6wBzYcQ3+lgyzjsvGmixQwmbnyqRqxpj5bxlXdC/Kai3cbX2j3enGEUY4krL3PDBq9feb/NKtKICPGXpvYORxw3ZwA3bECC3rGmNCNCfKWzFXO4edSamzO4vGFDIWvbq2Lu8k6In1S3wRxr3JwBafKeqrK+/Rps1WlMhKQ/hTabA82rvzGKuHUX69uz2VZIcyIk3bnYvuYw86qdihlE3CrWwaxxz762i2lQhKT3o8EnOMb8qsrHg+4/JqzCOvftCT4qJCSNaWEzOMA8+wsjiHs3ss69m2EtaFaEpCud7QsOL88O0FoGEPfW8GtC/77gV4WEpCeVbADHlm8V9TbjRyZMVAHr3b8BVonGRUj42dkmcWB5dx2jR2b8gfWeBZNsZ5oXIWGno63isPKuhVYxeGTGSjVnzWfBKutIAyMk1OTbzTxr0L98jWXsyJTXeDZhNmy0my2fRkZIeKlvr3NEZcEljByZcwHrPitet/o0M0LCSmtbxOGUBTtrOQNH5ixVY9Z+Viyy1jQ0QsLJ2fYVB1M2PMO4kUlPsvaz4ys7m6ZGSAipYPdwJGVFR0aNzPot6z9L7rEKNDdCkk09G8thlBWVeThOph+cU5E9kCVjrR4NjpDkUmgLOIiy4xrGjEy7gj2QLQuskCZHSDI5zb7kEMqOJlrBkJFpy7QD+yBbvrTTaHSExJ18u5XjJ1seYcTIvEHsg+y5lXtjERJnatsoDp5sacd4Aa3TweyF7BlltWl6hMSTljaHQydbCvQOwwW0Tm+qAvshe+ZYSxofIdHnGFvHgZM13L0dP7iQ/ZBF6+wYmh8h0aanreewyZr6WsJggf/vU9VlT2TReutJAyQkqlSw+zlmsujvjBX4ib+xJ7Lqfm4/SkgU2c5Gc8Bk0QEqZqjATxRpP/ZFVo227WiGhOQ2TW0Gh0s2jWKkwC+8xL7IrhnWlIZISO5yqK3kYMmmoxknsBlHsDeya6UdSlMkJDc5077mUMmmfG7PgC3criGP/ZFdX9uZNEZCyps8u5njJLvOYpTAFpzG/si2my2PBklI2VPFnuYgya4qmsUgoXVapPt0svZQLe2hU3Q/N63QOq3TR6rEHsm2p60KTZKQsqW+vcMhkmVXMkZoss5Q1V9cl6o6W+9xbdSDPZJ171h9GiUhpU8zm8sBkmW1tTjjA8RMnb3FB8MUqKtmZ/z6fKJa7JOsm2vNaJaElC4H2goOj2z7c6aHh2LdperbuEI19NeM3yPsBvYJVtiBNExCSp5j7T8cHNnWRCszPDhM1yElvE6H6cMMX6cV2pG9gv/YsTRNQkqWC+w7Do2sG5jhsWGoapbiSm2npzN8rQawVyD7zi6gcRKy7fTluMDeKsrowLBWV5X6auWpV4av157sF8hkfWmehGwtBTaIgwKmZzI6LizV4WW8YkdqWUav2ZPsF3xvkBXQRAnZfKrbSA4JmFpndFSYq8JyXLX9NT+j162QPYPvvWrVaaSEbJoGNpkDAibTc5kcE97XLuW8brtpeiav3FPsGfxgsjWgmRLy8+xu8zkcYDIdkMkh4W3Vy8G1a6B3M3lLi/3YN/jBfNudhkrIj2nFXa/wg2czOCK8pwY5uno7aFomf3fJvsH/rLBWNFVCvk9bK+JQwA/fJMreePCBGuXwCjbRjAy+h7Uvewc/KrK2NFZCzI61/3Ig4AfZu6fTTO2U42u4awYfovMEewc/9V9uPkpIZ/uWwwA/KMzcYDBHu0VwHXfXvMy9h7UP+wc/9a11psGSLOdi28BBgB8Ny9hYsCCy22TurU8ydi0fZ//g5zbYxTRZktX05ghAlt+/+lwHRHg1D9KqjL2HtTd7CL/Um0ZLspg72fz4uacyNmCdFfH1PDdj1/NR9hA2dSfNlmQrFXgkDn5pPxVnahy4O4ZrOiBj72G1ZB9hU4OsAk2XZCWV7Dk2PX7pyUwNA2NUMYZrWllvZOqqPsI+wuY8Z5VovCQLqWZj2PD4pb0y9f7VHO0Q03VtlKnfExZpd/YSNmeMVaP5Eu+pYRPY7NjUwAyNAav16xiv7KFak6FrO4C9hM2bYDVowMRzatlbbHRs7n2W1RkaAs6P+epenKlfZjZgP2Hz3rJaNGHiNbVtEpscm9MvQyPA/Qlc339k6PrewH7Clkyy2jRi4jH17D02ODanpj7LTPv/pyoncIWramJmrvAiVWdPYUves3o0Y+It9W06mxubd0WG7tzeJKFrvFOG7uzegz2FLZtu9WnIxFN2sBlsbGxexQw9mvjwBK/zURl6fHYB+wpbNsMa0pSJlzSy2WxqbMmZmWn89yZ8pf+emSt9KvsKWzPbGtGYiYfsZHPZ0NiSPE3KzPsqNRK+1rUy817hm+wsbN1c24nmTNKeXW0hmxl8cLVOR3C1M/JhLFJhoe1KgyZpTjNbxEbG1ozkBpixysoNXUewt7Ati6wZTZqk990rxits1QEZafezVDOQK76dPs7INd+P/YVtj1i8i0VS+t2rBWxgbN2jGWn2RwZ0zY/JyDUfzP7Cti3gu1gkfWnEV9uxLTtrLfduT8BDmbjqa9SYPYaSfN2dXxSSVKUhN2bAtt2ciUY/W7UCu+61NTcTV/569hhKYjb3xSLpSX1uK4ptq5KRe4sfFeC1Py4TV35+Io8lQgrN4O7uJB2py0NxUBJnZ6LJDwz06g/OxNXvzD5DyUy3ujRvEnpq80hnlEwWHj/8sbYL9OrX1bwMXP/x7DOU1HtWmwZOQk4tm8RGRUm0ycQ7KMcEXIHfZ6ICB7DXUFKTrBZNnISaGvYWmxQlMyQDzf3ZwGvwYgZq8A/2GkruLatBIychpppNYIOiZHbQ6gzcJmCPwKvQMgO3yfhc27PfUHITrBrNnISWSjaGzYmS6p2B907uTEEd/pqBOlzDfkNpjLFKNHQSUirYc2xMlFRFzXHf1hepTgoqsb0+y8Bjiiqw51Aaz1kFmjoJJ4PYlCi5Thl436RHSmpxRQZqcQJ7DqUziKZOQsmdbEiUxuvuW/r7qpiSWlTWB+6r8Sp7DqV1J42dhJA/shlRGoUZeM/k2BTV44QM1KMl+w6l9UeaO0k6F7MRUTr3u2/nL6esIq+5r8hf2XcovYtp8CTJdLENbEOURk2tcN7Mi7RvymrSSsXOa7JU1dh7KK0N1pkmT5LKsfYtmxClc777d0sGpLAqA91X5Wz2HkrvWzuWRk+SyGH2XzYgSutf7t8raZjCqjRy/77iOPYeyuK/dhjNnsSd/a2IzYfS2s/9OyVXp7Qy/m/9uhf7D2VRZK1o+CTO7G4r2HgovbucN/EZqpLSylTVLOe1uY39h7JZYbvT9ElcaWDz2XQoSxNf7LyJd0pxdTo7r80nqsweRNnMtwY0fhJHqttkNhzK4nS+5xOwPE1wXp9T2IMoq8lWneZPok6BjWSzoWxGOW/gR6S8Pkc7r89L7EGU3UgrYAAg0WYwGw1l09x5+x7voEYTXVeoWLuwD1F2gxkASJTpyyZDWd3sfMA62kGNjndeo+vZhyiPvgwBJKpcwAZDWVXUPNete6KLKuXpbddV+lgV2IsojwsYBEgUOdbWs71QVr9z/t7I75zU6WTnderIXkR5fMe93Unuc6D9h82Fsnveddt+W3lO6pSvKa4r9RR7EeXzHzuQgYDkMs24sSjKo7GKXLftkx3V6jTXlVqTykcZISgrrBlDAclV6ttcNhXK4yrXTXuK8h3VqoKmua7WZexHlNdcq89gQHKRKvYOGwrl847rln26s2qdxc8RgK17x6owHJDyJs+eZjOhfPZ13bCnuftlWoE+cl2xPdmTKL+nLY8BgZQv/dhIKK9+rtv1WQ4rdq7rit3AnkQu3MyAQMqTM9lEKP/v0mY7btYfqcBhzSppluua5bEvkQtnMiSQsuZQ+5othPJq7/rdkPOcVq2766odzL5ELnxthzIokLKkqa1kA6H87nfcqGepktOqVdEcx3X7G/sSubHSmjIskNJmO5vB5kEuGvUSx426u+PKXeq4bp+6HYwRuxm2HQMDKU0q2Gg2DnLhRMdteq6qOK5cVS1wXLvj2JvIldFWgaGBlDz3s2mQG09xy8rU8nx72MfYm8id+xkaSElzORsGuVFHq9y26KWq4bx622m52+qtVC32J3LncgYHUpIcY+vZLsiN8xy/B3JnBur3V8f1O5v9idxZb8cwPJBtpaWtY7MgV0a7bc/Fap6B+u3leMB6hf2JXFpnLRkgyNZSm8c6I3d2VrHb9jw8IzV82W0Fi9SYPYpcmmu1GSLIlpJvo9gkyJ1rHL//cXRGani84xpewR5Fbo2yfAYJsvncxgZBLk1225qnKz8jNaygGW6r+G/2KHLtNgYJsrmcxuZALhU6fu/j0gzV8UrHdWzJPkWuncYwQX6ZQvuSrYFcusVtW16eqZ/419EKt5W8iX2KXPvSChkoyE9TzxayMZBL+Y6fZXdPxmp5n9tKzlQeexW5tsDqMVSQH1LBxrIpkFuHO/5gqUXGarmv41q2Za8i98by8BzyQ+5hQyDXBrptyS9lsJqvua3mAPYqonAPgwUxMzubzYBcq6zPeEywI34f2b1IFdmviMLZDBektX3FVkCuHe22IX+UmRs0/FSBZrmt6BHsV0ThK2vNgJHt1LdFbATk3gBuTumM35vG3sN+RTQWWX2GjOwm315nEyD38jXPaTNeoToZren2+txpTWfzS0JE5XXu7J7d3MwGQBTa8JVofraQIgewZxGVmxk0spmOtpHljyj0c9uK98lwVVu5reoN7FlEZaN1ZNjIXna2VSx+RGOq00Y8KuN1Heu0ru+yZxGdVbYzA0e2UskmsfARjRZu3+k4MeOV7eS2sruxbxGdSVaJoSNLGcCiR1SudtqE56gg45WtqAVOa3s5+xZRGsDQkZ10ZsEjOuOdNuF+1Fa3Oa3tGGqLaHVm8MhGWtgXLHdEZUcVO23CLamu9nNa2yLVp7qI0hfWguHDf6rbDBY7onO+0xb8L2ork+nfTut7DrVFtGZYdQYQ73mChY4oDXfagC+itjKZLnNa32eoLaL2BAOI71zCIkeUamqVy/a7WnWprkymBlrjssIrVY3qImoXM4T4TSv7miWOKJ3i9P2NJ6nt/zzjtMa/p7aI2tfWikHE67evZrPAEa0hTpvvcdT2f050WuN/UFtEbzbfxPKZISxuRKuiPnPZeheqItX9n8pa5LLKn2b+PmeIxRCGEe59BZTaEU7f27id2v7M3U7r3I7aIg7cE8tZdrNiljWido/TxltIbX+mtdM630FtEYdi242hxE8q8uRBRC9Ps1223bep7SamuKz0DCqLeEyyigwmXnIbCxq8r1FWPantJv7gtNb7UVvE4zYGEx/pYBtZzojeDS5b7lo1pLabaKQil9XuTW0Rj43WgeEk/Wlgy1jMiMO7Llvus1R2s150We23qCzisswaMKCkO3k2ioWMOOzm9EOjk6jtZp3qtN47U1vEZZTlMaSkOVeziBGPy12220WqTG03q6rTe55dQm0Rn6sZUtKb1vYtSxjxGOOy3d5DZbdogMuKv0plEZ9vrTWDSjpT1WaxgBGP+k6/9PwrartFBzv9UUMdaov4zLKqDCtpzAAWL+Jyjstm+x6V3arpLqvehcoiTgMYVrg5A7AVz7hstVdT2a36P5dVf5LKIk7csCF1qWNLWLiISzWtdNhoi9SY2m7Vzip2WPcVqkptEaclVoehJU15ikWL+PzO5TsZr1HZbRrnsvIdqSzi9RRDS3rSmQWLOPn8PdnFVHabfN6cg9+OInadGVzSkca2huWKOH3ksMkWqwmV3aZdXQ5Y06gs4rbGGjO8hJ88G8NiRZyauWyyb1DZEpnosvo7UVnEbQz3dQ8/PVmoiNcFLlvsFVS2RK5xWf2uVBbx68kAE3Za2H9ZpojXEy5bbFMqWyK7u6z+w1QW8fuvtWCICTcFNplFinjla5HDBvsmlS2xSQ7rv1B5VBbxm2wFDDKhpi8LFHFr7fIdjF5UtsT+6HIFFFJZJKEvg0yYKeTRzohfL5ftdQ8qW2J7u1wBV1JZJOFbK2SYCfHjwaksTsTvVYfN9V3qWirvO1wDI6grkjGVjwnDSx8WJuJXVascNtc+VLZU+rp8YE5lKotk9GGgCSst7RuWJeJ3pMuPh/alsqWyv8tV8Bsqi2R8Yy0ZasJJBZvEokQSbnHYWKdT11Kb4XAd9KWuSMokq8BgE0p6sSCRjH87bKw3UddSu9XhOvgXdUVyejHYhJE97CuWI5LQQMUOG+sBVLbUfu1wHRSpLpVFUr6yPRhukk++TWQxIhmnOmyrM6lrGeTpY4dr4SQqi+RMtHwGnKRzOQsRSfm7w6Z6G3Utk7scroV7qSuSdDkDTrLZzf7DMkRSZjpsqm2oa5m0c7gWPqCuSNJ/bDeGnOSSZ2+wCJEUj4/5naN8KlsmFbTA4XrYlcoiSW9YHoNOUrmIBYjkdHfYUO+mrmXW3+F6OJe6IlkXMegkkx2siOWH5DzlsKG2p65l9luH6+Ex6opkFdkODDtJZBiLD0l+JLTEXTtdqApUtswqarG7FfEpHxkjacMYduJPRxYeknSQw/cr7qOu5fKgwzWxP3VF0joy8MSbqraAZYckXeewmR5FXcvlOIdr4g/UFUlbYFUZeuLMbSw6JOs1d610papS13KprlXuVsXL1BXJu42hJ77sY9+y5JBsK13trpUOp67l9rK7VfE5YzeS963tw+AT192v3mLBIVlHO/wwqAd1LbcrHK6LI6grkvcWd8Ti7lfIiNscNtLdqWu5tXS4LvpRV4SAO2LFkIa2lqWGpE1y10Y/oqo5MdvdyphIVRGCtdaQASjqDGWhIWk7OHyf4h7qmhMD3K2MYtWjrgjBUAagaHMUiwzJO93hgHUsdc2JExyujVOoK8JwFENQlHe/ms8SQ/L83VBylapT15yopTXcgBaIxnzuiBVdbmKBge/ZcLejsL3G9/OAqNzEIBRNmtpXLC8kr6nDD4GuoK45c43D9dGEuiIMX1lThqEoMpzFhRB0cdhAW1LXnCl0uD46UVeEYjjDUO5zNAsLYfibu/Y5i6rmUJ7muVshd1FXhONoBqLcpqLNZlkhDO+4a58DqGpODeReWEB0ZltFhqJcpheLCmGopSJ37fME6ppTndytkLX8yhQh6cVQlLs0si9YUgjDke6a5xrVoq45VcfhEP4b6opwfGGNGIxylSdYUAjFn9y1zteoas6Nc7dKrqOqCMkTDEa5SVsWE8LxsrvWeTVVzbne7lbJcKqKsLRlOCp/Ktj7LCWEooKWu2udhdQ151q7WyVLlE9dEZL3rQIDUnnTg4WEcPi7x9Fc5VHXnMvXQncrZW/qirD0YEAqX+rZapYRwnGRu7Y5kKpGYrC7lXI+VUVYVls9hqTy5AEWEUIyhHt0o0Q6u1sp/6CqCM0DDEllT0tbzxJCSGY6a5pFqkNVI1Ffxc7WygdUFaFZby0ZlMqakSwghKSxu3clxlHVyPzL3WppQFURmpEMSmVLBxYPwnKKu5b5f1Q1Mte7Wy2/p6oITweGpdIn36azdBCWO921zNZUNTJt3K2Wv1BVhGe65TMwlTbns3DAhz7RWsy9jSJUoGV8oAxE73wGptKlui1l2SAs1bTGWcN8hqpGariz9bJKVagqwrPUqjM0lSY3sWgQmnbuPvK5gqpG6hp3K+ZgqooQ3cTQVPI0ti9ZMgjNtXwDCxn/FtZVVBUh+tIaMziVNA+zYBCe5501y2UqoKqRqqQVztbMMKqKMD3M4FSy7G8bWC4ITZ4WO2uWL1LVyL3ibM0spKYI0wbbn+GpJBnHYkF4Wrr7uOcaqhq53u5WTXOqijCNY3jadn7HQkGIznXXKttQ1cj5+2HEWVQVofodA9S2bi86g2WCED3orFGuUCWqGrmqWuVs3dxHVRGqGdxydOvpyiJBmKY5a5SvUNNYjHa2biZTU4SrK0PUllPJFrJEEKL67j7q6U1VY3GDs3VTrDpUFaFaaJUYpLaUniwQhOl4dwNWO6oaiyPcrZyjqSrC1ZNBakuPx1nO8kCY/uzuoSdVqWosqrt7wNKNVBXhWs5jczafPiwOhOp1Z01yDDWNzXhna2ckNUXI+jBMbZq6VsTSQJgq63NnTfIGqhqbfu5+f1qRqiJcRVaXgeqXuZ2FgVD5e6bcEVQ1Nh3drZ4DqCpCdjsD1c/TyP7LskCornDWINeoOlWNTS0VOVs/PagqQvZfa8RQ9dM8wKJAuB531iDHU9NYTXS2foZQU4TtAYaqH9PMvmNJIFwfOmuQ/ahprG53tn6mUlOE7TtrxmD1Q4ayIBCu7dx9h6YjVY3V75ytnyI+YkbohjJYfZ/9bCPLAeFq7649bkdVY1VPxc7W0CFUFWHbaPsxXJmZDWcxIGQ9nTXHidQ0dpOcraGLqSlCN5zhyqyQ968QtsHOmuPt1DR2dztbQwOpKcJ/D6uQAet5FgLCNsVZc/wdNY3dyc7W0NvUFOF7nu9f8f4VglbN2V2MilWPqsauobs7qVWmquB7WIHnORYBwvZrZ61xEjVNxFTu5g7E7bksj1f78P4VQtfdWWO8m5omYoCzdXQeNUUa3sPaJ7sD1jMsAITu784a48nUNBGnO1tHf6OmSINnsjpe7c37Vwjfm84aYxNqmoimztbRP6kp0vEe1t7ZHLCGUXyErpJWu2qL86lpYha5WkkrVUBNkQbDsjhetbQNlB6ha+XsfYdnqGlihjtbS3tTU6TBBmuZvQHrKQqP8HV11hSvo6aJ+ZOztXQGNUU6PJW18aoF718hDe5x1hSPpKaJOcbZWrqDmiIt72G1yNaA9SRFRxq84awpcpPR5Hi72ehr1BRp8WSWxqtmtp6SI3wVtMJVS/yAmiZqpqvVtFR51BTpsN6aZWfAeoCCIw32cvaewxBqmqgnnK2n5tQUafFAVsarhvYV5UYadHbWEC+jpom6ytl66kRNkRZfWcNsDFi3UGykw63OGuLB1DRR7Z2tp5upKdLjliyMV7WsiFIjHUa6aodrVY2aJqqmil2tqBHUFOlRZLX8D1i9KDTSIU9LXLXDf1PTxE1xtaI+oaJIk17ex6vKtpQyIx28PT3uPmqauAd5siWQlKVW2feAdQFFRlqc5KwZnktNE9fd2Zo6npoiTS7wPF7l28eUGGnR11kzLKSmiWvtbE31oaZIk48t3++AdQoFRnr4ejjvShVQ08RV1moeHg4k5xS/A9Zkyov0WOCqFY6lokGY4GpVfUxFkS6TvY5XR1BcpEdjZx/m3E5Ng+Dt8eENqCnS5QifA9YYSov0ONZZIzyNmgbhTGfr6khqinQZ43G8KqSwSJPezhphM2oaBG/Pt7yGmiJtCv0NWA9TVqTJMFdtcLHyqGkQ8rXM1cp6nJoibR72Nl41sK8pK9JkFg81QSR8PYDpAyqKtPnaGvgasG6kqEiTes4+yLmBmgajn7O1tR01Rdrc6Gm8qmTLKSnS5HBnTfA4ahoMb08IaEtNkTbLrZKfAasrBUW6XOKsCe5ITYOxk7O1dSE1Rfp09TNgTaWcSJd7XbXA2VQ0KPNdra67qCjSZ6qX8ao9xUTajHbVAodS0aA862p1vUxFkUbtfAxYL1BKpM0nrlrg1VQ0KL7usTaXiiKNXvAwXjW1DZQS6VLf2bdkDqemQengbH3VpqZInw3WNP0D1j0UEmlzGA0QDPAl9mtqijS6J+3jVU0rpoxImwtctb+ZVDQ481ytsK5UFGlUbDXTPWBdThGRPne5an/PUdHgjHC1wm6lokiny9M8XuXZPEqI9HnJVfu7iYoG51ZXK+wFKop0mmt56R2wjqaASKM5rtrfaVQ0OGfxITQQgqPTO2ANp3xIn1rOvoK8DzUNzv6uVlixqlFTpNPwtI5XTWw95UP6HOSq+a1RJWoanKoqcrXK9qemSKf11jidA9ZNFA9pdI6r1jeJigbpfVerrAsVRVr1TeN4VWCfUTqk0V9ctb4hVDRIT7haZX2pKNLqMytI34B1MoVDOj3vqvVdQ0WD5OtxOcOoKNLr5PQNWGMoG9JphqvWdwwVDdIJrlbZNCqK9BqTtvGquW2kbEijaip21fp2pqZBau5qla1VZWqKtNpozdM1YN1J0ZBOrVw1vmXKo6ZBytcKbgYChOHONI1XlW0VJUM6dXbV9sZS0WD9y9VKO4WKIr1WWeX0DFhnUTCk1Y2u2t69wb1vU0U1VU87amc1V0sV6kAdqsPVQcfpJJ2iTuqkU3WaTldnddEZOlNn6Wydo67qpvN0ns5VN3XVOTpbZ+lMnaEu6qzTdZpOVSd10ik6Scepg36jQ3SgCtVSzbWzdlQ91VQV5Qd2LR5wtdL+yNmBNDsrPQPWW5QLafWUq7bXPefXp5LqqIn21AFqp2PUSV3VQ9fqJt2hv+p+PaRHNFTPaYRGaZwm6h1N1Uf6WAu0RCu0NvFvCq3QEi3QbH2oqXpHEzVOozRCz2moHtFDul9/1R26Sb3UQ13VSR3VTgdoTzVRnQhu13qZq5X2GGcH0uyttIxX+1EspJevG0C2LdG/uUC11Ei7q5UO1VE6WWfrIl2tG3SH7tPDelYjNUFTNEuLtcbZY4RKd0/8RZqlKZqgV/WsHtZ9ul036GpdpLN0so7SoSrU7mqkWqpQoqt+ODe0BcKxXzoGrAGUCmlVOfF3WXKr7v/+ZTW1kwr1G52oc3WVblZ/Pa5X9KZmammGh6aoLNUMvamX9bj662ZdpW46Ue1VqJ1U838VaejqX7xKBZwfSLMB6fiC+2pKhbTa29mP55/XG5qqhc7GxrS/E7ZAUzVOzzu7IcgenB9Is9Vp+KL7qRQK6XUyAwBQJr/j/EC6nRr+gDWKMiG9etMogTLpxfmBdBsZ+njV2NZTJqTXozRKoEwGcX4g3dZb47AHrN4UCWn2Do0SKJOJnB9Iu95hD1hzKBHSq4JW0SiBMlkR3K1cgVKaE/J41ZYCIc12p00CZbYLZwjSrm24A9ZgyoM0O54mCZTZ0ZwhSLvBoY5X1e0LyoM0u4YmCZTZFZwhSLsvrHqYA1Y3ioN0e4gmCZTZ3zlDkH7dwhywJlAapNtEmiRQZm9whiD9JoQ4XjWjMEivGjpAZ2gFTRIos2Xqov1VnfME6dYsvAHrz5QF6VJHbdRNt2q4ZtIcgRwp1ky9oFvUVb9Wbc4ZpE+/8AashZQF4Wuo9uquu/WK5tEKgcjN1cu6SxeqnRpw/iAdFoY2Xh1CURCmPDXRkbpUA/S6FtHwgMR8qtHqrx76rZpwMiFkh4Q1YN1HSRCOCtpNx+oPelATtIzGBgT4fa1/aqCu1DFqyh3gEZr7QhqvCmwlJUGyKmovnaj/0xD9W5/TwIDUWKm3NETX6QTtqYqcZUjeSisIZ8DqSEGQjO11hP6gRzVFa2hUQOqt1mQ9oit1uOpxviE5HcMZsB6jHIhTYx2r3hqmWTQkwK2Zekq9dYwaceYhbo+FMl5V5RE5iOPL6rvpJPXVi1pI6wEyZb5e0A06Ubsqj7MQcfjCqoYxYJ1OMRDd19X3UmfdppH6jDYDZN4SvapbdLpaqALnI6J0ehgD1ghKgdyqrFbqqnv0BvdWB7BZKzRWd+scFaoSZyZyb0QI41Ud+4ZSIBeq6dfqrr/rTa2mfQAooVWaqPt0oQ5SVc5R5Mo3Vif5AetCCoHy2E7tdbkGa4qKaBUAyqFIkzVIl+kw1eJsRXldmPyANZ4yoCya6UwN0GQV0xYA5FixJuleddFunLUoq/FJj1eNbQNlQMlVURtdqaf4JSCAmH6B+KQu10GqzPmL0tlgjZMdsK6mCCiJBvqd/qyxWsWBDyABn2uM+uk4bc95jJK6OtkB6x1KgC3LV0udpwc1neMdQCDe1wPqphbcUwvb8k6S41UT20gJsLnfA7bXtXpBSzjMAQRqkZ5TLx3Gbw+xJRutSXID1uUUAD/VRJ10pyZqLYc3gJRYowm6XSfzSB5s6vLkBqwJXH6YCtRKF+lhngwIINVmaoi6q5C7xOMHE5IarxrwC8Jsq6R26qNXtJyDGYAjy/SSeqst94jHBmuQzIB1ERc/m/K0j3rqBR5jA8C15XpOPdSSUz/LLkpmwBrDpc/ed6zO0mDN5+AFkCFz9ZDO4Dta2TQmifGqrn3Hpc+KWjpOd+k9DloAGTZZd+gY1aAnZMl3Vjf+AasbF96/ijpEfTSWXwUCwP9+dThGvdVGBfSIbOgW/4D1Mpfds5bqoWf5+joAbMFSPa2LtSf9wruX4x6vatrXXHaPdlQXPaS5HJ4AUCIf60Gdrh3oH159bTXjHbC6cNF9qaFjdIfe5bAEgDJ5R7fpKFWnn/jTJd4B6zkuuQ8FaqPeGqM1HI8AUG6rNUrX6SBuVurJc3GOV1XtSy55+n8Z2EkP87RAAIjAYg3RSfzi0IcvrWp8A9bvuOBp1kgXaLhWcwQCQKRW6Xmdy/ez0u/4+AasB7nc6dRC12i8ijn2ACA2xRqnq7Q7PSi9HoxvwFrC5U6XfLXRnzWNgw4AEvOebtKByqMnpc+SuMar/bnY6VFFHTWAh9sAQCDm6l51UGX6U7rsH8+AdT2XOg3qqLMe51ahABCgZXpUp2o7elVaXB/PgDWJSx22nXSxXubGCwAQuNUaoe5qTN8K36Q4xquGtpFLHap91VsTObQAIFX+pWvVkh4Wso3WMPoB61wudHgq6DDdro84pgAgtT7QLTqEW5SG6tzoB6wXuMwhqaijNVCfcDQBgAsLdb+OVAH9LTTPRz1eVbIvuMyhOEh3ayHHEQC4M193qjV9LiRfWKVoB6yjuMghaK4++oAjCABce1+9tRs9LxRHRTtg9ecSJ6uBLtEEjh0AyIw31F3b0/+S1z/aAWsBlzgp1XS6hmsthw0AZM4aPadOqkovTNKCKMerllzgJBSogwZrBUcMAGTaMv1DR/A7w+S0jG7AuorLG7fWupMH3QAA/meublMr+mMSropuwBrF5Y3Pbuqt9zlKAACb8Z6u1S70yniNiu4WDV9yeeNQQ+dqHMcHAGAbxugcVadvxuXLqG7VcDgXN457W93PA5oBACW2VP25Z1ZcDo9mwLqFSxulurpU73JUAADK4G1drDr00qjdEs2ANYVLG408Ha6HtYoDAgBQDis1WO2UR1+NzpQoxqt6toFLm3uNdK0+5FgAAOTIdF2tHeiv0dhg9XI/YJ3Ghc2tCjpOz3DjUABAzq3RU+qofHpt7p2W+wHrIS5r7tTT1ZrJEQAAiNBHuoLvZeXaQ7kfsD7hsubG/hqoz9n4AIAYrND9KqT35s4nuR6v9uCill8lncb9rQAAsRujTqpIH86NPXI7YF3KJS3vl9n7aB6bHACQkDnqrYb04/K7NLcD1otc0rI7VI9qDZsbAJCw1RqiX9OXy+fFXI5XBVbMJS2Lyjpb/2ZLAwACMlFn8IFh2RVbQe4GrDZc0NLbTn/QXDYyACBAs3WFatKry6ZN7gas67icpdNEt2oZGxgAELDP1E+N6Nmld13uBqxXuZwlt68e4htXAICUfCvrAe1F7y6dV3M1XuVbEZezZH6jF9muAIBUKdZzOoweXnJFlp+bAesALmZJHnzTSRPZpgCAlPqnTlIF+nnJHJCbAetKLuXWVVF3fcTmBACk3Ac6T5Xo69t2ZW4GrOFcyq0NVxfpYzYlAMCJmbpQlenvWzc8F+NVnq3iUm5eVV2iOWxGAIAzs9SdIWtrVlle+QesfbiQmx+uenCXKwCAW7PVXVXo91uyT/kHrB5cxk2Hq8t4riAAwL2PdTFD1ub1KP+A9TSX8efDVU+GKwBAZszRJapK//+lp8s/YC3jMv44XF2u+Ww2AEDGzFUP3sn6uWXlHa/24CL+cJ+rrvxaEACQWTN1hvKZB360e/kGrAu4hCbTsZrM5gIAZNzbOoqZ4AcXlG/AeoxL+GuNYVMBAKB1WqeRas1wJZM9Vr4Ba262L98eGspmAgDgZx5TMwasueUZr+pl+dLtoP5ayzYCAGATa3SPGmR9xKpX9gHr2KxetJq6QSvYQAAAbNEy9Vb1LA9Yx5Z9wLo5ixcsX+drIRsHAIBtmqdzlJfVAevmsg9Yo7N3udpoIhsGAIAS+6d+lc0Ba3TZH/O8NmvfuvqHitkqAACUSrHuV/3sDVhry/rI572ydJkq6nItZZMAAFAmS3SJCrI2Yu1VtgHr3OxcosM1hc0BAEC5TFK7bA1Y3co2YA3MxuXZWU+yKQAAyIlH1CQ7A9bAsg1Y0/xfmirqze0YAADIoRXqpcrZGLCmlWW8qm7rvV+YdprORgAAIOfe0yFZGLDWW/XSD1jtfV+UWhrABgAAICLFukc1/I9Y7Us/YF3n+YIcp49Z/AAARGqmjvI+YF1X+gFruNeLUV+PsOgBAIjFINXzPGANL/2AtcTnpeisT1juQGLWaIUWaZ5mapomaaLGaZRG6Fk9qSf0uB7VI3pYQzREgzVID+kfelAD9YD+rvs1QP01QPfr73pAA/Wg/qGHNEiDNURD9LAe0aN6TI/rST2rERqlcZqoSZqmmZqnRVqhNVx7IDEL1MnvgLWktONVfY+XoYleYKED5bRC8zRNE/WantPDGqA71E/X6zpdpR66UOeos07W8eqg3+hgtda+2lO7qrG2Vy1VUX6iTxmtolraXo21q/bUvmqtg/UbddDxOlmddY4uVA9dpet0vfrpDvXXw3pWozRR0zSP3xoD5faMGnkdseqXbsA6ytsFyFN3LWOJA1u0Ugv0gd7SaD2vR3S/btefdKUu0Ok6Tu3VWnuqsWqpQkYf6pqvWmqkPXSA2us4na4LdKX66Dbdp0f0vEbrLX2g+QxiwFZ8pvN8Phb6qEx/xb2JXmVxI+OK9Kne1zg9qwd1q3rpfJ2ow/UrtVATbZe9B1xEpIK2UxO10K/0G52g83SNbtFAPaOxmqpPVcQ6RMaN0I6Z/5r7ME//+JO1mGWNjPhcH+ttvarHda9uVE+dqWN0kJqrbqIfz+GH98HqqrkOUkedoct0g/6mx/SK/q3ZWsnaRUZ8ot9529nDSjdgfezlH15df2dBw7W1ulCn6HAVqomqMcSkVlU1UaEO1ym6UNfpdj2k5/UvfczX8+FQf1X1tHs/Ls14VcM2+vhnt9Y0ljKcW8hw4lqettfeOlyddYVu0WC9rHf1KeseKfeeCv3s0g1Wo+QD1qE+3oy/hv/7IRMHFUNI9lRSE7XWCeqhv+gRva6ZnHZImdW6ws9X3g8t+YB1mYevtY9iASMTXmfcgEz5aqRf6UT10C16RGMZuZACL3u5dcNlJR+wBvO1diAtnma4wBZHrgN1oi7VLXpUYzVLa9kvCMynPr7yPrjkA9bUdH9V9D4WLTLkAUYJlPgmEo11oE7RH/Q3DddUfruIIPxVldO+t6aWdLyqaN+k95+5i95kuSJT/sLggDJ/gX4H/Vqn6hr11whN0yr2ExIxQU3SvZe+sYolG7BapfcfeQS/rkHmXM2ggJx9qNhYB+t0Xaf79bI+5FtciM1CtU/37mlVsgHr3LT+A6/mPsnIoHMZDBDZR4pN1FZnqLcGaiz/fUWk1qpnmnfLuSUbsPqn8R9XQ0+wQJFJJzAIICZ1dJDO0I16XG/z3EVE4OH03iy5f8kGrPHp+6ftrsksTWTUYTR+JPL9rZ10uLrrDg3Xh3x6gBx5R7ulc0eML9mAtTJt/7Dj9BnLEpnVkmaPxFXWfuqiP2u4PmZPolwW6+g07oEVJRmvtk/blzL/pGKWJDJsB9o7glJbbdVd92os//VFmRTr/9J4j/fttz1gtUvTP6ianmIxohSK9L6e0P2u/k2VaekI1s46RtdoiCZpNecPSuGx9D0Out22B6xL0vPPqa9/sgxRAvM0QrfqLO3//7dse0f/tmU0caRCRe2j03STntNMziSUwFjVTdcav2TbA9aAtPxjmukDliC2aLnG6z5dovaqt8naOdHRv3MGrRupU0sH6wLdo9E81AxbMVW7pmldD9j2gDUuHf+UA7WQ5YdNzNLjulbHq+lWP8Hv5uhfPJF2jVRroqN0lYZoGucXNjFf+6dnLY/b9oC1PB2/G+QeLPjRp3pRf9KxalDC9XOVo3/7CFo03Hw5/ghdq2Gay5mGn3wWcVRaVvDybY1XddPwz7iQe65A67RCY3SbOpXhrik3OboKQ2jMcKexfq+b9DK/QoTWaa26pmXl1t36gHVY6P+APPVlwWXaGr2l/uqmfVWhzKuov6PrcRftGG7laQ910V0ar885+zKtTzpWbNutD1gXhf47lEEstYyapiHqoTY5+enuY46uyx9pw8iAStpfF+oBvcvnFxn1gArCX6cXbX3Aujfkv3xVPc8yy5g5GqZrdYRq53QlvezoCl1M80Wm1NBhukKPcbOHzBkW/j3/7t36gDU25PHqJZZYRizTy+qr36txRGvpTUfX6jRaLjKqvjrqj3pBSzgzM+KF0EessVsfsJaGO169zPJyb4me1RX6VeRvBc9wdM2OpNEi4/JVqB4aqk84Q90briohr8WlWxuvajNeIQmfaKh6qFD5Ma2npY6u3QE0WOD/fyW+pbrrEW7zwIiVnNpbHrAODHW8eoVl5dJcPaIL1TLmx3oWuLqGu9JYgV9orm4axLe0nHox5BHrwC0PWF3CHK9eZUk5M1OD1E3NE1pR27u6lrVop8AW7KIz9QAPVXNnRLgjVpctD1jXM14hSh/o7zpTuyT+v1s/V3QNTRTYpsY6TffqPc5gRyNW1TDX2vVbHrAeDe0vW00jWUoOvKd7dWpkvwksrQMdXdl5NE+gxBroJN2lt1XMqcyIFY1HtzxgvRnWX7UK371Kuem6WyeV+AmBcTnK0RWeTNMESq2ujtftvKOV+u9iVQpvbb2Zkgc95+spllBKrdDzukjNAj1cT3N0pcfTLIEy21nna5iWcWan1GOx/fK8xLb4wOcaYf1F72b5pPLDwNv027B/RquLHF3vl2iSQDlVUnv10zuc3yl0W3jrqcbmB6xWIf0lr2TppMoyDdMF2jkVx+n/ObruQ2mPQM6+Ct9Vj3Nf+JTpEdo6arX5AatTOH/FTnwJMTXe0Z/VPsTPwrfoFkdX/x+0RSCnCnSIbtREelBKFOmEsFZQp80PWNeF8hdsq1Usm+At0ePqGswvA0vjXkdVuJuGCESioc7QEH3KWR+8lWoT0sq5bvMD1kNh/PVaaDFLJmDFmqgbdUjkzwuMzmBH1biJRghE+mOrA/VHjVcRZ3/APknsttWb8dDmB6zxIfzlduDxBsFapCE6Qw1Tf2R6+nVqL1ogEIN6OlUPaSF9IFAfqn4oa2X85gesxcn/1WroTZZKgBZogI5URSdH5UuOKnMxrQ+ITQW11z08TDpIE1QtjFWyeHPjVRXbmPRfLE/DWCaB+Vh3q50quDok33BUn7NpekDsHxserNv5rCU4jysvhPWx0apsOmC1TP4v1pslEpCZuk1twliwOTbJUZVOot0BCb0h0Fo3azq9IiDXhLE2Wm46YB2T9F/qcL5GGIhpukkHOD4YP3JUqyNpdECi9tOfNJm+EYS1OiyENXHMpgNW92T/So20gOWRuHfVR/u6PxA9fVG1DQ0OCEALXae36CGJmxvCz7C6bzpg9UvyL1Sg0SyNRL2pXtojI0fhSkd124fWBgSjqa7SP+kniXol+e8M99t0wHokyb9QP5ZFYne1ekNXaNdM/Q7IU/12oakBgWmiHhrDV14Sc33SK+CRTQesN5L76xzLQwkS+lnrJam8E3v51HRVw3q0MyBIO6i7xtJnEnnbIOHvpr6x6YA1N6m/zM5axJKI2Rz1014ZPfZ2dFXJyjQyIGDNdQM3dIjdJ2qSZNXnbjpgfZXMX6WSJrAcYrRSD+tIZ/e1Ku2B56eaq2lgQPDydbge0gr6T4zGJnlj7K9+OV7VT+qv8heWQmxe13mqlfnDrtBRRRfRvICUqKGzNYqvw8TmxiSrXf/nA1brZP4abVlusZip69WMI04m0yGu6ko9gTTZRb31IT0pBkX6dXJ1bv3zAevEJP4SVTWNZRCx5fqHfuPyfuxl1cFRdSdRTyB18nSo/q6l9KeITUnuO6on/nzA6pnEX+JmlkCkv6QYqTNVnePsF05yVONx1BNIqao6XSO4mUOk/pRUdXv+fMC6I4nvwqxhAUTkA/2fduYI26yzHNV5BPUEUq2JrtFUelZkPwPaO5m63vHzAWtY3H+BAk2k/JH8SvABHcKxtRXdHVX7CeoJOHCQ7uNXhpEYr/wkKjrs5wPWW3H/Ba6i9BF85fkabjy5TX9wVPGB1BNwoo6udPUg+lBcmkQ13/r5gLUo3j9+N6b1HBulEzN9d6uSu95R1e+inoAj+TpeL9PPcvxDrwS+LrPo5wPWN/H+huJVyp4zKzSAR/6Wwu2Oat+XegLutNBftZzelubvqn7z0/GqTrx/+DmUPEc+0hWqw4FUKgMc1f8a6gm4VEuXajo9Lkc6x1/BOj8OWC3i/IO30wIKngMv6bhkvr6XckMcrYGLqCfg+APDozWcm3HnwFzViLt6LX4csNrF+QfzcJzyf6Z8j1pw/JTRM45WwpnUE3Bud93JTUnLLfYH57T7ccA6Nb4/trFWUuxymK4ePE+wXDx9/+8E6glkQA1dpPfof+X6rnLDeGt26o8D1mV8AyYNhutoHnpTbv90tCKOoJ5ARuTpt3qOPlhm98Rbr8t+HLD6xfdm51oKXQbFGqpWHDE5MdnRujiIegKZsq8e51tZZbJaTeOs1M0/DlgPxvWHPkqZS61Ij3Ibhhya6Wht7E09gczZS0N4hmEZDI6zSg/+OGC9GM8f2YrJu5TWarD25EDJqUWO1gfPmwSyqbke5Gm+pf4kKMa3Kl78ccB6O54/8kVKXApr9ICacZDk3CpHa2QH6glk1q66T6vplaXwbHzVefvHAWt+HH9gO8pbYqvUX7twgESgoqt1wk1mgWxronv0OT2zxA6OqzLzfxyw/hPHHziW4pbISt2lJhwcEdnO1VqpTkWBzGukO3i6bwmNiqsq//lhvKrO+1fh3KvjNj72iVQDV+ulIhUFIFMD/ZnnF5ZIm7hqUv37AatpHH/YCxR2G5bpZtXnoIj8DXVPX9mkngB+UE83cs/3bXo6rno0/X7AahP9H9WM3w9u4w4dt6suB0QMmjpaNZ9TTwA/U1u3uPohTxQ3Porp+81tvh+wjov+j7qNsm7FM9qdgyEmezpaN0upJ4BN7Kah9NWtuDmeOhz3/YB1ZtR/UFUtpqhb8G/9hgMhRvs6WjsLqSeAzTpME+mvW/CJqsRRgzO/H7AujfoP6kZJN2uezlU+R0GsDnC0fj6mngC2IF9naw59drPOjKMCl34/YPWJ+g96i4Ju5vszfVWDQyB2bRytoQ+pJ4CtqK7ruYHDZkyI4+r3+X7AuivaP+ZgyrmJR3jISUI83S7kPeoJYBuaaAg/MttE6+iv/F3fD1iDov1jhlDMn/lnfPfhwCZ+6+r7e9QTwLYdyI2+f+HB6K/6oO8HrOei/EMa8Kykn5il05XHdk/QMbzNDSCDOmkmPfgnX9KpF/UVf+77AWtslH9IT0r5v4L2VlW2ecJOcLSixlBPACVWRb20kl78/10U9fUe+/2ANYUvuEdvvFqwwYP4X5yfNfUK9QRQKrvzYWFcnwBM+X7Amh/dH9GcMmqdVupKVWBrB+EMR+vqBeoJoJTydRm/LNQ6rYv6p2bzvx+wVkf3R1xBETVOe7Cpg+HpnmzDqCeAMmimMfRm9Yj2Kq/+fsBaH90f8Xrm37u6nFuJBuVCR6vrUeoJoIzvY/XI/PtYr0Z7jdebmdWM7g+or6JMl+91NWcjB6aHo/U1iHoCKLPd9FqmO/Ra1Y32Ctc02ym6l++a4dKt0KW8dxWgKx2tsfupJ4ByyNNFWp7hPt0l2uu7k9l+0b38M5kt22g1Y/MG6VpHq+yv1BNAOe2qkZnt1E9Ge233NWsb1YtXy+gdN1boEt67ClYfRyvtduoJIAfvY3XP6PtYy1Ulyivb1uyoqF7895ks2HTtzYYN2E2O1lo/6gkgJ1poaiY79jFRXtWjzE6I6sUHZrBYz6s2WzVotzpabX+ingBypJaezmDPHhDlNT3BrEtULz4rY4Uq1vV8NBi8uxytuOuoJ4AcflTYW8UZ69sfRnlFu5idH81LN8tYmZbqeDZoCvR3tOaupJ4AcqqjlnA/91w53+yyaF66S6ZKNIW7taeEpw+ue1BPADl/c+TdTHXvTtFdy8vMruWjmPIaqppsy5QY4mjdXUA9AeRcdT2eof59a3RX8lqzvtG89LiMFKdI1yqPLZkang6Oc6gngEj8ITPPYXktuqvY1+z2KF64ICP3wFqsDmzFVPH0O5nTqSeAiByhTzNyL6zIfpx2u9mAKF54v0wUZp5asg1TZrij9Xcy9QQQmRaak4lOvldUV3CA2eAoXrhbBooyW7uzBVPnFUcr8DjqCSBCu2lmBnr5GVFdv8FmQ6N44Xvdl+Qj7cr2S6ExjtYgH08DiNZO+sB9N78rqqs31OzFKF54ovOCvK8mbL1U+qejVdieegKIWCO957yfvxHVtXvRbEzuX7aSVrsux7vagW2XUm85WocHU08Akauvt1139JUqiObKjTF7M/cvu5frYryt7dlyqeXpFnoHUk8AMairN1139WbRXLeJZu/l/mV/77gQM7Uj2y3F3ne0Fn9FPQHEoqE+dNzXO0Zz1d4zm577l+3ptgyf8kiclJvmaDW2pp4AYtJcC9129ouiuWbTzT7K/cve4rQIK3QQ2yzlpjtajwdQTwCxaa3lTnt732iu2Edms3P/skOcFuFUtljqefrJ8f7UE0CMTnba2x+M5nrNNpub+5cdyb0yEChP3yNoRT0BxOpWl919RDRXa67ZAr7nUhJjVZHN5cBHjtZkIfUEEKsCjXZ566VIrtYCs09z/7L+Pqf9jBuLOjGDAQsAyqyRFrvr8IujuVafmi3J9YvWdDjfnse2csLTk7X2o54AYne2wx5fNYortcRsea5fdA93l/4V5bGpGLCCsw/1BJCAEe66fNMortNys89z/aLtnV34tdz7ypFZjlbm3tQTQAKaaY2zPn9IFNfpc7M1uX5Rbz/kvI/t5MhsRyuzJfUEkIi/Oevzx0dxldaYFef6Rc9xddlX8/V2Vz52tDb3op4AErGjVrnq9J2juErFZv/J9Yte5OqyP8pWcmWOo7XZgnoCSIivG4qfH8U1+o/Z17l+0YtdXfbD2UiuzHW0NvekngAScpirTn9BFNfoa7PvGLC2bKkK2EiuzHO0OvnxBYCkVNASBqyt+85sY65f9BJHF/1FtpEz8x2tzt2pJ4DEPM+AtXUbzTYwYPH8wexY4Gh1NqeeABJzDwPW1m0w+5YBiwGLAYt3sACgNP7KgLV135p9xYDFR4R8RMh3sACgNF5kwNq6ryK4TYOnAYsvuXvj6Uvu/IoQQFIKtJQBa+u+MCvK9YtymwaEy9NtGrgPFoCkHMFtGralyGx1rl+UG40iXJ5uNMqd3AEk5XFuNLotq81W5vpFeVQOwuXpUTk8ixBAMnZy9rjnSB6Vs9JsWa5flIc9I1yeHva8N/UEkIiBPOx525aZLcn1i7Z3duHX8mstR2Y5Wpn7UE8ACdhLRc76/CFRXKclZp/k+kX3cHbh1+kV5bGlnJjpaF3uSz0BxC5Pr7nr8k2juFKfmM3P9YvWdHfp1+k8NhUDVnD2o54AYtfdYY+vGsWVmm82J/cvu9zdxf+Mr7o7McPRqiykngBitrOWuevwi6O5VnPMZuX+Zd93ON+OVUW2lgMfMWABQBlV1gSH/f3daK7WLLOPcv+yIx0WgOcS+vChoxXZinoCiNW9Lrv7iGiu1kdm03L/skNclmCdTmV7pd4Hjtbj/tQTQIzOdNrbH4zmek0zm5L7l/2L0yKs0EFssZSb7mg9tqaeAGLTVp877e19o7liU8wm5v5lL3NahHX6lHtipdw0R6vxV9QTQEz21hK3nf2iaK7ZRLPRuX/Z37stwzrN1I5stRSb6mgtHkg9AcSiiaunYPxSx2iu2mizF3P/sns5LsQ6va3t2W6p9a6jlcgH1gDi0FBTXHf1ZtFct+FmQ3P/spW02nUx3tUObLmUetPROjyYegKIXGOXt1760UoVRHPlhpoNiuKFJ7ouxzq9z41HU2q8o1X4G+oJIGK7uLp74Oa8EdW1G2TWP4oXvtd5QdbpI+3K1kuh0Y7WYAfqCSBSzTXLfTeP7B6X/c1uj+KFu7ovyTrN1u5sv9R52dEKPJ56AohQS83LQC8/I6rrd7vZjVG88H4ZKMo6zVNLtmDKvOBo/Z1MPQFEplCfZKKT7xXVFbzRrFcUL1yglZkozGI+pkmZYY5WX2fqCSAiv9PSTHTxZcqP6hr2Mrssmpcel4nSrFORrlUemzE1HnO09s6hngAikK/rVZyRHv5adNfxMrPzonnpOzNSnHVap6GqwZZMicGO1t2F1BNAztV29VWKbbkluit5nlnnaF66S4YKtE5TeIROSgx0tOp6UE8AOba3qye2blun6K5lZ7MTonnpZpkq0Tot5TddqdDf0Zq7inoCyKlOWpGx3r1zdFfzBLMOUb34rIyVqVh/iu7LcsiRuxytuOuoJ4CcqaC/ZKxrr9OHUV7RDmaH8mFM7jyv7dimQbvV0Wq7nnoCyJF6ru4SWFIDorymh5rtG9WL/z6DxVqn6dqbrRqwmxyttX7UE0BOtNLMTHbsjlFe1X3Ndorqxatl5F5Yv7RCl/BRYbD6OFppd1BPADn4aPAqfZ7Jbr1cVaK8sjuZ1Yzu5Z/JZMnWaZ1GqxnbNkjXOlplf6WeAMqphcZntlM/Ee21rWlmtj6qlz8ns2VbpxW6lPexAnSlozX2d+oJoFzvXV2d0feuvtclyqu73szMbFVUf0B9FWW4dOv0upqzhQPTw9H6GkQ9AZRZS03IdIdeqzpRXt9V3w9Y86L7I8ZkunzrtFI9eR/r/7V3549ezvn/x59n6dSppEWFYiRMQoVhmpGMmYk0fMdSthj5oJAsE9KECcPYl0IMZRlLtoqRJZImDVnCEJEWSZuWc46d6vH9oZlR2s7yfl/X6/W87o/bH3BO1/P5er2evc/1vq6gnOKou+6lngCqpVjnaUnGz+ex+b3GH60esF7P3484K+MFrFCFxvOU94Cc4KizRlJPANWwiyZxNuu0/F7l11cPWM/n70e0poiq0GKdrSIWdRA8vcJpNPUEUEW1dIGWci7n9xnuMtnzqwesR/P5QyZTRlWoQi/opyztAHR31FNPUk8AVbKbXuI8VoUqNDHf1/qR1QPWHfn8If0o5H98poEqZYGnzNPjb5+jngAqrb4G89nV/5ya7+t9x+oB65p8/pBmFHQN7+tIFbDQU9SV/4EByJxCnaCPOIPX+MCjSb6v+TWrB6xB+f0xIyjmWl5UR5Z7an7tqJNepp4AKmE/btb5kdvzf9UHrR6w+ub3x3SkmOu4O9+312EDOjvqojeoJ4BNaK2RnLnr2DP/V77v6gGrZ75/ELPz+j6gHKz6LP7EeRr336WeADaioa7kJp20bq/ouXrA6pbvH3QCBV2vj9SLx5AmbA9H/fMB9QSwAcXqo485Z9erZxIV6LZ6wPp5vn9QqT6hpBvwL/2KrSBBuznqnTnUE8B6HajXOV83uHPWSaIGP189YLXK/4/6K0XdiId4Z2Fifuqob+ZTTwDraKvHOVc34tJk6tBq9YBVN4nb7Mop60Ys1VVqzMaQgFaOumYJ9QSwlma6Ucs5UzeiLKmvmNW1/+Tz/P+wURR2ExboUjVlg8izlo46ppx6AvifrXWVFnGWbvIvRolU43P7X2bm/8ftS2ErYZH+qi3ZKPL6/ztP/VJCRQHI1FLX6TPO0EpI6DmUM38YsP6VxA98ntJWymJdq5ZsGHmyuateqUdFgczbTkN5GEMlPZ1UVf71w4A1Ookf2JniVuHumpv0EzaOPKjlqk+4bw/Ith10m5ZxZlbaL5KqzOgfBqzbk/mRYyhvFSzTrWrNBpJznj5G58/JQHa10QiVcVZWwSPJVee2HwasS5P5kR34LmEVLded+ikbSU55evQen3IC2bSb7uU8rfLXgnZLrkKX/jBg9U3qh95DkavxpdJ7tCsbSs6856g3dqGeQObsrgcZrqpheJJV6vvDgNU9ub8X84SO6k3eD6g9G0tOvOqoL35OPYFM2VuPcSJW82mTrZKsVPcfBqzOyf3YoRS62kbrABWwxdTQBEcd8RvqCWREkQ7RWM7Bars+2Xp1/mHA+mlyP7aFFlPqGnhLp6sBm00NPOmoG35PPYEMaKxzNI3zr0bPmEz4K0E//WHAapjkD/4Lxa6hhbpebdh0qukhR53Qk3oCzrXTzTyfvcb+nHTdGtoa+Ta5H9xAsyh3Djyu36mQ7afKRjjqgT7UE3CrWIfpGc66HJih+snW7ltbK3OT/OHHU/AceVdnqSEbUZUMcVT/c6kn4NIWOk/TOeNy5Oik6/fx2gPW5CR/eIGr+2DS/9vyEB7jUAVXOqr9YOoJuNNBt/NewZz+tSfxGk5ee8B6MNkfvz1/U86xp/R7FbE1VcKFjqp+LfUEHKml7ry1N+cfQaTwQOYH1x6wrk76Fzibwufce+qvJmxSm3COo4rfTj0BJ5proD7kHMu5vmlU8+q1B6x+Sf8CRZpE6fNgsYYl9zrLKPV2VO37qScQvQLtp+FawvmVBxPS+SpYv7UHrEOT/xXa8w7wvHlbA7QtG9d69eTeAgCBaK0LXb2+KyxL03qd2KFrD1h7pPFLXEID5FG5xqqn6rGF/cihjmo8nnoCkWqgXhrHSZVXF6ZV3T3WHrCapvFL1NGbtEDeH0p6u/bjBTtr+K2j6k6hnkB0ivQbjeCdJnn3umqnVeOm9qN8ncav0Yl3gid0+/uFas3GJpPpF67qSj2BmLTRpfqAMykBZeqYVpW/tnUyI51fhRfnJOc59eI9hmrvqKJzObCASDRSb73IOZSFpwTOWHfAGp/Or1JCyyX8LcMR+m2mn5jV2lE1l3FsAcEr1kH6O98STPj+1FrpVXz8ugPW3Wn9MttqLu2QsA90aWZfF72lq0rW4fgCArab/qqZnDkJm6OWaVb97nUHrMvS+3UO4k6sVEzUaWqRuQ2vvqsabsERBgRpW52plzhnUvkGfZd0a3/ZugNW7zR/oUtpitRacbzOTONVAqkpdFW/n3CQAYHZQf31T06X1Fycdgf0XnfA6pru36ifpS1SNUnnaseMbH+e3oPJa76BcLTVQL3MeZKqsenfY9x13QGrbbq/0laaRWuk7hUNTOvJtwny1GkdOdSAALTXxZrKGZK6GWqefje0XXfAqmOr0v2l9lcZ7RGENzVYuzveCt9xVKvfcrQBKSrQXvqLqz0lZsvVOf2eWGV1bD35JO1fbCANEpBpukI/d/kM+FccVekwjjggpbs5O+kaTeesCMh5IXTGJ7beTEj//wIP0iLBPdDhWnV29tys8Y7qczwHHZD4PcP760YevhCc+8L4QGDC+gesO9L/1eppEm0SoFkaot+k+eC2nHrcUWVO47gDElOiA3WrPuZMCPKxQ3XD6JI71j9gDQjhl9tS02iVQM3VCB2jZtFvkg84qsn5HHpAIl/DOl736FPOgUC9E87JNGD9A1b3MH69NjzZPfAnZ03SxfqFiqPdKu90VI1LOPqAPKqlTrpEk9n5g/ZxSA8ZOmL9A1aHUH7BffQZLRO8ebpXf9DWEW6ZNzqqwnUcgUBetNSJul/z2euDtzisx9V0WP+AVT+cX7E7L8+Jxsu6TJ1VEtHGebmjq/83DkIgp2prf12hV9nbI1GmQ8PqoPq2gSwM55c8i8aJygI9qJO0bRQb6AWOrvsDHIhAjrRSbz3s6k0PWdA3rC5aaBvMSyH9otfSOhF6XVfq16oT9Dba29H1foJjEaihUnXRNXqT/TtCV4XWTS9teMC6O6RftNDVt72yZZEeVR+1DnQ77eHoSk/geASqbSedrtFazJ4dqXtVGFpP3b3hAeui0P4W/g9aKGpv6zodFtyDHbq4+sSQQxKoqi11hG7Uu+zRUXs8xHt/L9rwgHVMeB/djqWNXIwBN6mHWgTSVT9zdGVnclgCVfhm4FEayh8DndweURpijx2z4QFrrxD/Ov4kreTGv3WreuonKffUDo6u6DIOTaASt68fr9v4xMrVp1elYfbaXhsesBqGeQMiI5Y37+lO9dIOKXVUE1fXcnOOT2ADfqr/0wheyMx4lZyGtpF8GuaIxb1YPs3Q3TpFbRN+RWexq2vYimMUWEuBdlUf3cvrmN2OV8F+T/1T22ieC/VrtE/QVo7N0f06Xe0T+0aIpzeK7cmBCshkKlIHnaEHeRmza2NCfgzQcxsfsG4K9RdnxMqCeXpEZ+lneX/Poad7MbpwsCLjamlvnaPHeBUz41Xabtr4gNU73F+9VI/TXhmxQE/oYh2srfLUS5McXaujOGCR2e8E/l6X6EmevZ4ZowN/iLX13viA1SnkX75Uj9JiGfOhHtC52j/Ht3J7+jT0NA5aZEoj/UYD9JA+Yn/MmIdCH69knTY+YDUO/aPgO2izTCrXVN2pU7V3TpbYvY6uzCCOXGRAqTqqr0bobXbDjLot77eO5EBj20QWhP79kD/Tapm2TJN0o/6gXVRU7S66ydH1uI7DF24Vazf10hBN1nL2vky7MIZ+XWCbzPjw/xkns9igCi3SM7pCR2i7KnfQJY6uwl0cw3Bne3XXlRrH3VVQhZarVxx9O37TA9aQGP4h3Vh4WMMcjdKf1FVNK9k/Zzv6tz/OcQwnmusgXajRPGYBa1ioA2Pp4CGbHrBOjeOf8jPNpvWwjvd0r85XN/1kow8v7eXoXzyJgxkRK9B2+p0G6D69x/6FdczUHvF086mbHrA6x/MhMrc7YsMWaLyGqI/2VZN1euf3rkZKDmnEZgt11qkaqhe0kL0KG/RmNW4ASVHnTQ9YTWJapBNoQVTChxqjy3Ws2v/nO4idXX2AznGNOL4H2EE9dYUe1wz2JFTC+PX85zhoTawSWRTTkn2ANkSVbpd8Q/fqZlf/ptoc3ghUoVrr/2mg/q6pKmP/QRX8PdwXOq/fIqtUJsT1F/xBKqcZkWFbcZAjKM20v/rqVk3ky0iolnIN3OhdtEGaULkBa0hsy7kb76BChu3KkY7U1dOe+oOu0j80izWJGpmnrjGugZsqN2CdGN8/bQe9SlsiozpzvCMFxWqtA9VXN+hJTWcdIkde0fZxrohelRuwOsT5/6e/05rIpEM57JGQLdVJvXS5HtIbWsraQ87drbqxro72lRuwatm3cf4Dz+E2SmTQ/3HwI09K1Fr760T9WSP0T81ntSGvX0E6M9618q3Vskpmaqz/yP01hzZFxpzLIICc/dnvJ9pPx+tC3aFnNZ0vECExs/WrmNfOG1bpDI/3n7mtJtGqyJQrGAxQTUVqqX10rAbqNj2labzlFSn5p1rGvZburPyAdUbcj7MbSrsiQ25jUEAl1dI2+oWO1Pm6WU/o39xHhSDc+J9HQEesb+UHrH1i30YO01yaFhnxMIMDNjJOdddZulr360V9yF2qCM7H+n8eVtsvKz9g1beVsf9zW+opWheZ8DyjBBinEKUntbWH1bfS6lsV8kH8/+RC9ecDcGTAVIaLTGqijmuMUzO4IR2RWapzVOhjNU63KmWkjy1oD71JG8O5OQwbmdJSp+lBzabzEfl/DDv4WZUPVm3AGuDlH15Pt9DKcK3My/8CscmHKByhZ/mkCg4MjfeBoutzftUGrAM8bUuHcss7XGvE8OFegXroHXod3NYeoi5VG7Ca+vrnt9CTtDXcas0A4twOepY+hwtP+LitfW1NrYr5xNv//07hRQ9wai9GENd6ahFdDgc+1Ukq8LdCP7EqZ5THm0Mfo8Xh0EEMIY7/NHgNHQ4XHlELn6t0VNUHrPN9bldH8bZCuNOLQcSpIo2gv+HAbPXwu07Pr/qAtZ/Xi7GF7qLd4coARhGn+A40PBihJp7X6X5VH7Dq2Qq/F6SbptP0cOM6RhGXzqO3Eb331dX3Ol1h9awaedPzRWmgm3ieDJy4j2HEof151Q0iV64btJn3lfqmVSu3ed/A9tVbLAE48BzjiDv19R6djahNVacsrNXbqjdg9fJ/aeroAr4Ajej9m4HEnavpa0Rskc5X7Wys1V7VG7DaZGMj20b3sRwQ+WbGQOLLdryoHhG7Vy2zs1rbVG/AKrDl2bnb4TUWBSJWn6HElZvpaUTqVe2XpbW63Aqsmnk2O5epls7QpywORIqX5fh6lMxiehoR+lR9VZyt1fqsVTuXZGtba67b+WYhovRLxhJHTqWjEZ1yDVOz7K3WS6o/YB2Uva1tb01iqSA6hzGWOPIcHY3I/DOrb0Q9qPoDVpMsXrBC/Z9msWAQlT6MJW5szvOvEJWZ6qXCrK7XJlaDfJjNi7aZLuTxDYjInxlM3OhKPyMaCzUoy1+x+dBqlHuyu81tqZu0jAWEKNzKYOLGAPoZUVimG9Q826v1npoNWCdne6vbUfezjBCBxxhM3BhOPyMCf9cOrNaTajZg7ch2t7eeYTEhcJPZ6tx4gX5G4J7Wz1ipMtmOVsMs4CKaDtKrLCoEbA6r1I3p9DMCNkVdWaWrzbcaZySX0WQq0vFsfAhYKavUyU6znG5GoN7Xcdn9vuC6RtZ8wDqdy/hfpeqnj1hkCBLPcvehJb2MIH2kvqrDCl3T6TUfsHbhMq49ZJ3BkIUA7cfqdOHn9DKCM0N9+Yx8XbvUfMAqsCVcyB8PWX01g0WHoBzDynThcHoZQflQpzNcrc+S6r/mec2M4lKub8g6TR+y+BCM81iVLvSjlxGMD3QqfxbckFGWk5zNpVy/OjpVH7AIEYQbWJEuXEkvIwjT1YfhamPOzs2AtQeXcmNDVh++XYgAPMJqdOHv9DICGK56qzarceP2yM2AVWhlXMyNqa1T9A6LEqn6FyvRBR4zinS9o5MZrjatzAotRxnL5dz002uO0D9ZnEjNx6xCF7jpAOmZqCNUxCqsjLGWs5zP5ayc/TSKRYqU8E2f+BWrjE5GKh5TZ1Zg5Z2fuwGrI5ez8nbR37SU5YrE8erV+PGYUSRvqW7XLqy+qumYuwGr2Mq5oFXbJq/QfBYuEvUrVl70eMwokjVfl6sFK6+qyq3YcpgxXNKqaqBzeFIWEnQsqy56R9DHSMwHOlsNWHXVMcZymr5c0uoo0XGazEJGIs5nxUWPx4wiGS+pp0pYcdXVN7cD1k5c0ur7pe7WMpY08uxG1lr0rqKPkfc7ru7SL1hrNbOT5ThzuKg1sZUG8ZJo5NWjrLPo8ZhR5NMM/Ulbss5qao7lPHdwWWv+B8MeGs8iR568zBqL3gT6GHnyvHqoFmssF+7I/YB1JJc1NzpomBaz3JFzc1ld0eNrMci9xbpV7VlduXNk7gesJraSC5srTfRHvcfCR47VZW1FjceMItem6Rw1Zm3l0kprYnnIa1zaXCpSNz2s5WwByJkdWVdR4zGjyJ3lekgH8eKb3HvN8pIruLT5uPn9PF4UjRzZnxUVtY70MHLi3zpXW7Gi8uOK/AxY+3Np86NAv9Jd+oxtATXUk9UUNR4zipr6TCP0KxWwmvJn//wMWCX2JRc3fxrrdE1hg0ANDGAdRe1Mehg18IpOUyPWUX59aSWWpzzF5c23vXSLFrJVoFqGsIKixmNGUT0LdLP2YgUl4SnLW87h8iahvnrpeTYNVNljrJ6o3UcPo8qe0wmqx+pJyjn5G7DacnmT00oXaCrbB6rgVdZN1CbSw6iCqRqg7Vg3yWprecwsLnCy9tDVmslWgkpZyIqJ2mx6GJXyka7SHqyY5M2yvGYIlzh5Rfqt7uTOLFRCU9ZLtOrSv6jEf6Lu0G94ulVabsrvgNWFS5ze9nukRmkZWww2Yk9WSrR2pn+xEcv0mHrwtoZ0dcnvgFVin3OR09RUp+pFNhtswOGskWh1pX+xARPUh0+n0/d5/h7R8N88xmVOX2v9SW+z7WAdZ7M6otWb/sU63tJAtWZ1hOExy3tO5DKHYi9dq1lsQVjDDayLaF1O/2INs3Stfsa6CMmJ+R+wmtsqLnQ4inWAhmkO2xFUoQqNYk1Ei6dgYbU5GqYuKmZNhGWVNbcEMoVLHd73DPfVVXqXrSnzXmc1RGsS/Zt57+hK7ct3BMM0xRLJRVzqUO2mgXqJbSrDFrEKovUx/Zthk3SBdmMVhOyiZAas3bnUYWupU/UkD3TIqOasgChtRu9m9OEL/1AftWQFhK+DJZR5XOzwNdTRuo/Hk2YOr3yN0670bsYs0N91tBrS+3GYZ4nlNi53LOqoq27mZTsZ0p2uj1I3ejczPtJQdVUduj4mtyU3YB3M5Y5LoTrqL3qTrS0D/ki/R+lUejcD3tRl6qhC+j0+Byc3YJXal1zwGLXRuXpR5Wx0jt1En0fpSnrXsXJNUH+1oc9j9aWVWoJ5lEser610ssZoCdueS2Po8Cg9QO+6tESjdZK2osPj9qglmmO45PF/a6m77tI8tkBnptLbUeLxKt58ohHqrs3obQ+OSXbA2sy+4aJ7UKyOGqhxPNTBjc9UQF9HiP/qeLFU4zRQHXkSux/f2GaWcP7BZfekvg7SNXqN7dEB/hwRn83pWwde1dXqqnr0szdPWOI5gcvu8/6sY3WHZrBZRuzn9HF02tG3EftQd+gY/mPj1wnJD1iN7HsuvF9t1VePagGbZ4R60L/ROYS+jdACPaLT1Zb+9e17a2Qp5FkuvXe1tI8GabyWs5lG5Fw6Nzp96duILNPzGqRfqhadmwXPWirpzaXPigY6WNdqKltrFIbSsdG5mr6Nwhu6Vr/jm4HZ0judAauZreTiZ0tLHacRvHgncI/TqdF5iL4N2kcaruPUgk7NnpXWzFLKi1z+LCrQbuqn0VrExhukt+jR6LxM3wZpkUapn3bl0SfZ9aKlln5c/iwr0b76k57UQjbioCzhXWfRmU/fBmWh/qE/aV+V0JtZ1y+9AauFraIAKFYHnaq79D4bcyD4U0ZcGtOzgXhPd6mP2quIroRMtspaWIp5mRJgzXu0uusaTeJbhynrRC9G5Wf0bMrfCvynrtER/McEP/aypZo/UgKsq6720wCN4vUfKTmRHozK0fRsKj7RKJ2vzqpLD2L9/pjugNWCbxJiY7fDt9X/6Xa9zWaeqMvpvahcSM8m/DWQ23Wi2nLrOjZuZbp/IDQzm0AZsGnNdIgu1/NawvaegIfouKjcTc8m4DM9r7/oEDWl41A5Eyz1nEwZUHm11VFna6RmseHn9XGIdFpMXqJn82iWHtRZ6qjadBqq5uT0B6xG9i2FQNXtoJ4aqldVzhGQc0tVTIdF9Id0HnSSe+V6VUPUU63pMFTPt+m8g/DHGUMpUH2baz+dpRF6XWUcCznDsRKPFvRrzpTpdY3QmdpPDegs1MwYCyJHUgrkQl11VB8N07+0lKOihg6kn6KxH/1a409sJ+tW9VZHvg+I3DkyjAGr1CooBnJ7p9buOlE3aAKv46mmvnRRNE6iX6v5GpsXdIN6qQPPW0fuVVipBZJ7KQfyo0htdYyu0tP6lCOlCm6kd6JxJf1aBZ/qaV2po9WWp60jn+61YNKVciD/twK31uG6RI9rNsfMJj1Jx0TjUfq1Et8EHKPBOlzb8+wqJKNrOANWsS2mIEhOS/1OA/WQpnP0bMB0uiQab9GvG/C+HtJAdeMVNkjaYiu2gDKUkiANTfUb9dc9el3LOJDWwu2+cajFmzt/9F7A13W3/qjfaAu6A2kZakHlF5QE6SpRWx2mgbpLL+szDiq1pyeisBO9qsX6l+7SBTpUO6sWPYH0/cICyyyKglAUqbV+p/76myZm9iGOR9AHUeiW0f5coIm6XX9UN7VWIX2AkMyy4HIZZUGICrSNuugM3azn9UmGDrAB1D4KZ2aoJ+fqOQ3VGfqtWnKzOsJ1WXgDVmvKgvBtqf3UW9dprGY6P8xGUO0o3OK8Dz/SWF2n3tpPzak24tDaAsxECoOYNNIvdKKu1Bi97/Bge4UKR+FFh733nkbrSvVSRzWiwojNRAsyvSgNYlVfe6qnq+fGL+V24QgUuuq5+TpWe6gedUXMeoU5YNWzzykOYvZPV58j7EJFg7e9q457nooidp9bPQs0wykPYvY3V8ddDyoavENcddwtVBSxG27BphPlQcz+6Oq4G0xFg3eBq47rR0URu04WcD6kQIjX71wdd49Q0eDd66rjDqCiiNuHFnQGUiLEq7Wz73JR0dC94arjtqWiiNvAsAesFraCIiFWRc5estOAmgatjqv3EC7i4aGI2wprYYHnKcqEeL3sasDqSEWD1t5Vt02ioojbUxZ8elAmxOsuV0feSVQ0aMe66rY7qCji1iP8Aau2LaVQiNVAV0fedVQ0aJe76rb+VBQxW2olFkGGUCrE6jBXR94zVDRoY1x128FUFDEbYlGkHaVCrHZ2deTNpaJB+9BVt+1ARRGzdhZJJlMsxKnE1fe6KtSCmgarsatOW6Jiaop4TbZochzlQqx8PZmoCxUN1r6uOu0VKoqYHRfPgFXbllAwxOl+V8fe2VQ0WH1cddrdVBTxWmK1LaJcQ8kQp4v56jwSMcRVpw2koojXNRZVdrBVFA0xOtLVsTeZigZrvKtOO5yKIlarbAeLLOMoG2LUnluPkYACLXDVaW2pKWI1zqLLYZQNMSpVuauDrw01DdJPXHXZctWmpojVYfENWMX2KYVDjN5xdfQdQUWD1M1Vl02loojVp1ZsEWYwpUOMHnV19F1ERYN0nqsue5CKIlaDLcq0sBUUD/H5i6ujbyQVDZKv14r/mYoiTiushUWa0ZQP8TnO1dH3DhUN0quuuuwoKoo4jbZocwDlQ3z2cnX0laseNQ1OiZa56rIO1BRxOiDeAavAZlBAxKaBq6OvQntR0+Ds5myIr0tNEaMZVmAR50xKiPh84Or460VFg3OUqw57l4oiTv0s6mxm5RQRsXnc1fF3DRUNzqWuOuwxKooYldtmFnmup4yIzdWujr+xVDQ4j7nqsMupKGJ0vUWfVraSQiIuJ7k6/uZQ0eC876rD/kBFEZ+V1socZBSlRFz2cXab+1bUNCgNnfXX3tQU8RllLtKZUiIuWzg7ALtR06Ds76y/NqemiE9nc5KpFBNxmc3rcpA3vl6T8yEVRXymmpv8gXIiLk+7OgLHUNGgPOiqu56goojPH/wMWCW2gIIiJje6OgI/pqJB8fWcNR4DgugssBJzlIspKWJyqrO7ZLanpsHY2llvnUxNEZuLzVWa2TcUFfH4lbNDsAc1DcYhznprH2qKuHxjzcxZRlBWxKOJs0PwSmoajD87ew9hA2qKuIwwd2lPWRGT91wdg89R0WA84aqz3qKiiE17c5hxFBbxeMDVMbhIxdQ0CAWa56qz7qGmiMs4c5lfU1rEY4CzPxK2o6ZB2NFZX/2RmiIuvzaneY3iIhZdnR2EvahpEI5y1le/pqaIyWvmNkdQXsRiK2cH4VBqGoRrnPVVU2qKmBzhd8AqtA8oMGIx09VBOJmKBmG8q656n4oiJh9YoTnOyZQYsRjl6ihcplJqmrpaWuyqq0ZSU8TkZHOd2jafIiMOFzv7Y05Hapq69s56aiA1RTzm+3pBzvpyHmVGHH7v7DDsS01Td5KznupGTRGP88x9GlgZhUYMfuLsMBxBTVN3i7OeakFNEYsya2AZyBWUGnH4xNVh+DYVTd0rrjpqNhVFPK6wTKS5fU2xEYMnnX3e0IiapqqulrvqpzHUFLH42ppbRjKMciMGlzsbsH5DTVO1j7N+GkxNEYthlpm0thUUHOE70tmBeD41TVU/Z/10ODVFHFZYa8tQ7qfkCN9PnR2ID1HTVN3trJ+2p6aIw/2WqbSxlRQdoSvUIlcH4gxqmqp3XHXTpyqgpojBSmtjGcsDlB3he97ZZw4tqWlqmjjrpaeoKeLwgGUubfkMC+G71tmh+P+oaWq6OOulK6kp4vj8qq1lMCMpPUJ3vLND8RJqmpqBznrpaGqKGIy0TGYXW0XxETZv7477BzVNzSPOemlnaorwrbJdLKN5mPIjbCVawo3JyImZrjppkYqoKcL3sGU2u/IZFkI3ydnnDjtR01Rs46yPXqCmiOHzq10tw3mEFkDYbnZ2MPakpqk4wlkfXU9NEb5HLNNpx2dYCNspzg7GW6lpKq5z1ke9qCnC//yqnWU8j9EGCNlezg7Gf1PTVExx1kcdqClC95hlPu35DAshK9VyZ0djC6qauCYqd9VDS1WbqiL0z6/aM2CZjaYVELJXnQ1YPahp4g5x1kOTqSlCN5rhivuwELw7nB2ON1HTxF3FnXwA91+lkvtpB4Srr7PD8Q1qmriXnPVQb2qKsN3PYPXftLbvaQiEal9nh2OFmlHVRG2uMmcd1JGqImTfW2sGqx8yjJZAqBo4u0G5QodR1UR1ddY/ZapLVRGyYQxVa2Zr+4qmQKjednZAXktNE3WZs/55nZoiZF/Z1gxVa+cq2gKhusfZAfkyNU3UBGf9M5yaImRXMVD9OI2tjMZAmM50dkCWqxFVTUw9LXPWP6dRVYSrzBozUK2bQbQGwrS3u9vcD6aqifmNu+7ZnaoiXIMYptaXeraQ5kCIauszZ0fkX6lqYi521juLVExVEaqFVo9hav3pR3sgTOOcHZKTqCm9U01jqSnC1Y9BakMpsdk0CEJ0qbNDcrk2o6qJKNUSZ71zEVVFqGZbCYPUhnMCLYIQ/c7dfTQHUNVEdKZzgKScwBC1sRTaNJoE4dnC3TF5KVVNxEB330BtSFURpmlWyBC18RxMmyBEbzo7KMdT00Q86axvXqWmCNXBDFCbzngaBeEZ5uygXMbrThJQokXO+mYIVUWYxjM8VSYdbCXNgtD0cvdHwv2pat79wl3XHEtVEaKV1oHhqXK5i3ZBaNq4OyovpKp5d667rmlNVRGiuxicKpsW9iUNg7AUaK6zo/IZqpp3Y5z1zCxqihB9aS0YnCqfS2gZhOZRZ4flZ6pDVfOqWAuc9cyDVBUhuoShqWqvzZlP04A/9+RXJ6qaV3u665izqCrCM5/X41Q1J9E2CMu+7o7LC6hqXp3lrmM6UlWE5yQGpqo/cvRtGgchKdUyZ8flE1Q1rx521i9LVJuqIjRv83jR6qQLrYOwTHR2YC5SLaqaN4Wa56xfnqeqCE8XhqXqZSzNg5Bc5e5PPvtS1bz5mbtu+QtVRWjGMihVN21tBQ2EcBzu7si8hKrmzUB33XIwVUVYVlhbBqXqZxgthHBs7e7I/BdVzZsX3HVLU6qKsAxjSKpJmthSmgjhmObu0NyKquZFY5U565S3qCrCstSaMCTVLKfTRgjHCHcD1vFUNS+6u+uU26kqwnIaA1JNU2Rv0kgIRW93x+Y9VDUvbnfXKSdSVYTkTStiQKp5OtFKCEV7d8fmJyqirjlXoI/cdUpb6oqQdGI4yk3uo5kQhiJ3b5fj6dwM4pUbxAuoK8JxH4NRrrKVVdBQCMMT7o7OC6lqzvl7b+VjVBXhqLCtGIxyl/NoKYThT+6Ozn9S1Zx71l2XnE9VEY7zGIpymVo2naZCCH7t7ugs5/lGOdbA3VsrK9SZuiIU060WQ1FucwBthRBs5u75RhU6mrrm1KHuOmSZ6lJXhOIABqLcZzSNhRD8y93xOZyq5tTN/BkZyJfRDEP5yHb2Nc2F9N3g7vicrULqmkPT3XXINVQVYfjatmMYyk8G015I31Hujs8K7Uldc2YXh/1xBHVFGAYzCOUrpTaTBkPatnN4gF5AXXPmLIf90YK6IgQzrZRBiFvd4dr77g7Q8VQ1Z5501x3vUFVwe3sm8gBNhrQNc3eElqkRdc2JelrirjuGUFeE4AEGoHynuS2n0ZCuHg7/CNSduubE7xz2xmHUFelbbs0ZgPKf3rQa0tXM4SF6G3XNCX/fMS1XY+qK9PVm+EkiBTaZZkO6/D0LawYv882Jd3kGFpB7k62A4SeZ7Grf0XBI0xUOP8NqT11rbCeHfXEJdUXavrNdGXySy19pOaSpi8ODtD91rbHTHfbFr6gr0vZXhp5kn4g1i6ZDeuo6/K7YM9S1xsa464rFqkNdka5ZPP0q6XSl7ZCmpxy+0LcBda2RUi121xWPU1ekrSsDT/IZSeMhPec5/GPQodS1Rro67ImzqSvSNZJhJ41saWU0H9LyM4eH6QjqWiO38tUHILfKbEuGHZ6IhYwp0ifuDtP5qk1lq61Yc9x1xBwe3oF08fSrFJ+INZ4GRFrud/h5xUHUtdr2d9gPd1NXpGk8T79KM63sC5oQ6TiF57ljDTc47IcTqCvS84W1YshJN/1oQ6SjtcMDda6KqWy1FGqGw37YlsoiPf0YcNL/M+EkGhHpeM/hkfpr6lotv3TYC29TV6RnEn8eDCE72Vc0I9Jws8NDdQh1rZarHfbCDdQVafnKdmK4CSPn0o5IQ3eHh+pMFVLZKitw+Wnm76ks0nIug00oKbIpNCSSt4XKHR6r+1LZKvP4VLQyNaSySMcUK2KwCSdt7VuaEsl7yeHBei11rbLLHPbBi9QV6fjW2jLUhJVBtCU4WHNhOg+XrLJ/O+yDi6kr0jGIgSa0FNtUGhNJ+7XDg7VCP6eyVdLeZRd0prJIw1QrZqAJL+3tO5oTySrVZw6P1iuobJVc5LAHFvHaJKThO2vPMBNmBtOeSNo/HB6u71LXKnndYQ+Mpq5Iw2AGmXD/TPgaDYpk9Xf556EOVLbS2rjsgDOpLJL3Gn8eDDlteOgokrW7y+P1z1S20ga47IDdqCyS9pW1YYgJO2fQpkhSoT52eLxOpbKVNtlh/WfxTVIk7wwGmNBTYONoVCTpXpefYOxCZStle5fVH0FlkbRxvHswhrSwZTQrkvN/Lo/YgVS2Us5xWf3jqSyStcxaMLzEkaNpVySnlcsj9hUqWykvuqx+SyqLZB3N4BJPHqRhkZx3XB6yO1DZTWrpsvLcgYeEPcjQElMa2TyaFkm5yeUx25/KbtLpLivP2yiRqHnWiKElrnSxVTQuknGwy2N2EpXdpHEuK38glUVyVlkXBpb4MoTWRTJKtcjlQdua2m7iD4TlDqu+QHWoLZIzhGElxpTa+zQvkjHS5YB1EZXdqPNcVv3vVBbJed9KGVbizJ68/hnJOM7lUTuNx01u1FSXVT+KyiIp39meDCrxpj8tjCRsoTKXh+1+1HaD9nZZ8WVqSG2RlP4MKTGnwJ6miZGEZ1wet7dT2Q260WXFn6CySMrTPLs99jSzBTQy8u8Ml8ftQtWjtutVR5+4rHgfaotkLLBmDCg8sAGoBJ/Pc69QT2q7Xkc4rTfPcEcieDiDm1xJOyP/XnF54I6lsuv1GM8+A6rvSgYTL6llr9DQyLcLXR655dqG2q6juZa7rPYF1BZJeMVqMZj4SSsrp6mRXx2c/tGIQ3ddZzmt9a7UFvlXbq0YSnzlaNoa+fa+y0P3bSqbkT8Hv0tlkYSjGUj8ZTiNjfy61unnGr+gtpn4rPJKaov8G84w4jH1bDrNjXza3+nBO5TaruUap3XuRG2Rb9OtHsOIz3Swb2hw5E8tp89G+lSlVHeNKs92WeU5KqK6yK9vrD2DiN+cSosjn4Y7/WyjB7X9n0Oc1vg2aot8O5UhxHfuo8mRP4c5PXzHUNv/edBpjQ+mtsiv+xhA/N+JNY1GR77U12cuD98ybU11ZTJtoaUuK7yIPwMjv6Zx91UW0sY+p9mRL485/Xzjj9RWJtNpTus7ktoinz63NgwfPBMLqJETnR7Ar1FbmUyTnNb3OGqLfOLZVxnKUBoe+dFc5U6P4D2prnZxWtvlakJ1kT9DGTqylBKbQtMjP8Y7PYSvo7a63Gltn6a2yJ8pVsLQka1sa0tofOTDOU4P4Y9VO+OVLdZHTmt7BusW+bLEtmXgyF662iqaH7m3o9NDuELHZryyh7ut7HasW+THKuvKsJHNXEr7Ix/ecHoMT8x4XZ91WteXWbPIl0sZNLKaQnuOBYDcu8TtJx17Z7iq7dxW9ULWLPLjOStk0MhumtpcFgFybS+3R/GIDFf1FrdV7cCaRT7MtaYMGdnOnvY1CwG5VaAZTo/ipWqe0Zo21iKnNX2fFYt8+Nr2ZMAgx7MUkGs3uf20Y2BGK3qO24pey3pFPhzPcEHMzK5nMSC3urg9jmeoVgbrWaRpbiu6P+sVuXc9gwVZnSJ7ngWBXCrRPLcHco8M1vMQt9X8WMWsV+Ta81bEYEH+myY2i0WBXBrm9kgen8FqPum2mjexVpFrs6wJQwVZM+3tSxYGcudXbo/kCu2esVru7LiW+7BWkVtfWnsGCvLjHMnSQO4U6gO3h/LtGavljW4r+Z4KWKvIrSMZJsj68lcWB3LncrfH8mfaIkN13NztAxoqNJh1itz6K4MEWX8K7WkWCHKlneM/LJ2XoTqe4biOO7NOkUtP8+R2suE0tBksEuTKFLcH8/TMfPesUP92W8WXWKPIpQ+tIUME2VjaWgULBbnR3/FnH4dlpIZdHdfwTNYocqfC2jJAkE3lIFvBYkEubKNyt4fzsxmp4eNuK1imrVmjyJUVdhDDA6lM+rFckBvPOP78o10G6reT4xH5CdYncqcfgwOpbG5hwSAXTnQ8YN2Sgfpd67h+x7E+kSu3MDSQyqfInmXRoOYaaonbA3qRGjuv3maa77Z6i7UZ6xO58SwvxiFVy+Y2jYWDmnvA8WcgA5zX7kzHtbuHtYncmGabMzCQqqaVLWbxoKZ+7/iQ/lj1HVeuVB85rl031iZyYbG1Ylgg1ck+9g0LCDVTW/McH9N/dFy501yPxrVYm6i5b2wfBgVS3fRkCaGmbnZ8UM9SqdvBeLrjut3AukQu9GRIIDXJpSwi1My+jg/qCp3htGonu65aR9Ylau5SBgRSsxTYQywk1ESB3nd8VM9QHYc1q6X3HNfsHRWwLlFTD1kBAwKpaerYKywm1MSlrj8N6eOwYie4rthFrEnU1CtWh+GA5CJNeQU0amIX18f1+ypxVq9ixy94rlCFdmJNomZmWFMGA5KrtLZFLCpU38uuD+z/c1atY1xXaxLrETWzyFozFJBcZi/7goWF6jrb9ZH9rood1apQb7iuVl/WI2riC9uLgYDkOt3sexYXqmdrLXd9aB/vqFbdXVdqmZqxHlF931s3hgGSj5zM8kJ1PeL62H5LRU7qVKApriv1AGsRNXEygwDJVwazwFA9B7s+tit0lJM6/d55nQ5kLaL6BjMEkHzmThYZqvfNtBmuD+7XVeiiTi+5rtJ0N580IgV3MgCQ/KbYnmKhoToGO/9s5AgHNermvEaDWIeorqesmAGA5Dv17DUWG6pue5W7PrxfdvB88ImuK1SubVmHqJ7XrB6HP0kizWwmCw5VN9b55yOHRF6f3zqvz+OsQVTPTGvGwU+Syo48eBRVd6TzA3xy1PdhFWiC8/oczhpEdSyyHTn0SZLpYGUsPFRNHc11foT/IeLq9HBem9nuXmmERJRZBw58knQ62VcsPlTNtc4P8RmqF2llSvWe89pcwfpD1X1lnTjsSRrpZt+xAFEVuzo/xCt0caSVOd99Zdqw/lBV3/HcdpJejraVLEJUxYvOj/HF2ibCqmypBc7r8hxrD1W10o7mkCdp5lSWIariRPeflIyIsCq3uq/Kcaw9VNWpHPAk7QxkIaLy6muh+8N878hq0l5lzivyqeqy9lA1AzncSQi5hsWIyhvqfsB6IbJHjj7lviLXs+5QNddwsJNQwhsKUWm7uT/OK9QjonockoF67My6Q1Xw1kESUIrsURYlKutZ9wf6eyqNpBYlest9NZ5kzaEqHrUiDnUSUkpsHAsTlXN4Bj4zOT+SWvTLQC0OYc2h8sZZCQc6CS11bSKLE5VRSx+4P9QXaMsIKtFEn2Tg08Qi1hwqa6LV5TAnIaa+TWaBojIuyMDnJrdGUIfrMlCH/qw3VNZkq89BTkJNA5vCIsWmNddS9wd7mdoHXoU2Wua+Cp+pCesNlTPFGnCIk5DT0N5goWLThmfgs5OxgddgVAZqcBtrDZXzhjXkACehp4m9zWLFpuydgcO9Qt0DrsDBmajA7qw1VMbb1oTDm8SQpjaNBYtNmZSB4322mgZ69RtpRgau/3jWGSpjmjXl4CaxZEubzqLFxvXMxCcofw/06t+Riat/JOsMmzbdtuTQJjFla5vBwsXG1NGcTBzyhwd47Q/KxJX/SCWsM2zKDNuaA5vElm1sNosXG3NJJo75WdoisOveUB9m4soPYo1hU2bbNhzWJMZsZ3NZwNiwllqeiYP+nsCu++2ZuOpLtTVrDBs317bjoCaxpjUjFjbm7kwc9RU6NKBrfmBGrvkdrC9sarxqzSFN4v4Uiz8UYoN2z8hhPzOYx1020PSMXPPdWF/YmFl8ekU83IvF7e7YoCczctyPCOR635qR6z2GtYWN39rOvVfERbbmoQ3YkC4ZOfArdAhXO0G/Ym1hw6bzzUHiJ8159Cg25OWMHPkfqXHqfx58PyPXehLrChs2zZpzKBNPacoLdLB+x2TmU5XhKV/pmzNzpbuzrrAhb/PUduIvjXkNNNanVmY+V0n3z4S/zcxVnqZi1hXW7w1rzGFMPKahTWGBY139MnP0f6LtU7rG22h2Zq7yqawprN8Ua8hBTLymgU1mkePH6mteZg7/V1Q3hStcJxOv1l7t41SuMCIw2RpwCBPPqW8TWej4sUszc/xX6O4Uru/tGbq+F7GesD4TrT4HMPGeujaOxY61baUlGRoBzk746vbJ0LVdrKasJ6xrnNXl8CVZSIk9yoLH2m7N0BCwXPsneGV/qaUZurY3sZawrkethIOXZCVFdieLHmtqo/IMjQFztG1C13VrfZSh61qmHVhL+LE7rYhDl2Qr17Lwsab7MjQIVGiSShO4piV6IVNXdQTrCD92DYctyWL+xOLHD3bL1GdYFfpbAtd0SKauaJnasI6wtj9x0JKs5jRbyRaA/7o/U+NA/p/X1Ctj1/Nu1hDWtNJO5ZAlWc4x9h0bAVZrl7HPsJapUx6v5l6Z+mZmhcq1M2sIP/jOjuGAJVlPN/uKzQCrPZCxz1w+Ufs8Xcm2mpOxa3kP6wc/+Mq6cbgSYravlbEhwGRqn7GhoEJz1DYP13HHTH13cPXnV21ZP/ivMtuXg5WQ1dndFrEpwGQambkR6yPtmONruJ2mZ+4q3svawX8tst05VAn5ITvaTDYGZPEzrApN13Y5vIIt9W7mrmC5dmXtYLWZtiMHKiFrp5m9xuYA00MZHLHeVcscXb0t9WYGr999rBus9po14zAlZN3Us6fYINAhgwNChd7U1jm4ds30agavXbl2Y91AJnvK6nGQErL+FNtwNgk8nMkR6z39tIbXbXv9O5NX7n7WDGSy4VbMIUrIxjKYjSLr9sjkmFChj/XzGly13TUrk1etXO1YM5AN5vAkZNM52VawXXAfVhYt0sHVvGJdtDCj14z7r2Ar7GQOTkIql272BZtGlrVVWUbHhXJdqMIqXq0CnZ/Z67VcO7Fesu4LHipKSFWyF0/GyrZbMzowVKhCj6tJFa5UQz2S4Wt1E2sl6xbZXhyYhFQtrW0Gm0d2tdDiDI8N7+u3lbxO+2XwqVdr/kl1S9ZKts2w1hyWhFQ9Te0VNpDsujTDg0OFKjRMDTdxhTbTkIxfo4tYJ9n2ijXloCSkeqljD7GJZNXmmpvx8WGmeqtkA1enWCfpw4xfn9najHWSZQ9ZHQ5JQqqfAruMjSSrzsz4AFGhCr2jk1X/R9elnk7UW1wbncYaybLLrIADkpCapqd9w3aSRXX0HmOEKrRQw3Ws2qmldtPR+pvmc01UoXc2+Oke3PvGenIwEpKb7GOL2VSy6FgGCWxAD9ZHVi22fTgUCcldWtk0NpbsKdTLjBJYj0kqYH1k0zRrxYFISG6zuT3L5pI9BzBMYD32Z21k07O2OYchIblPkd3CBpM9YxknsM6jWFkXmXSLFXEQEpKvnMl7CrOmg8oZKbCGMu3GusieFXYmByAh+c1BVsFmky03M1RgDdezJrKnwg7i8CMk/2nLS3SyZQt9wliB//hYjVgTWTPD2nLwEZJMGtrTbDpZ0ofBAv9xEusha562hhx6hCSXQruSjSc7inhcA/7zeIZC1kO2XGmFHHiEJJ0j7Uu2n6zoxHABlasjayFLvrQjOegISSftbTabUFaMYMDIvL+xDrJktrXnkCMkvTSx59mIsqGFFjJiZNp8bck6yI7nrQkHHCHppsiuZzPKhv4MGZl2JmsgO67nkaKEhJHj7Wu2JP9K9BZjRma9rlqsgWz42o7nUCMknOxpc9mY/OPNhLx9EM7NtT050AgJK03tOTYn/x5i1Mik++j9bHjOmnKYERJeCu1SW8UW5ds2WsC4kTmfqgW9798qu5RnXhESbrraEjYq33iqO09vh0NLrCsHGCFhZ1ubwmblWaGeY+TIlKdVQN97N8W25fAiJPyU2FA2LM9+qs8YOzJjsVrT894NtRIOLkJiydH2OduWX+cxeGTG2fS7b5/b0RxYhMSVNjaNzcurWvoXo0dGXu5cRL97Ns3acFgREl/q2X1sYF510HLGD/eWaTd63bP7rB4HFSGx5jT7hm3Mp8sYQNy7mD736xs7jQOKkLjTwaazmXlUyotz3L8cpzZ97tV068DhRIiHPxWOYEPzqJPKGUPcKldHetyrEfxpkBA/OdrK2db8uYFBxK2r6W+fyvnWICHesj0PIPWnLn8mdPvnwVL626Mptj2HESH+Usuu5F2F3uyhZYwj7ixRe3rbn1V2pdXiICLEa7rYAjY6X/ozkLhzJn3tzwLrwgFEiO80s6fZ7Dwp1FOMJK48wbsH/XnamnH4EOI/BdbfvmPL86Ol5jKWuDFHW9HTvnxn/a2Ag4eQrGRPe5+Nz4/DGEzcOJh+9uV925MDh5BspdSGcsu7H7cymrhwE73s67b2oVbKYUNIFtPF5rEJ+lCPBzY48AYPZ/BkHre1E5LlNLIH2Qh92JMHNvBwBoTjQWvEAUNI1nO0LWM79OBchhQezoAQLONp7YSQ1Wlh49gUPTywYQxjSrQe4eEMXoyzFhwqhJD/psD62VdsjbFrrHcZVaL0tjanfz34yvrxSAZCyI/Txl5jg4xdey1iXInOIu1C73rwmrXhICGErC/FNphHkMbuaAaW6HSnbz08TnSwFXOIEEI2nPY2lc0ybtcwskTlCno2flOtPYcHIWTTn2MNsm/ZMuNVS88ytkRjrIrp2bh9a4P47IoQUtm0tSlsnPFqrg8YXaLwnragX+M2xdpyYBBCqpIiO8++ZvuM1d5awvgSvM+0B70as6/tPCvisCCEVD072SQ20VidxAATvD/QpzGbZDtxSBBCqptCO9O+YCuN082MMEG7nh6N1xd2phVyQBBCapbt7QU21Dhvdn+SMSZYj3Nze7xesO05GAghuUiB9bEyttX4NNArjDJBmqz69GecyqwPz2onhOQyW9pINtf4tNB0xpkAvzu4Fb0Zp5G2JYcBIST36Wqz2GJjs4s+ZaQJyidqQ1/GaJZ15RAghOQrpXYlL9OJzX48siGoRzPsQ0/G5zu70ko5AAgh+c2uNpkNNy5HqpzRJgjlOpx+jM9k25WNnxCSRAqsjy1n243JHxlugnAGvRib5dzUTghJNs3tATbfmFzHeJO6q+jD2DxgzdnsCSHJ5wCbyRYci0Ldz4iTqntUSB/GZKYdwCZPCEkrpXYJbyyMRW09zpiTmsdUQg/G42u7hJvaCSFpp5WNZkOOQykjVkpGqTb9F4/R1oqNnRASRg606WzLcYxYTzDuJG606tB7sZhuB7KhE0JCSi07zz5ne2bEwo+NYbyKxed2ntViMyeEhJet7T426RhGrH8w9jBe4cfus63ZxAkh4aaTvclWHf6I9SSjTyIeZ7yKw5vWic2bEBJ6iux0W8qWzYgFxqsoLLXTrYiNmxASR5rYMFvB1h32iDWWESjP41UpfRa6FTbMmrBhE0LiSlt7ig087BFrFGNQ3jzMp1fhe8raslETQuJMF3ubbTxctfQ3RqG8uFXF9FfY3rYubNCEkJhTaCfZfLbzcF3EOJRzA+mrsM23k6yQzZkQEn/q2SX2Jdt6qHppOUNRzizTcfRUyL60S6wemzIhxE9a2F22ku09TAdoIaNRTszXb+incK20u6wFmzEhxF92t/Fs8mHqoI8Yj2rsQ7Wjl8I13nZnEyaE+M0hNo2tPkQ/0RuMSDXyqlrSR6GaZoew+RJCvKfQTrDZbPnhaaRnGJOqbaw2p4fCNNtO4JZ2QkhWUmL9bCFbf2hKNIRRqVquVy36J0QLrZ+VsOESQrKVejbIyjgCQtNTixiYqmShjqJvQlRmg/i+ICEkq2lsV9lXHAVhacvdWFW686oNPROer+wqa8wGSwjJdra2YfY9R0JI6mkEo1Ol3KG69EtovrdhtjUbKyGEmJm1tgdsFUdDSE7RZwxQG7VYJ9InoVllD1hrNlRCCFkz7Ww0Q1ZIdtc7jFEb9Lba0yOhDVejrR0bKSGErC/t7TGGrHBsrgcYpdbrXjWgP8Iarh6z9myghBCy8U+yHmXICscJms9AtZZPedtgaMPVo3xyRQghlcuu9jBDViha6lHGqv8Zqa3piZCGq4dtVzZMQgipSnaxkbweOhQ9NIvhSh/pcHohHCttpO3CRkkIIdVJW3uQISsMjXVHxserYWpEH4QzXD1obdkgCSGkJmlj99sKjpQQ/FbTMjpcvaP9qX8oVtj91oaNkRBCcpHWNsy+5mhJX11drbKMDVfLdYVKqX0YvrZhPOeKEEJym+Z2Be8uDEE7PZOh8eop7UrNw1BmV1hzNkJCCMlHGth5Np+jJn3d9EoGhqt/qSu1DsN8O88asAESQkg+U9tOtg84ctJWqKP1ruPh6t86UgXUOQQf2MlWm42PEEKSSKEdYa9x9KStRH30kcPhaoZOUS3qG4LX7AgrZMMjhJBk82sbxxGU/m3v52ueo+HqE/XnlvYwjLNfs8kRQkhaaW932TccRulqpEGa62C4+lgD1ZB6pu8bu4s3CxJCSPppZn+2hRxL6aqv3not4uFqik5RXeqYvoX2Z2vGpkYIIaGkxE6wqRxPafuV7tfyyEarZfq79qV2IZhqJ1gJmxkhhISX/WwUr9ZJW0tdpJnR3M4+iJc3h2CljbL92MAIISTktLLrrZwjK+3vFx6pZ1Qe8GhVrqfUne8KhqDcrrdWbFyEEBJDNrMzbQZHV9p+onM1Mbgxq1wT1F/bUJ8QzLAzbTM2LEIIiSkFdqCN5jXR6WuhU/S4lgYwWi3RaJ2srahJCFbYaDvQCtioCCEkzrS0S+xTjrP0NVB33aVPUxqt5mmEjtBm1CEMn9ol1pLNiRBCYk+xHW7jbBUHWwj3ZnXWhXpaCxMarBboKf1JnbjXKhSrbJwdbsVsSoQQ4ic72DW2hCMuDIXaWcfqWr2gxXkYqxZrvK7VMWqjQq51OJbYNbYDGxEhhHhMbTvOJnPUhaSW2utEXacn9J6W1ehpVu/pcV2rXmqnYq5raCbbcbywmRBCvKedDbWlHHohfq7VTO11oHppoG7Sw5qoN/Wh5qzjQ03VRD2kG3WBeulAtVczFXD9wrTUhlo7Nh1CCMnOZ1k97Gm+Ywjk8XuCT1sPPrcihJAspoUNtA85CoEc+9AGWgs2GEIIyXY62XD7nEMRyIHPbbh1YlMhhBCyOvWsl03keARqYKL1snpsJoQQQn6c1naZzeagBKpotl1mrdlACCGEbCy/tJttMYcmUAmL7Wb7JZsGIYSQyqXYutq93JkFbORuq3utK09lJ4QQUvWU2lH2uH3LYQqs4Vt73I6yUjYIQgghNUkjO8Um2EoOVmTeSptgp1gjNgVCCCG5Sgvrb6/wymhk1Cp7xfrzbCtCCCH5SUs70ybyaRYy9anVRDvTWrL4CSGE5DvNrI+Ns+85fOHa9zbO+lgzFjwhhJAk09h62T/sGw5iuPON/cN6WWMWOSGEkLSymR1jj9qXHMpw4Ut71I6xzVjYhBBCQkipHWK32zwOaERrnt1uh/DwBUIIISFmd7vIpvBdQ0T1/cApdpHtzuIlhBASeprbiTaK58Aj+Gexj7ITrTkLlhBCSEwpsQNsiM3iIEdwZtkQO8BKWKSEEELiTVs7x57mNngEcQv703aOtWVREkII8fN51v52hb3OQ0qRysNCX7crbH8+syKEEOI1TexIu8M+5tBHIubYHXakNWHhEUIIyUZ2sr42xsoZAZAX5TbG+tpOLDRCCCFZTLF1tAE21soYCZATZTbWBlhHK2ZxEUIIIYW2h51to20JIwKqZYmNtrNtDytkMRFCCCE/ToHtaqfbQ7aAkQGVssAestNtVytg8RBCCCGbzk52st1rMxghsF4z7F47mXusCCGEkOqliXWzS+1ZW85QAVtuz9ql1o1vBRJCCCG5SYHtbCfabfaWrWDQyJgV9pbdZifazvwhkBBCCMlX6tl+NsBG2zxGD+fm2WgbYPtZPZqeEEIISS5N7QAbYCPtA1vFOOLEKvvARtoAO8Ca0uCEEEJIuqlv+9gZNtym2rcMKRH61qbacDvD9rH6NDMhhBASXkqsg51oQ2yCLWZwCdxim2BD7ETrYLVoXEIIISSWbGGd7TQbauNtIeNMIBbaeBtqp1ln24IGJYQQQmJPY9vX+thN9rzNZ8xJ2Hx73m6yPravNaYRCSGEEK9paHvZMXaR3WMv8dlWnj6nesnusYvsGNvLGtJwhBBCSPZS3zpYdxtgd9gE+4TvI1bzu3+f2AS7wwZYd+vAjeqEEEIIWTt1rK0dZL3tMrvbXrAZ9jXj03p8bTPsBbvbLrPedpC1tTo0DiGEEEKqkqa2px1q/exqG2mTbW4GHwTxrc21yTbSrrZ+dqjtyROqCCGEEJL7NLI21tl62Bl2md1uY+xlm2lfuBilvrCZ9rKNsdvtMjvDelhna2ONKDghhBBC0ko9a2Ud7XfW0/raILvW7rRH7Xl73Wba0oDen7jCltpMe92et0ftTrvWBllf62m/s47WilfSEEIIISSubGbbWDvbxw6w39sxdpKdYefbYLvKhtpwe8DG2Dh7yd6wt+1dm24zbJZ9bPNsoX1my6zcvrBv7HtbZavse/vGvrByW2af2UKbZx/bLJth0+1de9vesJdsnI2xB2y4DbWrbLCdb2fYSXaM/d4OsH2snW1jm1EIQkgS+f9NhQ3JILeHEQAAAABJRU5ErkJggg==;" parent="1" vertex="1"><mxGeometry x="360" y="841.56" width="110" height="110" as="geometry"/></mxCell><mxCell id="8kHsx0QUj_gs8FxgNmaQ-18" value="rabbitmq 3.*" style="shape=image;imageAspect=0;aspect=fixed;verticalLabelPosition=bottom;verticalAlign=top;fontSize=14;image=data:image/png,iVBORw0KGgoAAAANSUhEUgAAANQAAADuCAMAAAB24dnhAAAAkFBMVEX3YwD////2VAD3WwD/+PL+8ur7s5n3WAD+9vP3YAD3WgD91sX2UwD+9O76nXf3ZQD94tb+7OP//Pn8wqn93c77tJX8yrT928v6qYX5jlz80b7+6N37uJv7sI36onv4dzL5l2r8zrr4gkj5kWH4ezv6p4L4byH3axT4di34gEP6oXr5iVP7war4bxj93tT6rZD4Ml2PAAAIp0lEQVR4nO2dWZujKhBAI7RDYxaX7Pue9Exmpv//v7uYznSiYsSSiuL1vMxLvpYzAVIlULSsGtIquwEYNFKm8BKpwBv1f0wmP/ojL3jF8/ClBscPyphDBQ5j9OM4QH8kspQ9cQnlrQc4JeeJjftUVKluj0WN/nmxX13M5yJKBUdCk0ZfUHJEHF14Un2eqnTV4n20R2NJDdbsmVIIW2NNGThS9rQjGUuJsdWZ4swYGFLBkikoXbXYEmNoIUiNWo6aUojTGulvgXYpb03UlULI2tPdBs1S3Q1R7Hl3ONlo/tXSKzVkT6fxNCgbam2GTqmRmzmNp8HcrcaG6JPyfubveXc42821NUWXFGQwxbRI711TYzRJDSloMEWhdKGnNVqkZmfwYIrCTm0d7dEg5RcaTFE42fkVkHr7pU/pS2tVOHIqKpWRYEAonpQUkxqfNA2mKOw0Lk3Kn+rteXc42ReJnOBSwUQ1wYBQKHICS/3WP5iiFIicgFKDQ84EA4CY3oGRE0iqu8caTHGtDShygkgBEwwIsMgpv9TWzZGtFwcSOeWVmh9e0/PuACKnfFJvvVcrfWmt3vCkFjoSDAg5I6ccUm1dCQaEXJGTspR/KaPn3eFkqjy0FKWCFWZMpKjFJlql+mUNpiiqQ0tFavBR4mCKorZSki1loyUYEJSSkiypYFklpRCFlZIMqdFrYyI1nKyk5KmUdyh/zpPByeHpSskTqe5GZTmwHHjn2UpJupSWl654UJqe76dJzeArGK+CubNcUvNd1eY8Gan5vkwq6FVzfkjCWU82vUuk+k6lB1MU6kgip4TUAOelKx7slIic4lIrEwZTFE5+PZXyXIN63h3qeulSM1MmiDiczdKk+p2yGwen05dL/TbYKWp1lxrjvx1HhbSTUr5hM3kS5iek1obOEXf4R1xqYfwXJb6qYVTK/M4XwuYRqb3xnS+ETx+lfKNn8zud+YNUPb6o76/qKmUb/hN1h9jfUv0KvgeD4Sy+pX4W2X3oMHKFOel/hVP29SkmPfyhD374J9WF9z7qbH635+/v7/583N8z+TfOO4fhdmCLT9mD7XCH+uLt2v9CqRl862vsNZX0J5ztowtL9h7xR/Gag4RSQ2hmyBKre7Pkl+4c4x+yenipKF3epKbA/nD9A1nt5afkhyy8iYlfblJ/gFJM8ubXi3ctKlsn26ANK+7epIBP4GtJc4P4HyOyV/kLxP53kwJOfnwvaa71EbMisi0QI7ypovMlFQADP5qcAQS7mBSTfQg+32ZCulepN+A3RT9l7Y2HkVKpNqKUXUzqh6y98TmgFlK9WkrFJrZGSgONVJJGqpEqQiOVpJFqpIrQSCVppBqpIjRSSRqpRqoIjVSSRqpeUk4dpXgdpCZRKX6WfWhsmFRsBY/vZB8aGCbVjv41Kj2dZuNtRkGRss6R985Evh3+jLbqhiPlu987cTntpJy3G6Et0eNIWUH/4nbCTRN0fUwtU9C+3LZffO2uEDjOtQIqv1I5qStdO7v8TNe27bnA+/v3b3vb7/cXw89VbzO97NYcvO8aU6ogwWwNXMGvsJRgBbOqtpR1AvXAikvB9iVUXAoWdlRcCra1suJSXdBM0UiVIFXHMdVINVKNVCPVSNVHqpY/vrWUqmPqUUupN/Okgu1weWWRVg7OPKkZZ/QG+ZDf7vFm2juKwWPZC+5KCy0aJxU9PCFfRTBNKnEEtw5S8ZVEIntH3UgZIwVqVYWkZB8KGqlGqpFSxYs+Ur7ZwjQpy41GFCuplGuY1PYxpOAtaexnnJS16NzW4TllZ/kavnlSlj/ZX6aCSy/tpjoDpbKpp9S5hlJWI9VIlSdVyzFVT6laTum1lAK1quJSpr14+f9K1XIpp5w1X2nhGn34RbbGgUsMSZNwfcAOhNxKDFlAqX9lN7GAVYy6FYPSWrZLIxPQRMFuUtCDF7ICaxqB1Yf8V2DtAi2Fp+miZDmwMrLXo02h1BJaw41quFA4lQPov/q6KFmovCRvabn9Wcb8J+x/mm1vUgXK0JLzZNT2/HeN+F57dPyA3u9AfKt4yVZOnYczQ3pgDriu671ka42K69J7cV1YlFVFHsog17JgdT1Li1sbI29eiRMtAl/Pcv21vFgBGpVUiXvW8C1lPyl3bgaSy0owD+m/BHLf4fmwKW1r9LzeeVhlfdxpNzL4fgWSclWTZY1xLwjAg9NIDhTdE+mfjAxtndimhfhGz4mJF9XFy4Endq961blmWQ2FKwWtylyIrYba5Y9WNa4uV0P9mk6r/Evm1ch1oWpI+1z5oZX36tuQRbWHFuSSYkG3V7/rpK3wjWI1h1aBi79DtlUcWsWuaA8ZsooNLc6WWdWLMqWs7r5KfZCTffYCUraUiJwOlclJ2DoREwGlRKbFK9EHKU8pbQaSEtF7+ZETZ9IDcQWkLLvkocXJVHmJT1lK5MVl3nPOTmknZ4tJiaSkrKGlOpggUlZwLKMPitRWem5Ck5RISnav1hIJRt718rxSIil57dBip/yL5fmlXpqUUNBeDYiU9dZ7TR/kZPMOaR9ISiQlLxhaqdk6lpRISlzkocWyEgwEKeSkhMbvan2RlNXdYPVBpQQDR0okJWuUpCRXTKRdSiQlLe1LCjljIgQpK1jqTUpETJRdaxhbSiQlU31DCxAT4UhZ1mCtaXqHxEQStEhpSkpgMZEETVIakhJOeqCYSIIuqaIrJfCYSII+KZGUwCOnAjGRBJ1S4MipUEwkQa8UKHISCYbmXfuapa6RUy4tTtZPVzAgaJcSkZObI3Jy3LQiBwVAkLIs5ciJsyXG81GkROSksgjJO1N5Ebyi4EgpRU5qKxgQsKQyI6fiCUY6eFJh5JSqRTUkGOkgSolfrZX01Aanzgr1PBmqlNBa/iFRL07JnyXuETlsKYE3OVDGwrKfTvjPYaL9tzYBvlTIfDxafH4uRmN9kfgzXiP1YhopU6il1H+Hi68lxYaT0AAAAABJRU5ErkJggg==;" parent="1" vertex="1"><mxGeometry x="580" y="669.4300000000001" width="112" height="125.74" as="geometry"/></mxCell><mxCell id="8kHsx0QUj_gs8FxgNmaQ-22" value="" style="endArrow=classic;html=1;rounded=0;fontSize=14;" parent="1" source="8kHsx0QUj_gs8FxgNmaQ-12" target="8kHsx0QUj_gs8FxgNmaQ-10" edge="1"><mxGeometry width="50" height="50" relative="1" as="geometry"><mxPoint x="400" y="810" as="sourcePoint"/><mxPoint x="450" y="760" as="targetPoint"/></mxGeometry></mxCell><mxCell id="8kHsx0QUj_gs8FxgNmaQ-23" value="" style="endArrow=classic;html=1;rounded=0;fontSize=14;" parent="1" source="8kHsx0QUj_gs8FxgNmaQ-16" target="8kHsx0QUj_gs8FxgNmaQ-10" edge="1"><mxGeometry width="50" height="50" relative="1" as="geometry"><mxPoint x="170" y="990" as="sourcePoint"/><mxPoint x="220" y="940" as="targetPoint"/></mxGeometry></mxCell><mxCell id="8kHsx0QUj_gs8FxgNmaQ-28" value="" style="group" parent="1" vertex="1" connectable="0"><mxGeometry x="320" y="210" width="390" height="440" as="geometry"/></mxCell><mxCell id="8kHsx0QUj_gs8FxgNmaQ-30" value="" style="group;fontSize=14;" parent="8kHsx0QUj_gs8FxgNmaQ-28" vertex="1" connectable="0"><mxGeometry width="390" height="440" as="geometry"/></mxCell><mxCell id="8kHsx0QUj_gs8FxgNmaQ-31" value="" style="group" parent="8kHsx0QUj_gs8FxgNmaQ-30" vertex="1" connectable="0"><mxGeometry x="-10" width="390" height="440" as="geometry"/></mxCell><mxCell id="8kHsx0QUj_gs8FxgNmaQ-26" value="" style="group" parent="8kHsx0QUj_gs8FxgNmaQ-31" vertex="1" connectable="0"><mxGeometry width="390" height="390" as="geometry"/></mxCell><mxCell id="8kHsx0QUj_gs8FxgNmaQ-25" value="" style="rounded=0;whiteSpace=wrap;html=1;fontSize=14;fillColor=none;dashed=1;dashPattern=1 4;" parent="8kHsx0QUj_gs8FxgNmaQ-26" vertex="1"><mxGeometry x="-150" width="540" height="390" as="geometry"/></mxCell><mxCell id="8kHsx0QUj_gs8FxgNmaQ-1" value="&lt;font style=&quot;font-size: 14px;&quot;&gt;Đơn hàng&lt;/font&gt;" style="shape=hexagon;perimeter=hexagonPerimeter2;whiteSpace=wrap;html=1;fixedSize=1;size=30;fillColor=#f8cecc;strokeColor=#b85450;fontColor=#1A1A1A;" parent="8kHsx0QUj_gs8FxgNmaQ-26" vertex="1"><mxGeometry x="20" y="25" width="130" height="100" as="geometry"/></mxCell><mxCell id="8kHsx0QUj_gs8FxgNmaQ-3" value="&lt;font style=&quot;font-size: 14px;&quot;&gt;Thanh toán&lt;/font&gt;" style="shape=hexagon;perimeter=hexagonPerimeter2;whiteSpace=wrap;html=1;fixedSize=1;size=30;fillColor=#f8cecc;strokeColor=#b85450;fontColor=#1A1A1A;" parent="8kHsx0QUj_gs8FxgNmaQ-26" vertex="1"><mxGeometry x="120" y="75" width="130" height="100" as="geometry"/></mxCell><mxCell id="8kHsx0QUj_gs8FxgNmaQ-5" value="&lt;font style=&quot;font-size: 14px;&quot;&gt;CMS Bàn / phòng&lt;/font&gt;" style="shape=hexagon;perimeter=hexagonPerimeter2;whiteSpace=wrap;html=1;fixedSize=1;size=30;fillColor=#ffe6cc;strokeColor=#d79b00;fontColor=#1A1A1A;" parent="8kHsx0QUj_gs8FxgNmaQ-26" vertex="1"><mxGeometry x="20" y="155" width="130" height="100" as="geometry"/></mxCell><mxCell id="8kHsx0QUj_gs8FxgNmaQ-6" value="CMS Mặt hàng" style="shape=hexagon;perimeter=hexagonPerimeter2;whiteSpace=wrap;html=1;fixedSize=1;size=30;fillColor=#ffe6cc;strokeColor=#d79b00;fontSize=14;fontColor=#1A1A1A;" parent="8kHsx0QUj_gs8FxgNmaQ-26" vertex="1"><mxGeometry x="120" y="205" width="130" height="100" as="geometry"/></mxCell><mxCell id="8kHsx0QUj_gs8FxgNmaQ-8" value="&lt;font style=&quot;font-size: 14px;&quot;&gt;Báo cáo thông kê&lt;/font&gt;" style="shape=hexagon;perimeter=hexagonPerimeter2;whiteSpace=wrap;html=1;fixedSize=1;size=30;fillColor=#d5e8d4;strokeColor=#82b366;fontColor=#1A1A1A;" parent="8kHsx0QUj_gs8FxgNmaQ-26" vertex="1"><mxGeometry x="240" y="265" width="130" height="100" as="geometry"/></mxCell><mxCell id="8kHsx0QUj_gs8FxgNmaQ-9" value="&lt;font style=&quot;font-size: 14px;&quot;&gt;Phân quyền nhân viên / chi nhánh&lt;/font&gt;" style="shape=hexagon;perimeter=hexagonPerimeter2;whiteSpace=wrap;html=1;fixedSize=1;size=30;fillColor=#fff2cc;strokeColor=#d6b656;fontColor=#1A1A1A;" parent="8kHsx0QUj_gs8FxgNmaQ-26" vertex="1"><mxGeometry x="235" y="142.5" width="140" height="105" as="geometry"/></mxCell><mxCell id="8kHsx0QUj_gs8FxgNmaQ-35" value="Websocket" style="shape=image;imageAspect=0;aspect=fixed;verticalLabelPosition=bottom;verticalAlign=top;dashed=1;dashPattern=1 4;labelBackgroundColor=default;fontSize=14;fillColor=none;image=data:image/png,iVBORw0KGgoAAAANSUhEUgAAAOEAAADhCAMAAAAJbSJIAAAAgVBMVEX///8jHyAAAAAOBgidnJwEAADg4ODR0NAUDhAkHyAdGBnq6ur8/PyEgoJNSksbFhdDQEH29fa2tbVbWVrFxMSnpqZ+fHx4dnbw8PA4NTbo6OjY19gWERKJh4jKyspRT09oZmcuKis7ODlgXl9wbm9GQ0StrK0qJiiWlJWenZ3Av8Dk4JreAAAGf0lEQVR4nO2daXviOgyF4+SmE/ZChyn0htKNLvP/f+AApWWJnCi2FSmpzsc+g4cXnRM5dpYoUqlUKpVKpVKpVCqVSqVSqVQqlUrVEv2i1oCdMCZWzo74f69vKNWfXLEj9okR3/gRE1rEydsdO+KEGNHwZ9FQG5W/ijlxFR/5Eamz2OM3KvERdWL4q0icxZ9g1Ed+o2bUWVywI1IbVUDToD7cLPkRf0AWqav4xp9F4pOpyZK/isRH1FwAInkW+Y1KPrvpPmL3jZov+atIfr44ZUckbxr8VSReu8mv+RF/QBb7SeaovC2If0aOuk1QiE/siO6axyhEbBbn7EfeopCIyyFmsFV8Q/19HTSPeyhERBVHsUluUD9Fswpm1NVuoOS5xYgVGVt9DtPmKj6VIo6+BklkZtHbqKPjEC2uYraxIq5OB2hxFjNbFlfnHxdqVFTTgBFHl79P14y6Kn60zUYdF6oIAApF/EBm8eKrg4CBszid2fW7xjhOh5tCBo+I4ap4FcepRfG6zkAORrVUcI8YzqhX9hPZST2v1EYsAQxp1HCE6CPqoTpWiwZGDEhYr4oVgOGyGJIQi7ieVlj0gBgmi0EJozlq7SYbDysruEcMYtSwhDMUoYnnf1LMvwti1KCEM5RLTfweRUjEZ//lqZCEM9S33gNuEVG/RoAsBiSsUcGdbnGI3lkMR1gTEG1U3ywGI6wN2JRRQxHWyuCXGjFqIEKHCtZB9KliGEJHwEayWELY32DHRQLmH8WP0mexhNBkyCIiAU1+D3z4hTqLZYQmGWOGeEUtte0UQ4i3xEYtJUSNi62gFRGXxb7r5TnlhIgAINvEQRlYRcxv5HwfQAVhZQDqVHCrfuKKSEZoknVZFWsCGnej0hGWZrE+oDEpiFg5ECFhCWK9DB7Ud8siJeHWqBZAhwruEJ2aBimhpYqOgMYti+6EyNWEIuIM3eiB8epn0f2uMdczGPcKGlvTKJ3AedwXh0S8mMB5ARqbUTMSQuz0/iyLvoAWxGv7pZJe9zbWP4NxahPnApvGmIgQa9TvpuFfwR0i0PrJCLFVPEzgggAayKh0hLWyGAoQmMAREtZYEwqQwS8VskhJiEZ8Ra7JoC4g78fn+xKkhEijTpC7S6/3qIvk0yYJkYg4wHkU/cb8FkmjhEijIgG3iIjhGiYMhNj7BIyi+7jSqE0TBjHqN+DOqFWIjROGQDwCbhGrOkvzhP5GPQXcGVUcoW8VzwG3iOVG5SD0Q7wErGoaLIQ+Rs1ei8OVNg0eQg/EyQOwZFWWRSZCD6OC+xwlTYOL0AsRGM6eRTZCD6PCiNaLgdkIvRDBLMLfnZGwoSxyEgbPIjiBYyUMb1RxhE0YlZmwgabBTehj1AcIsTAcOyF5FvkJfYz6AAx3mUUBhB6IKYwojjB0Fs+NKoLQAzEFT6bSEwwZhOGNeuQQQuhVRQjx5O50IYQwImrvBUQ8ZlEMIWTUfIN6Bg+YxW+jyiEsIsbzaI3ahyptGoIIL40af0TR0AcxFkd4jvi5Ljq8QSJaz/pFEZ4a9WvhF40IDLfPoizCI+JxZdvLqKk4wi+jni7d+yBujSqN8LOK53sTXllMm93Hx2iLeLn54ndEFUe4NWphdwmL+AIM91ce4fS2+DesUSHEcwkgnI7jWfGvwRD5CafrzKQAInYCV4XITjgc7y7iBasYBpGbcLr5vEqZzqjMhDuLGlpEXsIjoAGzGMKorITD69ML6YmqyEk4HZ/fKWBB7CMUv1hvFdtkE4ty5zsskTq16KEUEOLzNUbLke2/ub2xi/ZpvcNx8V4PqIrRECV5z9OdXkM3s4CI7VTRoh1DtAHCWWyhhhv7/VadqOK0BLATiHaL7tVrPWIFYPurOATbRIcQF0Cj7xbi3eMEQdjqprHooRDbXMXFErVJ2GbEuycc4usVtcienjzAZTGxPas3lGK6B0Qv3lCI5Cp/jIyXBjijkosQ8W4ppIp0z6MfSDEqHeLiUYhRx53P4v4pyzSSksXshgwROYEjV0Z3REVO4MiVoR9YWVt3T1KqSGZU5ASOXISICymIdEYV0zQ23W8ahEaV0jSKb+UJhiilaZS/ys1HYrI4JttRHEjJIh2ilLN+wiPqQEgWK16r6CMpE7icMItSZjeEWRRy1p8vO980CF8aLWUCl9vf/+mrhUkTCYrp3m6+eP9PhN6B5/6oVCqVSqVSqVQqlUqlUqlUKpVKpVLx6B883reTCx/WDAAAAABJRU5ErkJggg==;" parent="8kHsx0QUj_gs8FxgNmaQ-26" vertex="1"><mxGeometry x="-146" y="200.09" width="79.91" height="79.91" as="geometry"/></mxCell><mxCell id="8kHsx0QUj_gs8FxgNmaQ-27" value="Sping&amp;nbsp; SNAPSHOT&lt;br&gt;JAVA 17/11" style="text;html=1;align=center;verticalAlign=middle;resizable=0;points=[];autosize=1;strokeColor=none;fillColor=none;fontSize=14;labelBackgroundColor=default;container=1;" parent="8kHsx0QUj_gs8FxgNmaQ-31" vertex="1"><mxGeometry x="125" y="390" width="140" height="50" as="geometry"/></mxCell><mxCell id="8kHsx0QUj_gs8FxgNmaQ-36" value="" style="shape=image;imageAspect=0;aspect=fixed;verticalLabelPosition=bottom;verticalAlign=top;dashed=1;dashPattern=1 4;labelBackgroundColor=default;fontSize=14;fillColor=none;image=data:image/png,iVBORw0KGgoAAAANSUhEUgAAAKMAAACMCAAAAAA1/Ua/AAAABGdBTUEAALGPC/xhBQAAACBjSFJNAAB6JgAAgIQAAPoAAACA6AAAdTAAAOpgAAA6mAAAF3CculE8AAAAAmJLR0QA/4ePzL8AAAAJcEhZcwAAAGAAAABgAPBrQs8AAAAHdElNRQfnAhsFEC6qkt8RAAAAEGNhTnYAAAELAAAAvQAAADcAAAAUmQDuWAAADQ9JREFUeNrtXG9sHMUV/1FyjgHbdwLj2Am6iAS5uCklckpj2jik56gmAVwEbkssKuBKS+RWulAVU+qSggWtGtpyIcIGVVygAoc/NkRRcBpwApwDSZuCzqBcqLmAbZkzBKOzz27uuIuz/bA7szOz/8/nJB/8vuzbmbezv5t5M/Pmvbd3joSznr52pgHMYZzDOIdxDuNZSnMY5zCeTTSHcQ7j7FE27fSJeacb4p4npso9lQuqvl5o/xnp9FLCq7y3JWX7mdMz1v37xhXug2GF2XLY9tOnA+Pk1uVrfz4q81O0NGP7+fzpYzY9/eVUEkBJ0UXnFrrUiqGf9gFdBU8VAsBntLj09GJMfx4d+OTDfvX93uWX3luh8HvuOQIAnZffj/SXYweoiMd++zOeBZlIh8+tbXdQqe6mJd0hVq7W/pyZIcZUpLVa96dXJZR5XGPQN96elCRJUrytqTszmxhTvX6j4alXuiluhBFoiklS1Aegc/Ywprp9Rq+v7KYj2WGsZu5QSB78yGxhjDQavtwXVcUyfliSLz4rGOMB41fWcq+M11qDbDZVyRwxhvVnitvtLnW7haFrs8aIXrOX5bY+bt2kKaqpriwrKy0oQKZgKVfRt9lGg+/UmVTmgnG8tZ0vWLZ29YoLi/WFJ1vYO++qi/HFgWGN1DLTF+agiryCuZvCSQPBREaSQoxofW9CkqRMIlwvgGjLsz5GOYjuYNRALhWorG7wt1apsiGKJNXNQbRYxR1jHOFmS2DQULBTHLEwWxtWy31Ri1c6xRhnITaYtd4qQOzmq3tpRZPVOx1iTLErclvCRDLTzEMMiONJW/KO5Bcj82Jv2FQyIWyUMVEgatTDM8TIqHqthRYN8jZso2ZaqEMStHiro7PCsZtViC9UmcuOj3G3q1yiQOEKwu3vOzZp2paDXkypVkR93Eo4YjpjhEEpr/KZaI4TjGqjXqvlQpISDRxGnQ25lxMwmTkO9sLxuym7q8pS2vPs7thnH747odwe10p8wd0Nf7zIqCkHGLfRbbbjShvixRuQnX7oYeXuiFbgI/62xLAl+3Nm6K+EC/zM5iOuQmoChTWzYvxt7rbSkweMO8mwue9x2X7oMsL0/VusOriXu73cbdyK3QkzSBw1CDmYZkmquPUJYU4J5nnAuBHb/bifaGN9o91HABRfTbi9f+Iqstv6eMmLTFqx2yP0DGq1c7GUeZwZQc5I1Bwg8rA+0t21JmnzCUmSErxd4aeraoSpqI70hFqbe0yasYsxSJrssA9xRHMC8HfHEolYNwe9x7IdmxgT1LpP2McYhA65hfnbYuVJsT1nRslC0eyxPV+Q1CucmOBuKzdxC1n6eR3rwhbG9FAXYa+3DxF2FoB1FdztKxs26YC07OlMrMNP18ZyK5uZo05LiMJ87nUDbY71cTDInbF8TiDSM01lpTFG1oSSf5MGpCnGTKTFy7doZTILJG8mTbFYk4lGEOEIMcxFO84MY1Tr8rLwwmmbWAa0ZiQp02nclQlZNEklvMKB2BhjXM+XZHycNmqlR/lZI9z+XKqOT7UimVSVym8To65nrNbBJiOCpZupuz4Qig6S9b2GDg1jl/PrugHGjL77tSVniMxRNZiSJOqoCCRUEfUsUp1gH9XHmGrVwKtuCPZELE9axqQ6T3bIBUEVL6EgleFc5LoYU4KPwe3vjuY+ymInKdM201HZIEzBDF31q1nsehgznMsQDaEZdB+lCG2Peiwymq06QjdzViP1MAZZhM0R603fFoWb5FnTaCZEX81KnaPN0dyznpnI9621f3ixoHRifOzTz0uurTCRGa0iJscIc5TV/JQ4s7W0zVQLHROdrMys0do9j6ve6s77DZzcs0c/Isy/mEKN2qhVYScdkCdKEhdMZcK4H/9CuW4bwZ+8U/GNCjMwRMtEjP27CBe86QxAZLwG7xlhzFKz1HfXGYGIK4j5Q6PxIsaxJwn3gIPclnyS51ICxQjjm2R5CpwJZQQAfFu5jmRJieDbox18s0EL6azKu5SuFk9J8oKVTpyYQkFJSbH4mEyFRnvDJcp1LE0keIyThxSm5iqDFh7pOZ/yFy66oQ7A5KaP2PedWH8/gPSTe+Tjbv262zzA08+cz7dzImTkZi1TrsPTtIhbnQZJqeG5RbCImuOSlBTSEQKSJEUYC3lZVC8+bHjq6CESI/rrI91i9MPTAIQRan8ImNaO2ug16sqBI3eNwgEVEeYkYfixHlGu3iXm7SybDxybAID23y06Vy4rV+o+mw+8OAEAwW8e7+gD0PfPO5yAtMBIPOsLLzJ//Lkl0/jgzgEA+FCxT0pfJA7tIkweAIDWAPCdFRMAtt9xSf18oOD9AQDwFQH4qghWNE/DAADiytVtsTgWFQO1gV8CwARk3Z53lfrM9AgAHDy2FEsf7S+6GCW4dcO5AH6/BQD+dmUWmDZ8A81DM8BIMtZsmTvyhnqxcleQLVTWFxcKv3EIwP6aNd+/4ge3ugDAxemsS6PXDFGfFZ0q+rGPAgt4h6eSU3u3AoD7Csj6OHyjUpfd5Sm8LgQAY11d8C7fcE0FnBDBWEq1gcdIfp1V3t8Gyj3oUcYa+5n69X6SojA8vKtmi6M9i8zbBbSr+bWHQP/cboPBZij9yFHh40H15tDql51gfF+5XkI1lu9Hsg/9L23Lomj5BZMmwzl0CgPXv77nLTJsd/s8tiFOHlUY9TzDY1ysXIc/XWraUMdXmwBg5+WqWPlrRIllPEuXbhyKvfb8MAAMH1xnG+PHJGr3LQOMC5Xr2IA5xmuqqlcDGPC7bwLRxwVq1x8dTE2M4LeLF9fd98BWgM0etSS6Qa2hRbw+kv0c/7FqqlbeuO8b0tPHrvU3+zdvHgbgcbrDpHcqjHcxLeP7sbRe8c2/sMlqifxVOwAMtP9ZuT/5Bhnrghq5CzY/VQgclF9oG+Nhcla53qMW8kYH9aIYnQnldL2oKhrXRP7KE0ryaGN3T5sbALxJtnVTPysFwJyvBYzUMGq2xKj4ClqlpIDRmxBC/DR8Z40xRp9hfEzCWWE5GZX2Y1ajUvFrAMDDR6GxsVEXZO9Ctk+Y2W2E8zObk4Cx4k7C/dGywR/LrtinXWWlXoZKFwIIRBqVX+ttjtB5Y+k66t5KONbJL/qk+pcTrlc3JXE0A+DkokLKY17ZmCBT6gKA0ePJKRSVlFUID2OhIdSjV5NV37ePLRc1ggYGa/PhdXREMXWr4sIfGox01ljnquWZouoBpYnzeWowplRNcBAGzgOFmQ2fT07T+h/VAIDTqNZMKMlGCYSkdh1fM3PODNr/qGBmFGazqsQ0RB1f8/ht1HeG+kcNM6LGqVFfwBna2bggWFDkYiy9UWI/z1ONr/7H2KzdpieEfVgHI7MEAKUPNnl0Iaave/c8mTu54NXFTMUx3wneCCjAwpUrVxNEP3xLfuxk1Wsy8vTbL3Np0vXbNWcLvZ7ntrLS4KBeZIHx9/IZPzHoElEburYpIZgknzun912AfpxLCI436OTLsDrORXwMMKIhqYtR+HilWWdVNogXCuHCgEYgxdWzVpIRRiXYaI6xVW/IDPIpNvIJ3PM1Aj3c3V7YoC37rCSqww/p7ZNGOR83hSvNWsMO7u4l81xVhazSKwK79Q+5hnkptW+afH2Co13c7cABPaFAOBzu7VDH8oCp/6w5GjRyFpgsrDvoz9LErUNCK8zeruqjvJfG1Y8Tonr6KL+kySQYZJbfc8urnQYehvR2hSEZF53GJnGFugKM6dVngcq22HMmvgzTXNfiDeve7TwwoK04rCQGlt8eUc6arxsfdi9zky1B10VT5r/uanOPkEU+rqeubjS2+/mvhGIy6301yxWMz2w0bENFpufquuAZD6xIskNC+JXuyCE1vE/1SdRHJhyup482yF5OnLDJHyTMtVhJWKMl8lP1uyqTtGBTyuVbqeyrCtNQgTKf4tN78jcaBH/fh8zxQdWPssqZI3JGGONkgOsB1xoF45jW7/Tee/y9k0RelnL5/vofZJ5+DwA1W3ZbfecfWHv6MKbJXr1sCYAl5KTU/on5YzX35pqZkQPGwyRg95NiMEFxdJk+FXg5R23MCSNdbr6LbDZL46R43XiwvU29j+QMMYc5M/QC4R57AmCirn3/FT61aFwlX0u8Kzw5A8wJ4zt0Mdkl1LwkYKzbaKM5G+R8rI2DBDsdxS5nEeNR46lx5KCDdmYT4xsmdTtstzKrGCf/YFLZNWS7HSfkdM5EqJ1aRX9ellqY+3MKVOcbI10cfc+eR9iJW8iqvr1xNhLUHGIcf4Vwa9Q12bOSYOyLzEbKjUN9pF8jMWEo4AbK7Z4FiE4xPkI5NrlmNU1R5ZbIU3nC6Gys+w8paCZa2MCs6/atSvlAtAKlSixkQvf3z4csOnGB7bee4+j/SCencEp+cxE3OcaJ++fUBZ4smfmnSvQmkNrRto0MZxjPDM39d9gcxrOJ5jDmh/4PQfsqzGD2hRsAAAAldEVYdGRhdGU6Y3JlYXRlADIwMjMtMDItMjdUMDU6MTQ6MjArMDA6MDD/+m4lAAAAJXRFWHRkYXRlOm1vZGlmeQAyMDIzLTAyLTI3VDA1OjEzOjA4KzAwOjAwHbGE+gAAAABJRU5ErkJggg==;" parent="1" vertex="1"><mxGeometry x="164" y="285" width="87.32" height="75" as="geometry"/></mxCell></root></mxGraphModel></diagram></mxfile>